<svg xmlns="http://www.w3.org/2000/svg" width="82" height="82"><defs><linearGradient id="a" gradientUnits="userSpaceOnUse" x1="12.009" y1="69.991" x2="69.991" y2="12.009"><stop offset="0" stop-color="#0056FF"/><stop offset="0" stop-color="#006AFF"/><stop offset="1" stop-color="#00CAFF"/></linearGradient></defs><path d="M41 82C18.356 82 0 63.644 0 41S18.356 0 41 0s41 18.356 41 41-18.356 41-41 41z" fill="url(#a)"/><path d="M33.021 16.373c8.355-2.233 4.721-1.263 10.901-2.909 9.262-2.427 11.229 4.816 11.899 7.175.397 1.438.782 2.88 1.169 4.32l-1.587 5.919c-.864-3.183-1.698-6.374-2.62-9.542-1.395-4.655-3.293-6.002-8.328-4.826-4.828 1.301-19.072 5.094-20.901 5.607-2.887.824-6.024 2.4-4.549 8.137 1.464 5.475 5.628 21.015 8.07 30.124 1.725 6.634 5.422 5.777 8.326 5.161 2.551-.662 17.72-4.727 20.954-5.627 4.96-1.379 5.68-3.994 4.507-8.528l-.382-1.44 1.602-5.98 1.775 6.641c2.355 8.805-2.766 11.079-6.803 12.352-2.187.592-12.649 3.394-20.668 5.541-9.405 2.577-11.559-4.742-12.252-7.284-.693-2.54-6.492-24.209-8.067-30.123-2.5-9.205 4.549-11.332 6.644-11.933 3.431-.947 6.872-1.863 10.31-2.785z" fill="#FFF"/><path d="M64.355 16.745c1.468.358 2.39 1.631 2.03 2.978-.36 1.348-8.179 30.211-8.179 30.211a1392.178 1392.178 0 0 0-3.769 5.162c-.217.301-.619.197-.645-.201l-.875-6.394S60.73 19.646 61.1 18.292c.369-1.354 1.787-1.903 3.255-1.547z" fill="#FF8300"/><path d="M18.061 30.54 54 20.915l.491 2.554L18.721 33zm5.857-13.17 1.459 5.444c.159.595-.242 1.22-.898 1.395-.654.175-1.314-.166-1.473-.76l-1.459-5.444c-.159-.594.242-1.219.897-1.395.655-.175 1.315.165 1.474.76zm20.228-5.42 1.459 5.443c.159.595-.242 1.22-.898 1.396-.654.175-1.313-.165-1.474-.76l-1.458-5.443c-.159-.596.242-1.221.897-1.396.655-.176 1.315.164 1.474.76zM36.37 49.578l-1.825.494q.331 1.682 1.154 2.827.823 1.144 1.999 1.759 1.176.614 2.619.72 1.443.107 3.007-.316 1.39-.376 2.558-1.112 1.169-.736 1.913-1.776.744-1.041.999-2.338.255-1.296-.153-2.802-.54-1.998-1.991-3.051-1.45-1.052-3.535-.83l-.015-.058q1.541-.852 2.095-2.308.554-1.455.107-3.105-.368-1.362-1.166-2.187-.799-.825-1.85-1.208-1.052-.384-2.264-.382-1.211.001-2.399.323-1.477.399-2.527 1.227-1.05.828-1.636 1.935-.586 1.107-.706 2.444-.12 1.338.272 2.786l1.824-.494q-.334-1.121-.299-2.141.034-1.019.444-1.861.409-.841 1.176-1.452.767-.612 1.897-.917.926-.251 1.781-.25.855.002 1.593.315.737.314 1.277.929.539.615.814 1.629.258.956.07 1.752-.188.797-.661 1.407-.472.609-1.151 1.026-.68.417-1.375.606l-1.535.415.415 1.535 1.535-.416q1.014-.274 1.968-.252.953.021 1.764.377.811.355 1.403 1.05.592.694.89 1.795.29 1.071.083 2.028-.207.958-.774 1.733-.568.775-1.416 1.315-.848.541-1.862.815-1.216.329-2.292.201-1.076-.129-1.915-.647-.84-.519-1.44-1.414-.599-.894-.87-2.126z" fill="#FFF"/></svg>