<?xml version="1.0" encoding="utf-8"?>
<!-- Generator: Adobe Illustrator 24.2.1, SVG Export Plug-In . SVG Version: 6.00 Build 0)  -->
<svg version="1.1" id="Layer_1" xmlns="http://www.w3.org/2000/svg" xmlns:xlink="http://www.w3.org/1999/xlink" x="0px" y="0px"
	 viewBox="0 0 93.4 91.1" style="enable-background:new 0 0 93.4 91.1;" xml:space="preserve">
<path style="fill:#246BE9;" d="M53,0c-2.3,0-4,1.1-5.7,2.8c-9.7,12-15.4,26.2-17.7,40.4c-2.3,12.5-1.1,28.5,2.8,42.7
	c1.1,2.8,2.3,5.1,14.2,5.1l0,0l0,0c32.5,0,46.7-12.5,46.7-45.6l0,0C93.4,13.7,79.7,0,53,0 M51.8,87.2c-1.7,1.1-4.6,0-5.1-1.7l0,0
	l0,0c-6.3-12.5-8.5-26.2-6.3-40.4c2.3-13.7,9.7-26.2,19.9-35.9l0,0l0,0c1.7-1.7,4-1.1,5.7,0.6s1.1,4-0.6,5.7l0,0l0,0
	c-8.5,8-14.8,18.8-17.1,31.3s0,24.5,5.1,35.3l0,0l0,0C54.7,83.7,54.1,86,51.8,87.2 M76.3,28.5C76.3,28.5,76.3,29.1,76.3,28.5
	c-6.8,5.1-11.4,12-13.1,20.5c-1.7,8,0,16.5,4,22.8l0,0l0,0c0.6,1.1,0,2.8-1.1,3.4s-2.8,0-3.4-1.1l0,0l0,0c-4.6-8-6.8-17.1-4.6-26.2
	c1.7-9.1,7.4-17.1,14.8-22.8l0,0l0,0c1.1-1.1,2.8-0.6,4,0C77.5,26.2,77.5,27.9,76.3,28.5 M14.2,80.3c0.6,1.7-1.7,2.8-2.8,1.7
	C4.6,75.8,0,67.8,0,45.6l0,0C0,17.7,10.8,5.7,26.2,1.1c1.7-0.6,2.8,1.1,1.7,2.3c-6.8,11.4-11.4,23.9-13.7,37S12,67.2,14.2,80.3z"/>
</svg>
