<?xml version="1.0" encoding="utf-8"?>
<!-- Generator: Adobe Illustrator 24.2.1, SVG Export Plug-In . SVG Version: 6.00 Build 0)  -->
<svg version="1.1" id="Layer_1" xmlns="http://www.w3.org/2000/svg" xmlns:xlink="http://www.w3.org/1999/xlink" x="0px" y="0px"
	 viewBox="0 0 26.8 35.1" style="enable-background:new 0 0 26.8 35.1;" xml:space="preserve">
<g>
	<path style="fill:#1D202D;" d="M17.4,28.2l-4.9,5c-0.5,0.5-0.5,1.1,0,1.6c0.2,0.2,0.5,0.3,0.7,0.3s0.6-0.1,0.7-0.3l5-5
		c0.5-0.5,0.5-1.1,0-1.6C18.5,27.8,17.9,27.8,17.4,28.2z"/>
	<path style="fill:#1D202D;" d="M2.1,22.2c0-0.1,0.2-0.5,0.7-1.3c0.8-1.2,2.1-2.7,3.8-4.3l0.8-0.8c0.4-0.4,0.9-0.5,1.4-0.3l-0.1-0.1
		c-0.3-0.3-0.3-0.6,0-0.9L9,14.2c0.5-0.5,0.5-1.1,0-1.6s-1.1-0.5-1.6,0L5,15.1c-1.7,1.8-3.1,3.5-4.1,4.9c-0.7,1-0.8,1.6-0.9,1.8
		c-0.1,0.6,0.3,1.2,0.8,1.3h0.3C1.6,23,2,22.8,2.1,22.2z"/>
	<path style="fill:#1D202D;" d="M24.9,0.3L9.4,15.8c0.6,0.6,0.6,1.4,0,1.8L9,18l-2.5,2.5C2,25,1.5,27,1.4,27.4
		c-0.1,0.6,0.3,1.2,0.9,1.3h0.2c0.6,0,0.9-0.4,1.1-0.8c0-0.1,0.2-0.5,0.7-1.4C4.9,25.6,6,24.1,8.1,22l0.8-0.8
		c0.4-0.4,0.9-0.5,1.4-0.3l-0.1-0.1c-0.3-0.3-0.3-0.6,0-0.9l0.3-0.3c0.5-0.5,0.5-1.1,0-1.6l-0.2-0.2l16.1-16c0.5-0.5,0.5-1.1,0-1.6
		C26-0.1,25.3-0.1,24.9,0.3z"/>
	<path style="fill:#1D202D;" d="M22.4,9.6L10.9,21.2c0.6,0.6,0.6,1.4,0,1.8l-0.4,0.4l-2.4,2.4c-1.9,1.9-3.4,3.9-4.2,5.7
		c-0.6,1.4-0.6,2.2-0.6,2.4c0,0.6,0.5,1.1,1.1,1.1s1.1-0.5,1.1-1.1c0,0,0-0.6,0.5-1.6c0.9-1.9,2.5-3.8,3.8-5.1l0.8-0.8
		c0.4-0.4,0.9-0.5,1.4-0.3L11.9,26c-0.3-0.3-0.3-0.6,0-0.9l0.3-0.3c0.5-0.5,0.5-1.1,0-1.6L12,23l12.1-12c0.5-0.5,0.5-1.1,0-1.6
		C23.5,9.2,22.9,9.2,22.4,9.6z"/>
	<path style="fill:#1D202D;" d="M19.9,19l-7.6,7.6c0.6,0.6,0.6,1.4,0,1.8l-1.1,1.1c0.5,0.3,1,0.3,1.4-0.2l8.8-8.8
		c0.5-0.5,0.5-1.1,0-1.6C21,18.5,20.4,18.5,19.9,19z"/>
</g>
</svg>
