<?xml version="1.0" encoding="utf-8"?>
<!-- Generator: Adobe Illustrator 24.2.1, SVG Export Plug-In . SVG Version: 6.00 Build 0)  -->
<svg version="1.1" id="Layer_1" xmlns="http://www.w3.org/2000/svg" xmlns:xlink="http://www.w3.org/1999/xlink" x="0px" y="0px"
	 viewBox="0 0 174.8 162" style="enable-background:new 0 0 174.8 162;" xml:space="preserve">
<path style="fill:#FB6970;" d="M84.4,127.9c30.4,0,53.8-22.9,53.8-51.2c0-26.5-22-42.6-36.6-42.6c-20.3,0-36.6,14.2-39,35.4
	c-0.4,3.9-3.5,7.2-7.5,7.2c-6.6,0-16.1-0.1-22.1-0.1c-2.6,0-4.7-2.1-4.6-4.7c0.9-18.3,7.1-35.5,18.8-48.7C60.1,8.6,79.1,0,101.5,0
	c37.7,0,73.3,34.2,73.3,76.7c0,47.1-39.1,85.3-89.7,85.3c-36.1,0-72.4-23.5-85.1-56.5c0-0.1-0.1-0.3,0-0.4c0.2-1,0.5-1.9,0.8-2.7
	c0.5-1.3,1-2.5,0.9-4l-0.2-4.6c-0.1-2.3,1.2-4.4,3.2-5.3l1.8-0.9c2.1-1,3.6-2.9,4-5.1c0.6-3.4,3.6-5.8,7-5.8
	c5.4,0,10.1,3.6,11.8,8.7C37.9,109.9,51.4,127.9,84.4,127.9z"/>
</svg>
