<?xml version="1.0" encoding="utf-8"?>
<!-- Generator: Adobe Illustrator 24.2.1, SVG Export Plug-In . SVG Version: 6.00 Build 0)  -->
<svg version="1.1" id="Layer_1" xmlns="http://www.w3.org/2000/svg" xmlns:xlink="http://www.w3.org/1999/xlink" x="0px" y="0px"
	 viewBox="0 0 731.7 986.7" style="enable-background:new 0 0 731.7 986.7;" xml:space="preserve">
<g>
	<path style="fill:#F324F3;" d="M353.7,11.7c-13.7,12.9-66.3,67.9-87.6,91.9c-32.1,36-68.4,80.3-97.6,119.1
		c-9.1,12.1-17.2,22.8-17.9,23.6c-0.9,1.3,12.8,1.7,68.1,1.7h69.5l38.4-52.7c21.1-28.9,38.9-52.4,39.6-52.3
		c0.7,0.3,18.4,23.9,39.3,52.7l38.1,52.1l69.1,0.1c37.9,0,68.9-0.3,68.9-0.7c0-0.4-5.5-8.1-12.3-17.1
		C513.6,155.9,464.9,99.5,401.1,34.9L366.4,0L353.7,11.7z M137.1,352.1c-34.1,4.1-60.9,33.1-63.1,68.1c-1.3,23.3,5.6,42,21.6,57.7
		c11.2,10.9,19.5,15.7,33.6,19.3c17.7,4.5,31.9,3.1,49.2-5.3c44-21.2,55.2-80.1,22-116.4C183.9,357.6,161.3,349.2,137.1,352.1z
		 M357.1,352c-36.3,4.1-63.9,36.3-63.9,74.1c0.1,28.4,15.7,53.6,41.2,65.9c17.3,8.4,31.5,9.9,49.2,5.3c14.1-3.6,22.4-8.4,33.6-19.3
		c29.2-28.8,29.3-75.9,0.5-104.7C401.2,356.8,380.1,349.5,357.1,352z M575.7,352.1c-35.5,4.5-63.3,36.7-63.3,73.2
		c0,20.1,7.6,38.4,22,52.7c14,14,32.7,22,51.3,22c26,0,53.1-17.1,64.7-40.4c8.1-16.7,10.3-32.4,6.7-49.6
		C649.2,372.5,613.5,347.2,575.7,352.1z M0.8,621.6c1.5,44.3,8,80,21.9,119.1c28.7,80.5,84.9,149.2,159.1,194
		c44.7,27.1,98.3,45.3,148.7,50.7c19.2,2,57.3,1.7,76.5-0.7c119.9-14.9,226.8-90,282.7-198.1c26.9-52.3,40.7-107.3,41.7-167.9
		l0.4-20.7l-54.9-0.4l-55.1-0.3v15.6c-0.1,111.3-67.7,208.5-172.3,247.6c-24.1,8.9-58.8,15.5-82.5,15.5
		c-80.8,0-164.1-45.2-210.4-114.1c-29.5-43.7-43.5-87.5-45.3-141.2l-0.8-22.7l-55.2-0.4L0,597.3L0.8,621.6L0.8,621.6z"/>
</g>
</svg>
