<?xml version="1.0" encoding="utf-8"?>
<!-- Generator: Adobe Illustrator 24.2.1, SVG Export Plug-In . SVG Version: 6.00 Build 0)  -->
<svg version="1.1" id="Layer_1" xmlns="http://www.w3.org/2000/svg" xmlns:xlink="http://www.w3.org/1999/xlink" x="0px" y="0px"
	 viewBox="0 0 87.6 55.7" style="enable-background:new 0 0 87.6 55.7;" xml:space="preserve">
<path style="fill:#00BAFF;" d="M87.6,52c0,2.1-1.7,3.7-3.7,3.7H3.7C1.7,55.8,0,54.1,0,52V3.7C0,1.7,1.7,0,3.7,0h80.1
	c2.1,0,3.7,1.7,3.7,3.7L87.6,52L87.6,52z"/>
<path style="fill:#FFFFFF;" d="M86.8,1.4C76.4,17.5,60.3,32.3,43.7,31.9c-6.1-0.1-13.1-1.9-19-6.7C20.3,21.6,15.9,16,14.2,8
	c-0.7,0-1.2,0-1.8,0c-2.7,0-4.3,2.4-4,4.6c0.1,0.5,0.2,1.1,0.3,1.7c1.3,7.8,5.9,16.6,13.6,22.3c6,4.4,13.4,7.3,21.5,7.3
	c14.6,0,30.2-9.3,43.8-33.2v-7C87.6,2.9,87.3,2,86.8,1.4z"/>
</svg>
