<!-- Generator: Adobe Illustrator 24.2.1, SVG Export Plug-In  -->
<svg version="1.1" xmlns="http://www.w3.org/2000/svg" xmlns:xlink="http://www.w3.org/1999/xlink" x="0px" y="0px" width="152px"
     height="152px" viewBox="0 0 152 152" style="overflow:visible;enable-background:new 0 0 152 152;" xml:space="preserve">
<defs>
</defs>
<g>
    <g>
        <path style="fill:#236699;" d="M151.9,76c0,24.3,0,48.6,0.1,72.9c0,2.5-0.6,3.1-3.1,3.1c-48.6-0.1-97.3-0.1-145.9,0
            c-2.5,0-3.1-0.6-3.1-3.1C0.1,100.3,0.1,51.7,0,3.1C0,0.6,0.6,0,3.1,0c48.6,0.1,97.3,0.1,145.9,0c2.5,0,3.1,0.6,3.1,3.1
            C151.9,27.4,151.9,51.7,151.9,76z M80.5,142c0.7-0.1,2.8-0.4,5-0.6c3.6-0.3,5.1-2.2,5.5-5.8c2.2-17.8,4.7-35.6,7-53.4
            c1.5-11.8-0.5-13.4-12.7-10.8c-3.3,0.7-5,2.3-5.5,5.9c-2.4,19.1-5.1,38.2-7.6,57.4C71.2,141.9,71.5,142.1,80.5,142z M38.8,56.6
            c-0.1,7.6,1.9,14.5,5.3,21.1c1.7,3.3,4.1,5.7,7.9,3.7c3.8-2,3.3-5.2,1.5-8.5c-6.7-12.9-5.2-25.4,2.5-37.3
            c3.8-5.8,8.9-10.3,14.9-13.8c3.2-1.9,4.6-4.6,2.5-7.9c-2-3.1-4.9-3-7.9-1.2C49.1,22.7,39.6,37,38.8,56.6z M59.2,56
            c0,6,1.6,11.8,3.7,15.6c1.2,2.2,2.7,4.1,5.5,2.8c2.7-1.3,2.3-3.5,1.3-5.9c-5.8-13.4-3-23.6,8.9-32c2.1-1.5,3.9-3.1,2.3-5.7
            c-1.7-2.9-4.2-1.9-6.5-0.5C64.6,36.6,59.7,45.7,59.2,56z M95.8,47c-1,0.1-1.8,0.1-2.7,0.1c-8.1,0.8-12,5.7-11.1,14
            c0.5,4.8,3.9,6.1,12.5,4.9c1.5-0.2,3-0.6,4.3-1.2c4-1.9,6.3-8.1,5.1-13.5C102.9,46.7,99.1,47.2,95.8,47z"/>
        <path style="fill:#F9FAFC;" d="M80.5,142c-9,0.1-9.2-0.1-8.3-7.4c2.5-19.1,5.2-38.2,7.6-57.4c0.5-3.7,2.1-5.2,5.5-5.9
            c12.2-2.6,14.2-1,12.7,10.8c-2.3,17.8-4.8,35.6-7,53.4c-0.4,3.6-2,5.5-5.5,5.8C83.3,141.6,81.2,141.9,80.5,142z"/>
        <path style="fill:#F6F8FA;" d="M38.8,56.6C39.6,37,49.1,22.7,65.6,12.7c3-1.8,5.9-1.9,7.9,1.2c2.1,3.3,0.7,6-2.5,7.9
            c-6,3.5-11.1,8-14.9,13.8c-7.7,11.9-9.3,24.4-2.5,37.3c1.8,3.4,2.3,6.6-1.5,8.5c-3.8,2-6.2-0.4-7.9-3.7
            C40.6,71.1,38.7,64.2,38.8,56.6z"/>
        <path style="fill:#F0F4F7;" d="M59.2,56c0.5-10.3,5.4-19.4,15.2-25.7c2.3-1.4,4.7-2.4,6.5,0.5c1.6,2.6-0.2,4.2-2.3,5.7
            c-11.9,8.5-14.7,18.6-8.9,32c1,2.4,1.4,4.6-1.3,5.9c-2.8,1.3-4.2-0.6-5.5-2.8C60.8,67.8,59.3,62,59.2,56z"/>
        <path style="fill:#F6F9FB;" d="M95.8,47c3.3,0.2,7.2-0.3,8.2,4.3c1.2,5.4-1.1,11.6-5.1,13.5c-1.3,0.6-2.8,1-4.3,1.2
            c-8.6,1.3-12-0.1-12.5-4.9c-0.9-8.3,3-13.3,11.1-14C93.9,47.1,94.8,47.1,95.8,47z"/>
    </g>
</g>
</svg>
