<?xml version="1.0" encoding="utf-8"?>
<!-- Generator: Adobe Illustrator 24.2.1, SVG Export Plug-In . SVG Version: 6.00 Build 0)  -->
<svg version="1.1" id="Layer_1" xmlns="http://www.w3.org/2000/svg" xmlns:xlink="http://www.w3.org/1999/xlink" x="0px" y="0px"
	 viewBox="0 0 469.8 380.1" style="enable-background:new 0 0 469.8 380.1;" xml:space="preserve">
<g transform="translate(0.000000,520.000000) scale(0.100000,-0.100000)">
	<path style="fill:#0AC269;" d="M430,5193.8c-102-16-223-85-298-169c-62-70-95-134-121-239c-7-26-11-615-11-1714v-1673l351,348
		c193,192,353,351,355,354c3,3,801,5,1772,6c1635,0,1772,2,1832,18c166,44,300,166,363,331l22,60l2,1120c3,1068,2,1123-16,1181
		c-56,186-195,321-378,368c-54,14-263,16-1954,15C1307,5198.8,444,5195.8,430,5193.8z M1036,4464.8c12-9,31-27,41-42
		c17-25,18-71,20-793c1-700,0-770-15-800c-24-46-64-72-116-75c-53-3-107,29-126,76c-10,25-13,190-13,794c0,727,1,764,19,794
		C884,4483.8,974,4504.8,1036,4464.8z M1676,4434.8c100-48,104-210,6-267c-68-40-173-16-212,48c-23,37-28,104-12,147
		c12,30,47,66,77,78C1568,4454.8,1640,4451.8,1676,4434.8z M2409,4179.8c18-17,21-31,21-109v-90h125c137,0,169-9,199-55
		c42-63,6-166-64-184c-19-5-81-9-137-9c-55,0-105-2-111-6c-5-3-9-145-8-351c1-335,2-345,22-365c25-26,96-32,170-14
		c64,15,94,9,133-24c24-20,33-37,36-68c9-103-102-167-282-165c-162,2-274,62-324,173c-24,52-24,57-27,433c-2,209-5,381-7,383
		c-2,3-37,4-76,5c-64,0-76,3-97,24c-20,20-23,31-19,61c5,30,33,62,174,201c92,91,178,170,191,177
		C2356,4210.8,2381,4205.8,2409,4179.8z M3649,3986.8c96-23,193-79,264-152c141-146,211-457,120-535c-36-32-80-35-446-35l-368,1
		l6-35c16-86,96-174,191-210c109-41,285-30,414,27c66,29,87,33,121,21c74-25,108-117,66-179c-39-59-199-131-322-146
		c-197-24-371,5-500,82c-122,74-216,214-249,375c-19,93-15,288,8,375c39,147,141,287,257,350c97,53,190,74,309,71
		C3578,3994.8,3636,3990.8,3649,3986.8z M1671,3967.8c70-47,69-34,69-594c0-576,1-566-76-603c-50-25-95-23-138,5
		c-60,39-59,31-59,596c0,493,1,519,19,551C1524,3987.8,1610,4008.8,1671,3967.8z"/>
	<path style="fill:#0AC269;" d="M3413,3740.8c-89-29-148-86-178-171c-29-80-50-75,276-74h291l-5,32
		C3770,3692.8,3583,3795.8,3413,3740.8z"/>
</g>
</svg>
