<!-- Generator: Adobe Illustrator 24.2.1, SVG Export Plug-In  -->
<svg version="1.1" xmlns="http://www.w3.org/2000/svg" xmlns:xlink="http://www.w3.org/1999/xlink" x="0px" y="0px" width="230.8px"
     height="245px" viewBox="0 0 230.8 245" style="overflow:visible;enable-background:new 0 0 230.8 245;" xml:space="preserve">
<defs>
</defs>
<g>
    <g>
        <g>
            <g>
                <path d="M173.6,115.8c1.8-0.2,3.5-0.2,5.1,0c0.9-2.1,1.1-5.7,0.2-9.6c-1.2-5.8-2.9-9.4-6.3-8.8c-3.4,0.5-3.5,4.8-2.3,10.6
                    C171,111.2,172.3,114,173.6,115.8z"/>
                <path d="M144.4,120.4c2.4,1.1,3.9,1.8,4.5,1.2c0.4-0.4,0.3-1.1-0.3-2.1c-1.2-2-3.7-4-6.3-5.1c-5.4-2.3-11.8-1.5-16.7,2
                    c-1.6,1.2-3.2,2.8-3,3.9c0.1,0.3,0.3,0.6,0.9,0.6c1.3,0.2,6-2.2,11.5-2.6C138.8,118.1,141.9,119.3,144.4,120.4z"/>
                <path d="M139.5,123.2c-3.2,0.5-4.9,1.5-6,2.5c-1,0.8-1.6,1.8-1.5,2.4c0,0.3,0.1,0.5,0.2,0.6c0.1,0.1,0.3,0.2,0.5,0.2
                    c0.7,0,2.3-0.6,2.3-0.6c4.4-1.6,7.3-1.4,10.2-1.1c1.6,0.2,2.3,0.3,2.7-0.3c0.1-0.2,0.2-0.5-0.1-1
                    C147,124.7,143.8,122.6,139.5,123.2z"/>
                <path d="M163.7,133.4c2.2,1.1,4.5,0.6,5.3-0.9c0.8-1.6-0.3-3.7-2.5-4.8c-2.2-1.1-4.5-0.6-5.3,0.9
                    C160.5,130.2,161.6,132.4,163.7,133.4z"/>
                <path d="M177.6,121.3c-1.8,0-3.2,1.9-3.2,4.3c0,2.4,1.3,4.4,3.1,4.4c1.8,0,3.2-1.9,3.2-4.3C180.7,123.3,179.4,121.4,177.6,121.3
                    z"/>
                <path d="M60,164.6c-0.4-0.5-1.2-0.4-1.8-0.2c-0.5,0.1-1,0.2-1.6,0.2c-1.3,0-2.4-0.6-3-1.5c-0.8-1.2-0.8-3.1,0.1-5.1
                    c0.1-0.3,0.3-0.6,0.4-0.9c1.4-3.2,3.8-8.4,1.1-13.4c-2-3.8-5.2-6.1-9.1-6.6c-3.7-0.5-7.6,0.9-10,3.6c-3.9,4.3-4.5,10.1-3.7,12.1
                    c0.3,0.8,0.7,1,1,1c0.7,0.1,1.6-0.4,2.2-2c0-0.1,0.1-0.3,0.2-0.5c0.3-0.9,0.8-2.5,1.6-3.8c1-1.6,2.6-2.6,4.4-3
                    c1.9-0.4,3.8,0,5.4,1c2.7,1.8,3.8,5.1,2.6,8.3c-0.6,1.6-1.6,4.8-1.4,7.4c0.4,5.2,3.6,7.3,6.5,7.5c2.8,0.1,4.8-1.5,5.3-2.6
                    C60.4,165.2,60.1,164.8,60,164.6z"/>
                <path d="M221.8,155.1c-0.1-0.4-0.8-2.9-1.8-6c-1-3.1-1.9-5.2-1.9-5.2c3.8-5.7,3.9-10.9,3.4-13.8c-0.5-3.6-2-6.7-5.1-9.8
                    c-3-3.2-9.2-6.4-17.9-8.9c-1-0.3-4.3-1.2-4.6-1.3c0-0.2-0.2-10.7-0.4-15.3c-0.1-3.3-0.4-8.4-2-13.4c-1.9-6.8-5.2-12.8-9.3-16.6
                    c11.3-11.8,18.4-24.7,18.4-35.8c0-21.4-26.3-27.9-58.6-14.5c0,0-6.8,2.9-6.9,2.9c0,0-12.4-12.2-12.6-12.3
                    C85.7-27-29.7,101.2,7.2,132.3l8.1,6.8c-2.1,5.4-2.9,11.6-2.2,18.3c0.9,8.6,5.3,16.8,12.4,23.1c6.8,6,15.7,9.8,24.4,9.8
                    c14.4,33.1,47.1,53.4,85.6,54.5c41.2,1.2,75.9-18.1,90.4-52.9c0.9-2.4,5-13.4,5-23.1C230.8,159.1,225.3,155.1,221.8,155.1z
                     M53,181.1c-1.3,0.2-2.5,0.3-3.8,0.3C36.8,181,23.3,169.8,22,156.5c-1.5-14.7,6-26,19.3-28.7c1.6-0.3,3.5-0.5,5.6-0.4
                    c7.5,0.4,18.4,6.1,20.9,22.4C70,164.2,66.5,178.8,53,181.1z M39.1,119c-8.3,1.6-15.6,6.3-20,12.8c-2.7-2.2-7.6-6.5-8.5-8.2
                    c-7.1-13.5,7.8-39.8,18.2-54.7c25.7-36.7,66-64.5,84.7-59.4c3,0.9,13.1,12.5,13.1,12.5s-18.6,10.3-35.9,24.8
                    C67.3,64.7,49.7,90.8,39.1,119z M169.9,175.6c0.3-0.1,0.5-0.4,0.4-0.7c0-0.4-0.4-0.7-0.8-0.6c0,0-19.5,2.9-37.9-3.9
                    c2-6.5,7.3-4.2,15.4-3.5c14.5,0.9,27.6-1.3,37.2-4c8.3-2.4,19.3-7.1,27.8-13.8c2.9,6.3,3.9,13.3,3.9,13.3s2.2-0.4,4.1,0.7
                    c1.8,1.1,3,3.3,2.2,9.1c-1.8,10.9-6.4,19.7-14.2,27.8c-4.7,5.1-10.4,9.5-17,12.7c-3.5,1.8-7.2,3.4-11.1,4.7
                    c-29.2,9.5-59.1-0.9-68.8-23.5c-0.8-1.7-1.4-3.5-1.9-5.3c-4.1-14.8-0.6-32.7,10.3-43.9c0,0,0,0,0,0c0.7-0.7,1.4-1.6,1.4-2.6
                    c0-0.9-0.6-1.8-1.1-2.5c-3.8-5.5-17-15-14.4-33.2c1.9-13.1,13.4-22.3,24.1-21.8c0.9,0,1.8,0.1,2.7,0.2c4.6,0.3,8.7,0.9,12.5,1
                    c6.4,0.3,12.1-0.7,18.9-6.3c2.3-1.9,4.1-3.6,7.2-4.1c0.3-0.1,1.1-0.3,2.8-0.3c1.7,0.1,3.2,0.5,4.7,1.5
                    c5.4,3.6,6.2,12.4,6.5,18.8c0.2,3.7,0.6,12.5,0.8,15.1c0.3,5.8,1.9,6.6,5,7.7c1.7,0.6,3.4,1,5.7,1.7c7.2,2,11.5,4.1,14.2,6.7
                    c1.6,1.6,2.4,3.4,2.6,5.1c0.9,6.2-4.8,13.9-19.8,20.8c-16.4,7.6-36.3,9.5-50,8c-1.1-0.1-4.8-0.5-4.8-0.5
                    c-11-1.5-17.3,12.7-10.7,22.5c4.3,6.3,15.8,10.4,27.4,10.4c26.6,0,47-11.3,54.6-21.1c0.2-0.3,0.2-0.3,0.6-0.9
                    c0.4-0.6,0.1-0.9-0.4-0.6c-6.2,4.2-33.8,21.1-63.3,16c0,0-3.6-0.6-6.9-1.9c-2.6-1-8-3.5-8.7-9.1
                    C154.9,182.6,169.9,175.6,169.9,175.6z M132.2,171.2C132.2,171.2,132.2,171.2,132.2,171.2C132.2,171.2,132.2,171.2,132.2,171.2
                    C132.2,171.2,132.2,171.2,132.2,171.2z M86.6,68.8C95.8,58.2,107,49,117.1,43.9c0.3-0.2,0.7,0.2,0.5,0.5
                    c-0.8,1.5-2.3,4.6-2.8,6.9c-0.1,0.4,0.3,0.6,0.6,0.4c6.3-4.3,17.2-8.9,26.8-9.4c0.4,0,0.6,0.5,0.3,0.8c-1.5,1.1-3,2.7-4.2,4.2
                    c-0.2,0.3,0,0.6,0.3,0.7c6.7,0,16.2,2.4,22.4,5.9c0.4,0.2,0.1,1-0.3,0.9c-9.3-2.1-24.6-3.8-40.5,0.1c-14.2,3.5-25,8.8-32.9,14.5
                    C86.8,69.7,86.3,69.2,86.6,68.8z"/>
            </g>
        </g>
    </g>
</g>
</svg>
