
<?xml version="1.0" encoding="utf-8"?>
<!-- Generator: Adobe Illustrator 18.0.0, SVG Export Plug-In . SVG Version: 6.00 Build 0)  -->
<!DOCTYPE svg PUBLIC "-//W3C//DTD SVG 1.1//EN" "http://www.w3.org/Graphics/SVG/1.1/DTD/svg11.dtd">
<svg version="1.1" id="Layer_1" xmlns="http://www.w3.org/2000/svg" xmlns:xlink="http://www.w3.org/1999/xlink" x="0px" y="0px"
     viewBox="0 0 215.607 200" enable-background="new 0 0 215.607 200" xml:space="preserve">
<g>
    <g>
        <g>
            <path fill="#FFFFFF" d="M175.193,125.52c0,11.717-9.496,21.213-21.212,21.213H63.549c-11.717,0-21.215-9.497-21.215-21.213
                V37.362c0-11.713,9.498-21.213,21.215-21.213h90.432c11.717,0,21.212,9.5,21.212,21.213V125.52z"/>
        </g>
    </g>
    <g>
        <g>
            <path fill="#394257" d="M65.67,12.813c0,0,8.909-29.048,19.967,0.331C66.166,12.813,65.67,12.813,65.67,12.813z"/>
        </g>
    </g>
    <g>
        <g>
            <path fill="#394257" d="M131.335,12.813c0,0,8.913-29.048,19.968,0.331C131.831,12.813,131.335,12.813,131.335,12.813z"/>
        </g>
    </g>
    <g>
        <g>
            <g>
                <path fill="#FFFFFF" d="M148.96,172.365c0.561,1.783-0.424,3.689-2.203,4.253l-61.365,19.515
                    c-1.784,0.561-3.691-0.419-4.259-2.205l-12.837-40.374c-0.564-1.78,0.421-3.688,2.205-4.256l61.366-19.509
                    c1.781-0.569,3.691,0.421,4.258,2.205L148.96,172.365z"/>
            </g>
            <g>
                <path fill="#394257" d="M84.706,200c-2.809,0-5.272-1.798-6.124-4.476l-12.838-40.372c-1.069-3.376,0.803-6.991,4.175-8.065
                    l61.371-19.511c3.293-1.048,7.007,0.867,8.062,4.175l12.833,40.371c1.069,3.377-0.802,6.991-4.169,8.065l-61.369,19.512
                    C86.011,199.899,85.359,200,84.706,200z M133.229,133.336l-61.473,19.527c-0.187,0.06-0.292,0.263-0.231,0.452l12.834,40.371
                    c0.086,0.275,0.319,0.278,0.46,0.234l61.362-19.512c0.184-0.06,0.288-0.263,0.229-0.455l-12.836-40.365
                    C133.514,133.414,133.357,133.336,133.229,133.336z"/>
            </g>
        </g>
        <g>
            <g>
                <path fill="#FFFFFF" d="M70.412,150.166c-1.504,0.714-2.296,2.436-1.778,4.066l12.836,40.372
                    c0.206,0.649,0.597,1.194,1.09,1.593l16.669-32.429L70.412,150.166z"/>
            </g>
            <g>
                <path fill="#394257" d="M84.403,199.237l-3.756-0.689c-0.971-0.79-1.684-1.832-2.062-3.018l-12.84-40.378
                    c-0.96-3.03,0.483-6.348,3.367-7.723l1.296-0.619l32.949,15.559L84.403,199.237z M71.794,154.17l11.066,34.81l12.238-23.805
                    L71.794,154.17z"/>
            </g>
        </g>
        <g>
            <g>
                <path fill="#FFFFFF" d="M149.221,175.26c0.264-0.689,0.318-1.459,0.074-2.221l-12.759-40.137
                    c-0.567-1.788-2.402-2.533-4.187-1.972l-0.38,0.126l-16.242,27.28L149.221,175.26z"/>
            </g>
            <g>
                <path fill="#394257" d="M149.117,178.605l-37.654-19.03l18.488-31.049l1.467-0.479c3.483-1.1,6.978,0.692,8.005,3.943
                    l12.762,40.132c0.436,1.384,0.392,2.836-0.125,4.209L149.117,178.605z M119.995,157.096l25.081,12.674l-11.357-35.727
                    L119.995,157.096z"/>
            </g>
        </g>
        <g>
            <g>
                <path fill="#FFFFFF" d="M134.628,130.62c-0.739-0.334-1.589-0.42-2.423-0.153l-61.368,19.509
                    c-0.947,0.306-1.661,0.989-2.043,1.833l42.243,21.324L134.628,130.62z"/>
            </g>
            <g>
                <path fill="#394257" d="M112.275,177.152l-46.463-23.451l0.22-3.141c0.748-1.655,2.163-2.92,3.881-3.469l61.377-19.514
                    c1.508-0.481,3.138-0.374,4.584,0.281l2.999,1.355L112.275,177.152z M75.353,151.728l34.447,17.386l19.031-34.293
                    L75.353,151.728z"/>
            </g>
        </g>
    </g>
    <g>
        <g>
            <path fill="#394257" d="M108.159,93.136c-30.968,0-57.398,8.076-70.653,20.725c0.052,16.384,12.953,33.718,29.358,33.718h82.592
                c16.402,0,29.012-17.634,29.069-34.018C165.27,100.912,139.126,93.136,108.159,93.136z"/>
        </g>
    </g>
    <g>
        <g>
            <path fill="#394257" d="M165.341,15.724l50.266,29.109c0,0-22.397,17.916-40.331,5.086c-0.998-0.71,0.531-21.092-0.434-21.999
                L165.341,15.724z"/>
        </g>
    </g>
    <g>
        <g>
            <path fill="#394257" d="M50.265,15.724L0,44.833c0,0,22.397,17.916,40.331,5.086c0.996-0.71-0.533-21.092,0.434-21.999
                L50.265,15.724z"/>
        </g>
    </g>
    <g>
        <g>
            <path fill="#E16053" d="M108.159,99.198c-30.968,0-56.522,8.429-69.777,20.253c0.055,15.318,12.077,28.128,28.482,28.128h82.592
                c16.402,0,28.614-12.218,28.671-27.536C164.869,108.219,139.126,99.198,108.159,99.198z"/>
        </g>
    </g>
    <g>
        <g>
            <path fill="#394257" d="M102.483,69.356c-0.873,3.481-3.331,5.86-5.486,5.318c-2.165-0.54-3.208-3.799-2.334-7.28
                c0.877-3.48,3.336-5.858,5.497-5.318C102.32,62.618,103.36,65.878,102.483,69.356z"/>
        </g>
    </g>
    <g>
        <g>
            <path fill="#394257" d="M122.715,67.262c0.989,3.452,0.054,6.743-2.09,7.356c-2.135,0.616-4.67-1.684-5.665-5.132
                c-0.987-3.447-0.047-6.737,2.093-7.356C119.188,61.52,121.729,63.816,122.715,67.262z"/>
        </g>
    </g>
    <g>
        <g>
            <path fill="#394257" d="M86.024,124.685c2.916,4.978,2.775,10.477-0.318,12.285c-3.086,1.81-7.953-0.757-10.866-5.732
                c-2.919-4.979-2.776-10.478,0.313-12.287C78.24,117.141,83.11,119.711,86.024,124.685z"/>
        </g>
    </g>
    <g>
        <g>
            <path fill="#394257" d="M133.769,124.969c-2.919,4.976-2.776,10.48,0.312,12.285c3.088,1.811,7.958-0.757,10.87-5.732
                c2.919-4.976,2.773-10.474-0.315-12.287C141.546,117.424,136.682,119.993,133.769,124.969z"/>
        </g>
    </g>
    <g>
        <g>
            <g>
                <path fill="#394257" d="M178.468,40.365c0-16.437-13.32-29.787-29.761-29.787H66.864c-16.436,0-29.842,13.083-29.842,29.522
                    v82.594c0,16.43,13.406,30.331,29.842,30.331h82.592c16.432,0,29.761-13.608,29.761-30.044L178.468,40.365z M173.272,124.626
                    c0,12.261-9.944,22.204-22.207,22.204H65.422c-12.263,0-22.205-9.942-22.205-22.204V38.977c0-12.26,9.942-22.203,22.205-22.203
                    h85.643c12.263,0,22.207,9.943,22.207,22.203V124.626z"/>
            </g>
        </g>
    </g>
</g>
</svg>
