<?xml version="1.0" encoding="utf-8"?>
<!-- Generator: Adobe Illustrator 24.2.1, SVG Export Plug-In . SVG Version: 6.00 Build 0)  -->
<svg version="1.1" id="Layer_1" xmlns="http://www.w3.org/2000/svg" xmlns:xlink="http://www.w3.org/1999/xlink" x="0px" y="0px"
	 viewBox="0 0 204 204" style="enable-background:new 0 0 204 204;" xml:space="preserve">
<g transform="translate(0.000000,204.000000) scale(0.100000,-0.100000)">
	<path style="fill:#0593FF;" d="M925,2033c-117-26-246-101-312-179c-38-46-47-51-109-63c-310-62-498-378-409-686l26-88l-22-61
		C36,777,89,547,225,408c79-81,230-158,311-158c16,0,46-23,96-74C744,63,869,9,1020,9c151,1,273,54,387,168c49,50,80,73,96,73
		c34,0,135,35,189,65c166,93,277,285,273,475c-2,66-19,152-40,203c-9,23-7,39,13,100c31,90,34,222,8,312c-61,208-233,361-438,390
		c-27,4-48,10-48,14s-27,35-60,68c-59,60-137,109-222,139C1137,2031,967,2043,925,2033z M1145,1877c61-22,145-71,145-85
		c0-4-24-16-52-26c-207-72-350-281-350-511c0-49,5-103,11-118c10-27,10-28-11-22c-57,17-198,123-198,149c0,4-9,20-19,35
		c-62,87-69,256-14,371C746,1854,958,1944,1145,1877z M1557,1640c161-56,265-202,267-377c0-45-2-85-6-88c-4-4-26,9-50,30
		c-53,45-165,99-235,114c-151,31-340-18-453-118c-43-38-50-38-51-3c-10,178,41,298,162,388c51,37,112,62,174,71c22,3,41,6,43,8
		C1415,1672,1511,1656,1557,1640z M491,1617c-5-14-9-74-7-134c2-92,7-119,31-178c35-86,69-137,136-203c44-44,150-106,213-126
		c18-6,18-7,1-26c-31-34-136-79-205-89c-189-25-373,93-430,275c-47,155-8,307,109,418c43,40,149,102,158,92
		C499,1644,496,1631,491,1617z M1525,1176c133-35,232-125,277-254c62-176,0-366-154-469c-46-31-98-56-104-50c-2,2,1,32,7,66
		c36,226-86,462-294,564c-40,21-82,37-92,37c-17,0-16,3,5,25c27,29,111,71,167,84C1394,1192,1469,1191,1525,1176z M1226,892
		c75-49,119-99,158-182c28-59,31-74,30-160c0-109-16-157-79-244c-66-92-180-152-301-159c-61-4-114,7-182,38c-56,26-123,75-101,75
		c7,0,49,18,93,39c143,69,254,208,290,361c14,59,16,197,3,248C1128,941,1157,936,1226,892z M375,774c121-59,272-72,392-34
		c64,21,136,60,185,101c26,22,49,35,52,31c3-5,4-49,3-98c-2-76-7-98-33-155C863,384,573,311,369,467c-55,42-122,134-139,191
		c-16,54-24,145-16,186l7,37l42-36C286,825,337,793,375,774z"/>
</g>
</svg>
