<?xml version="1.0" encoding="utf-8"?>
<!-- Generator: Adobe Illustrator 24.2.1, SVG Export Plug-In . SVG Version: 6.00 Build 0)  -->
<svg version="1.1" id="Layer_1" xmlns="http://www.w3.org/2000/svg" xmlns:xlink="http://www.w3.org/1999/xlink" x="0px" y="0px"
	 viewBox="0 0 53.1 33.9" style="enable-background:new 0 0 53.1 33.9;" xml:space="preserve">
<g>
	<path style="fill:#1999E3;" d="M53.1,22.1c0,3.2-1.4,6.3-3.7,8.5c-0.2,0.1-0.4,0.1-0.6,0c-0.9-0.8-1.9-1.5-3-1.9c-0.7-0.3-1.8-0.4-1.8-1.4
		c0-0.2,0.1-0.4,0.2-0.6c0,0,0,0,0-0.1c0.9-1.3,1.5-2.8,1.7-4.4c0,0,0,0,0,0c0.1-0.4,0.1-0.8,0.1-1.3v0c-0.1-2.3-2-4.1-4.4-4.1
		c-2.3,0-4.2,1.8-4.4,4.1v0c0,0.4,0.1,0.8,0.1,1.3c0,0,0,0,0,0c0.2,1.6,0.8,3.1,1.7,4.4c0,0,0,0,0,0.1c0.1,0.2,0.2,0.4,0.2,0.6
		c0,0.9-1,1-1.7,1.3c-0.1,0-0.2,0.2-0.2,0.3c0,0.1,0,0.3,0.1,0.4c0.3,0.3,0.5,0.6,0.8,1c0.8,1,1.4,2.1,1.9,3.2l0,0c0,0,0,0,0,0.1
		c0,0,0,0,0,0c0,0,0,0.1,0,0.1c0,0.2-0.1,0.4-0.3,0.4c0,0-0.1,0-0.1,0c-0.1,0-0.2,0-0.3-0.1c-2.4-2.5-5-4.4-8.3-5.4
		c-0.1,0-0.2-0.1-0.2-0.1c0,0-0.1-0.1-0.1-0.1c-0.8-0.5-0.9-1.5-0.5-2.3c0.6-1.1,1.3-2.2,1.8-3.4c1.3-3.1,2-6.9-0.1-9.8
		c-1.3-1.8-3.5-2.9-5.7-2.9c-2.3,0-4.4,1.1-5.7,2.9c-2.1,2.9-1.3,6.7-0.1,9.8c0.5,1.2,1.2,2.2,1.8,3.4c0.4,0.8,0.3,1.8-0.5,2.3
		c0,0-0.1,0.1-0.1,0.1c-0.1,0-0.1,0.1-0.2,0.1c-3.3,1-5.9,2.9-8.3,5.4c-0.1,0.1-0.2,0.1-0.3,0.1c0,0-0.1,0-0.1,0
		c-0.2,0-0.3-0.2-0.3-0.4c0,0,0-0.1,0-0.1c0,0,0,0,0,0c0,0,0,0,0-0.1l0,0c0.5-1.1,1.2-2.2,1.9-3.2c0.2-0.3,0.5-0.6,0.8-1
		c0.1-0.1,0.1-0.2,0.1-0.4c0-0.1-0.1-0.2-0.2-0.3c-0.7-0.3-1.7-0.4-1.7-1.3c0-0.2,0.1-0.4,0.2-0.6c0,0,0,0,0-0.1
		c0.9-1.3,1.5-2.8,1.7-4.4c0,0,0,0,0,0c0.1-0.4,0.1-0.8,0.1-1.3v0c-0.1-2.3-2-4.1-4.4-4.1c-2.3,0-4.2,1.8-4.4,4.1v0
		c0,0.4,0.1,0.8,0.1,1.3c0,0,0,0,0,0c0.2,1.6,0.8,3.1,1.7,4.4c0,0,0,0,0,0.1c0.1,0.2,0.2,0.4,0.2,0.6c0,1-1.1,1.1-1.8,1.4
		c-1.1,0.4-2.2,1.1-3,1.9c-0.2,0.1-0.4,0.2-0.6,0c-3.3-3-4.6-7.7-3.2-12c1.4-4.3,5.2-7.3,9.7-7.8c0.1,0,0.3-0.1,0.3-0.2
		C13.3,4.1,19.6,0,26.5,0c6.9,0,13.2,4.1,15.9,10.5c0.1,0.1,0.2,0.2,0.3,0.2C48.6,11.3,53.1,16.2,53.1,22.1"/>
</g>
</svg>
