<?xml version="1.0" encoding="utf-8"?>
<!-- Generator: Adobe Illustrator 24.2.1, SVG Export Plug-In . SVG Version: 6.00 Build 0)  -->
<svg version="1.1" id="Layer_1" xmlns:sketch="http://www.bohemiancoding.com/sketch/ns"
	 xmlns="http://www.w3.org/2000/svg" xmlns:xlink="http://www.w3.org/1999/xlink" x="0px" y="0px" viewBox="0 0 200 200"
	 style="enable-background:new 0 0 200 200;" xml:space="preserve">
<desc>Created with Sketch.</desc>
<g id="Logo" transform="translate(100.000000, 100.000000)">
	<path id="Board" style="fill-rule:evenodd;clip-rule:evenodd;fill:#0079BF;" d="M-75-100c-13.8,0-25,11.2-25,25V75
		c0,13.8,11.2,25,25,25H75c13.8,0,25-11.2,25-25V-75c0-13.8-11.2-25-25-25H-75z M25-74c-6.6,0-12,5.4-12,12V1.5c0,6.6,5.4,12,12,12
		h37c6.6,0,12-5.4,12-12V-62c0-6.6-5.4-12-12-12H25z M-62-74c-6.6,0-12,5.4-12,12V51.5c0,6.6,5.4,12,12,12h37c6.6,0,12-5.4,12-12
		V-62c0-6.6-5.4-12-12-12H-62z"/>
</g>
</svg>
