<svg aria-hidden="true" focusable="false" data-prefix="fad" data-icon="clone" class="svg-inline--fa fa-clone fa-w-16" role="img" xmlns="http://www.w3.org/2000/svg" viewBox="0 0 512 512"><g class="fa-group"><path class="fa-secondary" fill="#6b5dc0" d="M48 512a48 48 0 0 1-48-48V176a48 48 0 0 1 48-48h48v208a80.09 80.09 0 0 0 80 80h208v48a48 48 0 0 1-48 48H48z" opacity="0.4"></path><path class="fa-primary" fill="#6b5dc0" d="M512 48v288a48 48 0 0 1-48 48H176a48 48 0 0 1-48-48V48a48 48 0 0 1 48-48h288a48 48 0 0 1 48 48z"></path></g></svg>