<?xml version="1.0" encoding="utf-8"?>
<!-- Generator: Adobe Illustrator 24.2.1, SVG Export Plug-In . SVG Version: 6.00 Build 0)  -->
<svg version="1.1" id="Layer_1" xmlns="http://www.w3.org/2000/svg" xmlns:xlink="http://www.w3.org/1999/xlink" x="0px" y="0px"
	 viewBox="0 0 32 32" style="enable-background:new 0 0 32 32;" xml:space="preserve">
<g>
	<path style="opacity:0.5;fill:#0074BF;enable-background:new    ;" d="M24,28h-4v4h4V28z"/>
	<path style="opacity:0.7;fill:#0074BF;enable-background:new    ;" d="M20,28h-4v4h4V28z"/>
	<path style="opacity:0.7;fill:#0074BF;enable-background:new    ;" d="M16,28h-4v4h4V28z"/>
	<path style="opacity:0.5;fill:#0074BF;enable-background:new    ;" d="M12,28H8v4h4V28z"/>
	<path style="opacity:0.7;fill:#0082BF;enable-background:new    ;" d="M28,24h-4v4h4V24z"/>
	<path style="opacity:0.8;fill:#0082BF;enable-background:new    ;" d="M24,24h-4v4h4V24z"/>
	<path style="fill:#0082BF;" d="M20,24h-4v4h4V24z"/>
	<path style="fill:#0082BF;" d="M16,24h-4v4h4V24z"/>
	<path style="opacity:0.8;fill:#0082BF;enable-background:new    ;" d="M12,24H8v4h4V24z"/>
	<path style="opacity:0.7;fill:#0082BF;enable-background:new    ;" d="M8,24H4v4h4V24z"/>
	<path style="opacity:0.5;fill:#008FBF;enable-background:new    ;" d="M32,20h-4v4h4V20z"/>
	<path style="opacity:0.8;fill:#008FBF;enable-background:new    ;" d="M28,20h-4v4h4V20z"/>
	<path style="fill:#008FBF;" d="M24,20h-4v4h4V20z"/>
	<path style="fill:#008FBF;" d="M20,20h-4v4h4V20z"/>
	<path style="fill:#008FBF;" d="M16,20h-4v4h4V20z"/>
	<path style="fill:#008FBF;" d="M12,20H8v4h4V20z"/>
	<path style="opacity:0.8;fill:#008FBF;enable-background:new    ;" d="M8,20H4v4h4V20z"/>
	<path style="opacity:0.5;fill:#008FBF;enable-background:new    ;" d="M4,20H0v4h4V20z"/>
	<path style="opacity:0.7;fill:#009DBF;enable-background:new    ;" d="M32,16h-4v4h4V16z"/>
	<path style="fill:#009DBF;" d="M28,16h-4v4h4V16z"/>
	<path style="fill:#009DBF;" d="M24,16h-4v4h4V16z"/>
	<path style="fill:#009DBF;" d="M20,16h-4v4h4V16z"/>
	<path style="fill:#009DBF;" d="M16,16h-4v4h4V16z"/>
	<path style="fill:#009DBF;" d="M12,16H8v4h4V16z"/>
	<path style="fill:#009DBF;" d="M8,16H4v4h4V16z"/>
	<path style="opacity:0.7;fill:#009DBF;enable-background:new    ;" d="M4,16H0v4h4V16z"/>
	<path style="opacity:0.7;fill:#00ABBF;enable-background:new    ;" d="M32,12h-4v4h4V12z"/>
	<path style="fill:#00ABBF;" d="M28,12h-4v4h4V12z"/>
	<path style="fill:#00ABBF;" d="M24,12h-4v4h4V12z"/>
	<path style="fill:#00ABBF;" d="M20,12h-4v4h4V12z"/>
	<path style="fill:#00ABBF;" d="M16,12h-4v4h4V12z"/>
	<path style="fill:#00ABBF;" d="M12,12H8v4h4V12z"/>
	<path style="fill:#00ABBF;" d="M8,12H4v4h4V12z"/>
	<path style="opacity:0.7;fill:#00ABBF;enable-background:new    ;" d="M4,12H0v4h4V12z"/>
	<path style="opacity:0.5;fill:#00B9BF;enable-background:new    ;" d="M32,8h-4v4h4V8z"/>
	<path style="opacity:0.8;fill:#00B9BF;enable-background:new    ;" d="M28,8h-4v4h4V8z"/>
	<path style="fill:#00B9BF;" d="M24,8h-4v4h4V8z"/>
	<path style="fill:#00B9BF;" d="M20,8h-4v4h4V8z"/>
	<path style="fill:#00B9BF;" d="M16,8h-4v4h4V8z"/>
	<path style="fill:#00B9BF;" d="M12,8H8v4h4V8z"/>
	<path style="opacity:0.8;fill:#00B9BF;enable-background:new    ;" d="M8,8H4v4h4V8z"/>
	<path style="opacity:0.5;fill:#00B9BF;enable-background:new    ;" d="M4,8H0v4h4V8z"/>
	<path style="opacity:0.7;fill:#00C6BF;enable-background:new    ;" d="M28,4h-4v4h4V4z"/>
	<path style="opacity:0.8;fill:#00C6BF;enable-background:new    ;" d="M24,4h-4v4h4V4z"/>
	<path style="fill:#00C6BF;" d="M20,4h-4v4h4V4z"/>
	<path style="fill:#00C6BF;" d="M16,4h-4v4h4V4z"/>
	<path style="opacity:0.8;fill:#00C6BF;enable-background:new    ;" d="M12,4H8v4h4V4z"/>
	<path style="opacity:0.7;fill:#00C6BF;enable-background:new    ;" d="M8,4H4v4h4V4z"/>
	<path style="opacity:0.5;fill:#00D4BF;enable-background:new    ;" d="M24,0h-4v4h4V0z"/>
	<path style="opacity:0.7;fill:#00D4BF;enable-background:new    ;" d="M20,0h-4v4h4V0z"/>
	<path style="opacity:0.7;fill:#00D4BF;enable-background:new    ;" d="M16,0h-4v4h4V0z"/>
	<path style="opacity:0.5;fill:#00D4BF;enable-background:new    ;" d="M12,0H8v4h4V0z"/>
	<path style="fill:#FFFFFF;" d="M10.5,15l1.1-2.5c0.4-0.6,0.4-1.4-0.1-1.9c-0.1-0.1-0.1-0.1-0.2-0.2c-0.3-0.2-0.7-0.2-1-0.1
		c-0.4,0.1-0.7,0.4-0.9,0.7c0,0-1.5,3.6-2.1,5.2S7,20.8,9.2,23c2.3,2.3,5.7,2.9,7.9,1.3c0.1,0,0.2-0.1,0.3-0.2l6.6-5.6
		c0.3-0.3,0.8-0.8,0.4-1.4s-1.2-0.2-1.5,0l-3.8,2.8c-0.1,0.1-0.2,0.1-0.2,0l0,0c-0.1-0.1-0.1-0.4,0-0.6l5.9-5
		c0.5-0.5,0.6-1.1,0.2-1.6c-0.4-0.4-1-0.4-1.5,0l-5.3,4.1c-0.1,0.1-0.3,0.1-0.3,0l0,0c-0.1-0.1-0.1-0.3,0-0.4l6-5.8
		c0.5-0.4,0.5-1.2,0.1-1.7c-0.2-0.2-0.5-0.4-0.8-0.4s-0.6,0.1-0.8,0.3l-6.1,5.7c-0.1,0.1-0.4,0-0.5-0.2c0-0.1,0-0.1,0.1-0.2L20.1,9
		c0.5-0.4,0.5-1.2,0.1-1.6c-0.4-0.5-1.2-0.5-1.6-0.1c0,0,0,0-0.1,0.1l-7.1,7.9c-0.3,0.3-0.6,0.3-0.8,0.1
		C10.4,15.2,10.4,15.1,10.5,15z"/>
</g>
</svg>
