
<?xml version="1.0" encoding="UTF-8" standalone="no"?>
<svg xmlns="http://www.w3.org/2000/svg" xmlns:xlink="http://www.w3.org/1999/xlink" xmlns:serif="http://www.serif.com/" width="100%" height="100%" viewBox="0 0 358 358" version="1.1" xml:space="preserve" style="fill-rule:evenodd;clip-rule:evenodd;stroke-linejoin:round;stroke-miterlimit:2;">
    <g transform="matrix(1,0,0,1,14.4636,0)">
        <g transform="matrix(0.0905777,0,0,-0.0905777,-6.65541,369.168)">
            <path d="M1775,3928C1452,3782 937,3661 491,3626L399,3619L399,2734C399,2173 403,1819 410,1767C438,1563 520,1351 643,1166C779,961 981,760 1223,586C1401,459 1675,305 1836,242L1892,220L1988,258C2246,361 2570,558 2767,730C3117,1037 3311,1365 3365,1738C3378,1823 3381,2011 3381,2733L3381,3623L3342,3623C3320,3623 3222,3632 3124,3644C2702,3694 2302,3796 2001,3929C1937,3957 1885,3979 1885,3979C1885,3978 1835,3955 1775,3928Z" style="fill:rgb(255,233,174);fill-rule:nonzero;"></path>
        </g>
        <g transform="matrix(0.095238,0,0,-0.095238,-15.4834,378.925)">
            <path d="M1775,3928C1452,3782 937,3661 491,3626L399,3619L399,2734C399,2173 403,1819 410,1767C438,1563 520,1351 643,1166C779,961 981,760 1223,586C1401,459 1675,305 1836,242L1892,220L1988,258C2246,361 2570,558 2767,730C3117,1037 3311,1365 3365,1738C3378,1823 3381,2011 3381,2733L3381,3623L3342,3623C3320,3623 3222,3632 3124,3644C2702,3694 2302,3796 2001,3929C1937,3957 1885,3979 1885,3979C1885,3978 1835,3955 1775,3928ZM2025,3606.74C2302,3495.74 2620.18,3412.18 3009.18,3357.18L3115.88,3338.87L3111.88,2599C3108.88,1769 3088.65,1745.18 3065.65,1657.18C2974.16,1307.16 2705.77,951.203 2275,696.187C2150,622.187 1921,511.187 1894,512.187C1841,512.187 1482,632 1316,754C902,1059 669,1388 604,1758C591,1836 588,1976 588,2645L588,3440L759,3464C1152,3520 1500.39,3541.75 1775.39,3654.75C1841.39,3681.75 1889,3659.74 1895,3657.74C1901,3655.74 1959,3632.74 2025,3606.74Z" style="fill:rgb(51,63,76);fill-rule:nonzero;"></path>
        </g>
        <g transform="matrix(-0.114254,0,0,-0.113206,381.579,415.736)">
            <path d="M1898,3591C1890,3591 1897.82,620.278 1899.82,618.278C1906.82,611.278 2085,684 2210,759C2376,857 2530,976 2651,1097C2837,1284 2939,1452 3006,1680C3028,1757 3029,1774 3032,2532L3035,3305L2975,3312C2693,3344 2178,3475 1960,3569C1932,3581 1904,3591 1898,3591Z" style="fill:rgb(51,63,76);fill-rule:nonzero;"></path>
        </g>
    </g>
</svg>
