<svg xmlns="http://www.w3.org/2000/svg" viewBox="0 0 93.4 91.1" style="enable-background:new 0 0 93.4 91.1" xml:space="preserve"><path style="fill:#246be9" d="M53 0c-2.3 0-4 1.1-5.7 2.8-9.7 12-15.4 26.2-17.7 40.4-2.3 12.5-1.1 28.5 2.8 42.7 1.1 2.8 2.3 5.1 14.2 5.1 32.5 0 46.7-12.5 46.7-45.6C93.4 13.7 79.7 0 53 0m-1.2 87.2c-1.7 1.1-4.6 0-5.1-1.7-6.3-12.5-8.5-26.2-6.3-40.4 2.3-13.7 9.7-26.2 19.9-35.9 1.7-1.7 4-1.1 5.7.6s1.1 4-.6 5.7c-8.5 8-14.8 18.8-17.1 31.3s0 24.5 5.1 35.3c1.3 1.6.7 3.9-1.6 5.1m24.5-58.7s0 .6 0 0c-6.8 5.1-11.4 12-13.1 20.5-1.7 8 0 16.5 4 22.8.6 1.1 0 2.8-1.1 3.4s-2.8 0-3.4-1.1c-4.6-8-6.8-17.1-4.6-26.2 1.7-9.1 7.4-17.1 14.8-22.8 1.1-1.1 2.8-.6 4 0 .6 1.1.6 2.8-.6 3.4M14.2 80.3c.6 1.7-1.7 2.8-2.8 1.7C4.6 75.8 0 67.8 0 45.6 0 17.7 10.8 5.7 26.2 1.1c1.7-.6 2.8 1.1 1.7 2.3-6.8 11.4-11.4 23.9-13.7 37s-2.2 26.8 0 39.9z"/></svg>