<svg xmlns="http://www.w3.org/2000/svg" viewBox="0 0 26.8 35.1" style="enable-background:new 0 0 26.8 35.1" xml:space="preserve"><path style="fill:#1d202d" d="m17.4 28.2-4.9 5c-.5.5-.5 1.1 0 1.6.2.2.5.3.7.3s.6-.1.7-.3l5-5c.5-.5.5-1.1 0-1.6-.4-.4-1-.4-1.5 0zm-15.3-6c0-.1.2-.5.7-1.3.8-1.2 2.1-2.7 3.8-4.3l.8-.8c.4-.4.9-.5 1.4-.3l-.1-.1c-.3-.3-.3-.6 0-.9l.3-.3c.5-.5.5-1.1 0-1.6s-1.1-.5-1.6 0L5 15.1C3.3 16.9 1.9 18.6.9 20c-.7 1-.8 1.6-.9 1.8-.1.6.3 1.2.8 1.3h.3c.5-.1.9-.3 1-.9zM24.9.3 9.4 15.8c.6.6.6 1.4 0 1.8L9 18l-2.5 2.5C2 25 1.5 27 1.4 27.4c-.1.6.3 1.2.9 1.3h.2c.6 0 .9-.4 1.1-.8 0-.1.2-.5.7-1.4.6-.9 1.7-2.4 3.8-4.5l.8-.8c.4-.4.9-.5 1.4-.3l-.1-.1c-.3-.3-.3-.6 0-.9l.3-.3c.5-.5.5-1.1 0-1.6l-.2-.2 16.1-16c.5-.5.5-1.1 0-1.6-.4-.3-1.1-.3-1.5.1zm-2.5 9.3L10.9 21.2c.6.6.6 1.4 0 1.8l-.4.4-2.4 2.4c-1.9 1.9-3.4 3.9-4.2 5.7-.6 1.4-.6 2.2-.6 2.4 0 .6.5 1.1 1.1 1.1s1.1-.5 1.1-1.1c0 0 0-.6.5-1.6.9-1.9 2.5-3.8 3.8-5.1l.8-.8c.4-.4.9-.5 1.4-.3l-.1-.1c-.3-.3-.3-.6 0-.9l.3-.3c.5-.5.5-1.1 0-1.6L12 23l12.1-12c.5-.5.5-1.1 0-1.6-.6-.2-1.2-.2-1.7.2zM19.9 19l-7.6 7.6c.6.6.6 1.4 0 1.8l-1.1 1.1c.5.3 1 .3 1.4-.2l8.8-8.8c.5-.5.5-1.1 0-1.6-.4-.4-1-.4-1.5.1z"/></svg>