<svg xmlns="http://www.w3.org/2000/svg" fill="none" viewBox="0 0 32 32"><circle cx="16" cy="16" r="16" fill="#0b996f"/><path fill="#fff" d="M21.002 14.54c.99-.97 1.453-2.089 1.453-3.45 0-2.814-2.07-4.69-5.19-4.69H9.6v20h6.18c4.698 0 8.22-2.874 8.22-6.686 0-2.089-1.081-3.964-2.998-5.174Zm-8.62-5.538h4.573c1.545 0 2.565.877 2.565 2.208 0 1.513-1.329 2.663-4.048 3.54-1.854.574-2.688 1.059-2.997 1.634l-.094.001V9.002Zm3.151 14.796h-3.152v-3.085c0-1.362 1.175-2.693 2.813-3.208 1.453-.484 2.657-.969 3.677-1.482 1.36.787 2.194 2.148 2.194 3.57 0 2.42-2.35 4.205-5.532 4.205Z"/></svg>