<svg xmlns="http://www.w3.org/2000/svg" viewBox="0 0 162 87" xml:space="preserve" style="fill-rule:evenodd;clip-rule:evenodd;stroke-linejoin:round;stroke-miterlimit:1.41421"><g transform="scale(.88868 1.00417)"><path style="fill:none" d="M0 0h181.697v85.942H0z"/><clipPath id="a"><path d="M0 0h181.697v85.942H0z"/></clipPath><g clip-path="url(#a)"><path d="M100.173 545.84c3.962-3.047 12.644 1.61 14.394 2.222 7.276 2.545 6.942-.393 6.942-.393s15.008-23.783 16.471-22.229c-3.468-3.969 30.58 27.155 30.58 27.155l31.128 42.865-101.599 8.263-43.723-7.572c1.026-.96 1.739-1.951 2.764-2.986 14.748-14.895 29.6-36.984 43.043-47.325Z" style="fill:#fff" transform="matrix(1.11949 0 0 .98496 -53.67 -516.084)"/><path d="M100.173 545.84c3.962-3.047 12.192.915 14.021 1.219 1.828.305 6.705 2.439 7.315.61.61-1.829 13.411-20.422 16.154-21.945 2.744-1.525 29.871 25.908 29.871 25.908l18.41 19.736s5.666 5.911 9.933 10.483c2.978 3.191 7.695 7.751 14.045 13.7l-25.692-.264c-4.474-8.675-14.429-21.625-17.003-25.368-3.353-4.877-11.583-18.897-10.973-17.374.61 1.524-.61 13.091-.61 13.091s-6.705-16.138-7.01-20.711c-.305-4.572-10.82-17.069-10.82-17.069-.305 1.372-.458 9.754-.458 9.754s3.658 6.401 3.963 7.925c.305 1.524-.914 4.572 1.828 8.534 2.744 3.963 4.268 10.668 4.268 10.668s-7.925-3.962-11.888-7.62c-3.962-3.658-10.668-5.486-10.668-5.486s12.497 16.459 16.46 18.593c2.698 1.453 13.014 16.766 19.332 24.939-23.858-.125-10.981-4.246-24.361-17.624-2.133-2.133-2.438 3.963-4.267 3.658-1.829-.304-4.572-10.059-6.705-14.935-2.134-4.877-21.337-19.507-21.337-19.507s-1.676 1.066-2.438 2.895c-.762 1.829-2.896 18.441-2.896 18.441s5.792-5.182 7.62-8.535c1.829-3.352 6.402 4.572 6.707 6.401.304 1.829-3.658 1.219-5.182 2.743-1.524 1.524-2.862 8.193-3.353 13.107-.491 4.914-10.42 17.751-15.922 21.916l-33.711-7.065c1.026-.96 1.681-2.356 2.707-3.391 14.747-14.895 29.217-37.086 42.66-47.427Z" style="fill:#333f4d" transform="matrix(1.13533 0 0 1.00475 -56.776 -528.03)"/><path d="M57.424 593.206c14.132 5.051 43.898 9.491 55.608 9.089 63.519-2.181 54.379-9.973 114.754-6.714l-26.316 2.258c-33.712 2.328-113.866 25.537-152.453 4.089l8.407-8.722Z" style="fill:#b99b70" transform="matrix(1.01558 0 0 1.00475 -49.78 -528.03)"/></g></g></svg>