<svg xmlns="http://www.w3.org/2000/svg" width="56.2" height="56.4" style="overflow:visible;enable-background:new 0 0 56.2 56.4" xml:space="preserve"><path style="fill-rule:evenodd;clip-rule:evenodd;fill:#ff9e1a" d="M36.3 23.1c.5 1.5 1.9 2.4 3.5 2.4.4 0 .8-.1 1.2-.2 1.9-.7 2.9-2.8 2.2-4.7-1.2-3.3-3.7-5.9-7.2-7.5-1.8-.8-4 0-4.9 1.8-.8 1.8 0 4 1.8 4.9 1.8.8 2.9 1.9 3.4 3.3zM35.1.1c-2-.4-3.9.9-4.3 2.9s.9 3.9 2.9 4.3C42 8.9 47.6 14.5 49 22.6c.3 1.8 1.9 3 3.6 3 .2 0 .4 0 .6-.1 2-.4 3.3-2.3 3-4.2-1.9-11-9.8-19-21.1-21.2z"/><path style="fill-rule:evenodd;clip-rule:evenodd;fill:#1856ed" d="M25.8 36.7c-3.3 0-6.1-2.7-6.1-6.1 0-3.3 2.7-6.1 6.1-6.1 2 0 3.7-1.6 3.7-3.7s-1.6-3.7-3.7-3.7c-7.4 0-13.4 6-13.4 13.4s6 13.4 13.4 13.4 13.4-6 13.4-13.4c0-2-1.6-3.7-3.7-3.7-2 0-3.7 1.6-3.7 3.7.1 3.5-2.7 6.2-6 6.2z"/><path style="fill-rule:evenodd;clip-rule:evenodd;fill:#1856ed" d="M47.9 27c-2 0-3.7 1.6-3.7 3.7 0 10.2-8.3 18.5-18.5 18.5S7.2 40.9 7.2 30.7s8.3-18.5 18.5-18.5c2 0 3.7-1.6 3.7-3.7 0-2-1.6-3.7-3.7-3.7C11.6 4.8 0 16.4 0 30.6s11.6 25.8 25.8 25.8 25.8-11.6 25.8-25.8c0-2-1.6-3.6-3.7-3.6z"/></svg>