<svg xmlns="http://www.w3.org/2000/svg" viewBox="0 0 174.8 162" style="enable-background:new 0 0 174.8 162" xml:space="preserve"><path style="fill:#fb6970" d="M84.4 127.9c30.4 0 53.8-22.9 53.8-51.2 0-26.5-22-42.6-36.6-42.6-20.3 0-36.6 14.2-39 35.4-.4 3.9-3.5 7.2-7.5 7.2-6.6 0-16.1-.1-22.1-.1-2.6 0-4.7-2.1-4.6-4.7.9-18.3 7.1-35.5 18.8-48.7C60.1 8.6 79.1 0 101.5 0c37.7 0 73.3 34.2 73.3 76.7 0 47.1-39.1 85.3-89.7 85.3C49 162 12.7 138.5 0 105.5c0-.1-.1-.3 0-.4.2-1 .5-1.9.8-2.7.5-1.3 1-2.5.9-4l-.2-4.6c-.1-2.3 1.2-4.4 3.2-5.3l1.8-.9c2.1-1 3.6-2.9 4-5.1.6-3.4 3.6-5.8 7-5.8 5.4 0 10.1 3.6 11.8 8.7 8.6 24.5 22.1 42.5 55.1 42.5z"/></svg>