<svg xmlns="http://www.w3.org/2000/svg" viewBox="0 0 731.7 986.7" style="enable-background:new 0 0 731.7 986.7" xml:space="preserve"><path style="fill:#f324f3" d="M353.7 11.7c-13.7 12.9-66.3 67.9-87.6 91.9-32.1 36-68.4 80.3-97.6 119.1-9.1 12.1-17.2 22.8-17.9 23.6-.9 1.3 12.8 1.7 68.1 1.7h69.5l38.4-52.7c21.1-28.9 38.9-52.4 39.6-52.3.7.3 18.4 23.9 39.3 52.7l38.1 52.1 69.1.1c37.9 0 68.9-.3 68.9-.7 0-.4-5.5-8.1-12.3-17.1-55.7-74.2-104.4-130.6-168.2-195.2L366.4 0l-12.7 11.7zM137.1 352.1c-34.1 4.1-60.9 33.1-63.1 68.1-1.3 23.3 5.6 42 21.6 57.7 11.2 10.9 19.5 15.7 33.6 19.3 17.7 4.5 31.9 3.1 49.2-5.3 44-21.2 55.2-80.1 22-116.4-16.5-17.9-39.1-26.3-63.3-23.4zm220-.1c-36.3 4.1-63.9 36.3-63.9 74.1.1 28.4 15.7 53.6 41.2 65.9 17.3 8.4 31.5 9.9 49.2 5.3 14.1-3.6 22.4-8.4 33.6-19.3 29.2-28.8 29.3-75.9.5-104.7-16.5-16.5-37.6-23.8-60.6-21.3zm218.6.1c-35.5 4.5-63.3 36.7-63.3 73.2 0 20.1 7.6 38.4 22 52.7 14 14 32.7 22 51.3 22 26 0 53.1-17.1 64.7-40.4 8.1-16.7 10.3-32.4 6.7-49.6-7.9-37.5-43.6-62.8-81.4-57.9zM.8 621.6c1.5 44.3 8 80 21.9 119.1 28.7 80.5 84.9 149.2 159.1 194 44.7 27.1 98.3 45.3 148.7 50.7 19.2 2 57.3 1.7 76.5-.7 119.9-14.9 226.8-90 282.7-198.1 26.9-52.3 40.7-107.3 41.7-167.9l.4-20.7-54.9-.4-55.1-.3v15.6c-.1 111.3-67.7 208.5-172.3 247.6-24.1 8.9-58.8 15.5-82.5 15.5-80.8 0-164.1-45.2-210.4-114.1-29.5-43.7-43.5-87.5-45.3-141.2l-.8-22.7-55.2-.4-55.3-.3.8 24.3z"/></svg>