<svg fill="none" height="39" width="30" xmlns="http://www.w3.org/2000/svg"><path d="M28.456 24.862c-.98-.517-2.06.084-2.49.525a2.523 2.523 0 0 1-2.007.753 2.564 2.564 0 0 1-1.049-.327 2.554 2.554 0 0 1-.815-.746 2.43 2.43 0 0 1-.143-.235 13.81 13.81 0 0 0 5.448-11.05C27.392 6.144 21.19-.054 13.613 0 6.083.054 0 6.214 0 13.812c0 4.943 2.58 9.278 6.452 11.72a3.101 3.101 0 0 1-.068.364c-.09.365-.264.7-.498.99s-.528.516-.868.676c-.332.16-.702.243-1.071.243-.612 0-2.242.198-2.498 1.377-.234 1.08.717 1.734 1.615 1.87.294.046.596.07.898.07a5.774 5.774 0 0 0 4.46-2.13c.226-.274.422-.563.588-.867 0 0 0-.008.008-.008.052-.099.203-.038.166.069-.008.015-.008.022-.015.038A11.125 11.125 0 0 1 5.81 33.28c-.748.639-1.027 1.719-.521 2.563.505.844 1.6 1.118 2.37.51a14.503 14.503 0 0 0 2.882-3.05 14.64 14.64 0 0 0 2.075-4.29c.038-.136.09-.326.136-.524.03-.137.234-.114.234.023.007.175.007.35.007.517a11.266 11.266 0 0 1-.973 4.41c-.377.845-.86 1.636-1.426 2.359-.611.768-.672 1.886-.015 2.616.656.73 1.78.79 2.422.045a14.71 14.71 0 0 0 3.532-9.37v-.448c0-.107.15-.13.18-.03.046.167.091.326.121.44a11.19 11.19 0 0 1 .242 3.438 10.96 10.96 0 0 1-.574 2.7c-.324.928-.015 2.008.846 2.472s1.939.144 2.294-.768a14.777 14.777 0 0 0 .815-7.704c-.053-.35-.129-.693-.204-1.035-.023-.084.083-.152.15-.091.272.236.567.441.876.616.74.426 1.562.684 2.415.753a5.853 5.853 0 0 0 2.505-.35 5.827 5.827 0 0 0 2.702-2.091c.528-.723.362-1.704-.446-2.13zM8.86 15.926a1.713 1.713 0 0 1-1.932-1.476 1.722 1.722 0 0 1 1.464-1.946 1.713 1.713 0 0 1 1.932 1.475 1.722 1.722 0 0 1-1.464 1.947zm10.27-3.18a1.722 1.722 0 0 1 1.464-1.946 1.713 1.713 0 0 1 1.932 1.475 1.722 1.722 0 0 1-1.464 1.947 1.715 1.715 0 0 1-1.932-1.475z" fill="#6e54d7"/></svg>