<svg xmlns="http://www.w3.org/2000/svg" viewBox="0 0 87.6 55.7" style="enable-background:new 0 0 87.6 55.7" xml:space="preserve"><path style="fill:#00baff" d="M87.6 52c0 2.1-1.7 3.7-3.7 3.7H3.7C1.7 55.8 0 54.1 0 52V3.7C0 1.7 1.7 0 3.7 0h80.1c2.1 0 3.7 1.7 3.7 3.7l.1 48.3z"/><path style="fill:#fff" d="M86.8 1.4C76.4 17.5 60.3 32.3 43.7 31.9c-6.1-.1-13.1-1.9-19-6.7C20.3 21.6 15.9 16 14.2 8h-1.8c-2.7 0-4.3 2.4-4 4.6.1.5.2 1.1.3 1.7 1.3 7.8 5.9 16.6 13.6 22.3 6 4.4 13.4 7.3 21.5 7.3 14.6 0 30.2-9.3 43.8-33.2v-7c0-.8-.3-1.7-.8-2.3z"/></svg>