<svg xmlns="http://www.w3.org/2000/svg" width="152" height="152" style="overflow:visible;enable-background:new 0 0 152 152" xml:space="preserve"><path style="fill:#236699" d="M151.9 76c0 24.3 0 48.6.1 72.9 0 2.5-.6 3.1-3.1 3.1-48.6-.1-97.3-.1-145.9 0-2.5 0-3.1-.6-3.1-3.1.2-48.6.2-97.2.1-145.8C0 .6.6 0 3.1 0 51.7.1 100.4.1 149 0c2.5 0 3.1.6 3.1 3.1-.2 24.3-.2 48.6-.2 72.9zm-71.4 66c.7-.1 2.8-.4 5-.6 3.6-.3 5.1-2.2 5.5-5.8 2.2-17.8 4.7-35.6 7-53.4 1.5-11.8-.5-13.4-12.7-10.8-3.3.7-5 2.3-5.5 5.9-2.4 19.1-5.1 38.2-7.6 57.4-1 7.2-.7 7.4 8.3 7.3zM38.8 56.6c-.1 7.6 1.9 14.5 5.3 21.1 1.7 3.3 4.1 5.7 7.9 3.7 3.8-2 3.3-5.2 1.5-8.5C46.8 60 48.3 47.5 56 35.6c3.8-5.8 8.9-10.3 14.9-13.8 3.2-1.9 4.6-4.6 2.5-7.9-2-3.1-4.9-3-7.9-1.2-16.4 10-25.9 24.3-26.7 43.9zm20.4-.6c0 6 1.6 11.8 3.7 15.6 1.2 2.2 2.7 4.1 5.5 2.8 2.7-1.3 2.3-3.5 1.3-5.9-5.8-13.4-3-23.6 8.9-32 2.1-1.5 3.9-3.1 2.3-5.7-1.7-2.9-4.2-1.9-6.5-.5-9.8 6.3-14.7 15.4-15.2 25.7zm36.6-9c-1 .1-1.8.1-2.7.1-8.1.8-12 5.7-11.1 14 .5 4.8 3.9 6.1 12.5 4.9 1.5-.2 3-.6 4.3-1.2 4-1.9 6.3-8.1 5.1-13.5-1-4.6-4.8-4.1-8.1-4.3z"/><path style="fill:#f9fafc" d="M80.5 142c-9 .1-9.2-.1-8.3-7.4 2.5-19.1 5.2-38.2 7.6-57.4.5-3.7 2.1-5.2 5.5-5.9 12.2-2.6 14.2-1 12.7 10.8-2.3 17.8-4.8 35.6-7 53.4-.4 3.6-2 5.5-5.5 5.8-2.2.3-4.3.6-5 .7z"/><path style="fill:#f6f8fa" d="M38.8 56.6c.8-19.6 10.3-33.9 26.8-43.9 3-1.8 5.9-1.9 7.9 1.2 2.1 3.3.7 6-2.5 7.9-6 3.5-11.1 8-14.9 13.8-7.7 11.9-9.3 24.4-2.5 37.3 1.8 3.4 2.3 6.6-1.5 8.5-3.8 2-6.2-.4-7.9-3.7-3.6-6.6-5.5-13.5-5.4-21.1z"/><path style="fill:#f0f4f7" d="M59.2 56c.5-10.3 5.4-19.4 15.2-25.7 2.3-1.4 4.7-2.4 6.5.5 1.6 2.6-.2 4.2-2.3 5.7-11.9 8.5-14.7 18.6-8.9 32 1 2.4 1.4 4.6-1.3 5.9-2.8 1.3-4.2-.6-5.5-2.8-2.1-3.8-3.6-9.6-3.7-15.6z"/><path style="fill:#f6f9fb" d="M95.8 47c3.3.2 7.2-.3 8.2 4.3 1.2 5.4-1.1 11.6-5.1 13.5-1.3.6-2.8 1-4.3 1.2-8.6 1.3-12-.1-12.5-4.9-.9-8.3 3-13.3 11.1-14 .7 0 1.6 0 2.6-.1z"/></svg>