<svg xmlns="http://www.w3.org/2000/svg" width="230.8" height="245" style="overflow:visible;enable-background:new 0 0 230.8 245" xml:space="preserve"><path d="M173.6 115.8c1.8-.2 3.5-.2 5.1 0 .9-2.1 1.1-5.7.2-9.6-1.2-5.8-2.9-9.4-6.3-8.8-3.4.5-3.5 4.8-2.3 10.6.7 3.2 2 6 3.3 7.8zm-29.2 4.6c2.4 1.1 3.9 1.8 4.5 1.2.4-.4.3-1.1-.3-2.1-1.2-2-3.7-4-6.3-5.1-5.4-2.3-11.8-1.5-16.7 2-1.6 1.2-3.2 2.8-3 3.9.1.3.3.6.9.6 1.3.2 6-2.2 11.5-2.6 3.8-.2 6.9 1 9.4 2.1zm-4.9 2.8c-3.2.5-4.9 1.5-6 2.5-1 .8-1.6 1.8-1.5 2.4 0 .3.1.5.2.6.1.1.3.2.5.2.7 0 2.3-.6 2.3-.6 4.4-1.6 7.3-1.4 10.2-1.1 1.6.2 2.3.3 2.7-.3.1-.2.2-.5-.1-1-.8-1.2-4-3.3-8.3-2.7zm24.2 10.2c2.2 1.1 4.5.6 5.3-.9.8-1.6-.3-3.7-2.5-4.8-2.2-1.1-4.5-.6-5.3.9-.7 1.6.4 3.8 2.5 4.8zm13.9-12.1c-1.8 0-3.2 1.9-3.2 4.3s1.3 4.4 3.1 4.4 3.2-1.9 3.2-4.3-1.3-4.3-3.1-4.4zM60 164.6c-.4-.5-1.2-.4-1.8-.2-.5.1-1 .2-1.6.2-1.3 0-2.4-.6-3-1.5-.8-1.2-.8-3.1.1-5.1.1-.3.3-.6.4-.9 1.4-3.2 3.8-8.4 1.1-13.4-2-3.8-5.2-6.1-9.1-6.6-3.7-.5-7.6.9-10 3.6-3.9 4.3-4.5 10.1-3.7 12.1.3.8.7 1 1 1 .7.1 1.6-.4 2.2-2 0-.1.1-.3.2-.5.3-.9.8-2.5 1.6-3.8 1-1.6 2.6-2.6 4.4-3 1.9-.4 3.8 0 5.4 1 2.7 1.8 3.8 5.1 2.6 8.3-.6 1.6-1.6 4.8-1.4 7.4.4 5.2 3.6 7.3 6.5 7.5 2.8.1 4.8-1.5 5.3-2.6.2-.9-.1-1.3-.2-1.5z"/><path d="M221.8 155.1c-.1-.4-.8-2.9-1.8-6s-1.9-5.2-1.9-5.2c3.8-5.7 3.9-10.9 3.4-13.8-.5-3.6-2-6.7-5.1-9.8-3-3.2-9.2-6.4-17.9-8.9-1-.3-4.3-1.2-4.6-1.3 0-.2-.2-10.7-.4-15.3-.1-3.3-.4-8.4-2-13.4-1.9-6.8-5.2-12.8-9.3-16.6C193.5 53 200.6 40.1 200.6 29c0-21.4-26.3-27.9-58.6-14.5 0 0-6.8 2.9-6.9 2.9 0 0-12.4-12.2-12.6-12.3C85.7-27-29.7 101.2 7.2 132.3l8.1 6.8c-2.1 5.4-2.9 11.6-2.2 18.3.9 8.6 5.3 16.8 12.4 23.1 6.8 6 15.7 9.8 24.4 9.8 14.4 33.1 47.1 53.4 85.6 54.5 41.2 1.2 75.9-18.1 90.4-52.9.9-2.4 5-13.4 5-23.1-.1-9.7-5.6-13.7-9.1-13.7zM53 181.1c-1.3.2-2.5.3-3.8.3-12.4-.4-25.9-11.6-27.2-24.9-1.5-14.7 6-26 19.3-28.7 1.6-.3 3.5-.5 5.6-.4 7.5.4 18.4 6.1 20.9 22.4 2.2 14.4-1.3 29-14.8 31.3zM39.1 119c-8.3 1.6-15.6 6.3-20 12.8-2.7-2.2-7.6-6.5-8.5-8.2-7.1-13.5 7.8-39.8 18.2-54.7 25.7-36.7 66-64.5 84.7-59.4 3 .9 13.1 12.5 13.1 12.5S108 32.3 90.7 46.8c-23.4 17.9-41 44-51.6 72.2zm130.8 56.6c.3-.1.5-.4.4-.7 0-.4-.4-.7-.8-.6 0 0-19.5 2.9-37.9-3.9 2-6.5 7.3-4.2 15.4-3.5 14.5.9 27.6-1.3 37.2-4 8.3-2.4 19.3-7.1 27.8-13.8 2.9 6.3 3.9 13.3 3.9 13.3s2.2-.4 4.1.7c1.8 1.1 3 3.3 2.2 9.1-1.8 10.9-6.4 19.7-14.2 27.8-4.7 5.1-10.4 9.5-17 12.7-3.5 1.8-7.2 3.4-11.1 4.7-29.2 9.5-59.1-.9-68.8-23.5-.8-1.7-1.4-3.5-1.9-5.3-4.1-14.8-.6-32.7 10.3-43.9.7-.7 1.4-1.6 1.4-2.6 0-.9-.6-1.8-1.1-2.5-3.8-5.5-17-15-14.4-33.2 1.9-13.1 13.4-22.3 24.1-21.8.9 0 1.8.1 2.7.2 4.6.3 8.7.9 12.5 1 6.4.3 12.1-.7 18.9-6.3 2.3-1.9 4.1-3.6 7.2-4.1.3-.1 1.1-.3 2.8-.3 1.7.1 3.2.5 4.7 1.5 5.4 3.6 6.2 12.4 6.5 18.8.2 3.7.6 12.5.8 15.1.3 5.8 1.9 6.6 5 7.7 1.7.6 3.4 1 5.7 1.7 7.2 2 11.5 4.1 14.2 6.7 1.6 1.6 2.4 3.4 2.6 5.1.9 6.2-4.8 13.9-19.8 20.8-16.4 7.6-36.3 9.5-50 8-1.1-.1-4.8-.5-4.8-.5-11-1.5-17.3 12.7-10.7 22.5 4.3 6.3 15.8 10.4 27.4 10.4 26.6 0 47-11.3 54.6-21.1l.6-.9c.4-.6.1-.9-.4-.6-6.2 4.2-33.8 21.1-63.3 16 0 0-3.6-.6-6.9-1.9-2.6-1-8-3.5-8.7-9.1 23.8 7.3 38.8.3 38.8.3zm-37.7-4.4zM86.6 68.8C95.8 58.2 107 49 117.1 43.9c.3-.2.7.2.5.5-.8 1.5-2.3 4.6-2.8 6.9-.1.4.3.6.6.4 6.3-4.3 17.2-8.9 26.8-9.4.4 0 .6.5.3.8-1.5 1.1-3 2.7-4.2 4.2-.2.3 0 .6.3.7 6.7 0 16.2 2.4 22.4 5.9.4.2.1 1-.3.9-9.3-2.1-24.6-3.8-40.5.1-14.2 3.5-25 8.8-32.9 14.5-.5.3-1-.2-.7-.6z"/></svg>