<svg xmlns="http://www.w3.org/2000/svg" viewBox="0 0 469.8 380.1" style="enable-background:new 0 0 469.8 380.1" xml:space="preserve"><path style="fill:#0ac269" d="M430 5193.8c-102-16-223-85-298-169-62-70-95-134-121-239-7-26-11-615-11-1714v-1673l351 348c193 192 353 351 355 354 3 3 801 5 1772 6 1635 0 1772 2 1832 18 166 44 300 166 363 331l22 60 2 1120c3 1068 2 1123-16 1181-56 186-195 321-378 368-54 14-263 16-1954 15-1042-1-1905-4-1919-6zm606-729c12-9 31-27 41-42 17-25 18-71 20-793 1-700 0-770-15-800-24-46-64-72-116-75-53-3-107 29-126 76-10 25-13 190-13 794 0 727 1 764 19 794 38 65 128 86 190 46zm640-30c100-48 104-210 6-267-68-40-173-16-212 48-23 37-28 104-12 147 12 30 47 66 77 78 33 14 105 11 141-6zm733-255c18-17 21-31 21-109v-90h125c137 0 169-9 199-55 42-63 6-166-64-184-19-5-81-9-137-9-55 0-105-2-111-6-5-3-9-145-8-351 1-335 2-345 22-365 25-26 96-32 170-14 64 15 94 9 133-24 24-20 33-37 36-68 9-103-102-167-282-165-162 2-274 62-324 173-24 52-24 57-27 433-2 209-5 381-7 383-2 3-37 4-76 5-64 0-76 3-97 24-20 20-23 31-19 61 5 30 33 62 174 201 92 91 178 170 191 177 28 14 53 9 81-17zm1240-193c96-23 193-79 264-152 141-146 211-457 120-535-36-32-80-35-446-35l-368 1 6-35c16-86 96-174 191-210 109-41 285-30 414 27 66 29 87 33 121 21 74-25 108-117 66-179-39-59-199-131-322-146-197-24-371 5-500 82-122 74-216 214-249 375-19 93-15 288 8 375 39 147 141 287 257 350 97 53 190 74 309 71 58-2 116-6 129-10zm-1978-19c70-47 69-34 69-594 0-576 1-566-76-603-50-25-95-23-138 5-60 39-59 31-59 596 0 493 1 519 19 551 38 65 124 86 185 45z" transform="matrix(.1 0 0 -.1 0 520)"/><path style="fill:#0ac269" d="M3413 3740.8c-89-29-148-86-178-171-29-80-50-75 276-74h291l-5 32c-27 165-214 268-384 213z" transform="matrix(.1 0 0 -.1 0 520)"/></svg>