<svg xmlns="http://www.w3.org/2000/svg" viewBox="0 0 215.607 200" xml:space="preserve"><path fill="#FFF" d="M175.193 125.52c0 11.717-9.496 21.213-21.212 21.213H63.549c-11.717 0-21.215-9.497-21.215-21.213V37.362c0-11.713 9.498-21.213 21.215-21.213h90.432c11.717 0 21.212 9.5 21.212 21.213v88.158z"/><path fill="#394257" d="M65.67 12.813s8.909-29.048 19.967.331c-19.471-.331-19.967-.331-19.967-.331zm65.665 0s8.913-29.048 19.968.331c-19.472-.331-19.968-.331-19.968-.331z"/><path fill="#FFF" d="M148.96 172.365a3.393 3.393 0 0 1-2.203 4.253l-61.365 19.515a3.396 3.396 0 0 1-4.259-2.205l-12.837-40.374a3.394 3.394 0 0 1 2.205-4.256l61.366-19.509a3.391 3.391 0 0 1 4.258 2.205l12.835 40.371z"/><path fill="#394257" d="M84.706 200a6.404 6.404 0 0 1-6.124-4.476l-12.838-40.372a6.434 6.434 0 0 1 4.175-8.065l61.371-19.511c3.293-1.048 7.007.867 8.062 4.175l12.833 40.371c1.069 3.377-.802 6.991-4.169 8.065l-61.369 19.512a6.46 6.46 0 0 1-1.941.301zm48.523-66.664-61.473 19.527a.36.36 0 0 0-.231.452l12.834 40.371c.086.275.319.278.46.234l61.362-19.512a.365.365 0 0 0 .229-.455l-12.836-40.365a.369.369 0 0 0-.345-.252z"/><path fill="#FFF" d="M70.412 150.166a3.374 3.374 0 0 0-1.778 4.066l12.836 40.372a3.355 3.355 0 0 0 1.09 1.593l16.669-32.429-28.817-13.602z"/><path fill="#394257" d="m84.403 199.237-3.756-.689a6.38 6.38 0 0 1-2.062-3.018l-12.84-40.378c-.96-3.03.483-6.348 3.367-7.723l1.296-.619 32.949 15.559-18.954 36.868zM71.794 154.17l11.066 34.81 12.238-23.805-23.304-11.005z"/><path fill="#FFF" d="M149.221 175.26a3.321 3.321 0 0 0 .074-2.221l-12.759-40.137c-.567-1.788-2.402-2.533-4.187-1.972l-.38.126-16.242 27.28 33.494 16.924z"/><path fill="#394257" d="m149.117 178.605-37.654-19.03 18.488-31.049 1.467-.479c3.483-1.1 6.978.692 8.005 3.943l12.762 40.132a6.381 6.381 0 0 1-.125 4.209l-2.943 2.274zm-29.122-21.509 25.081 12.674-11.357-35.727-13.724 23.053z"/><path fill="#FFF" d="M134.628 130.62a3.356 3.356 0 0 0-2.423-.153l-61.368 19.509a3.374 3.374 0 0 0-2.043 1.833l42.243 21.324 23.591-42.513z"/><path fill="#394257" d="m112.275 177.152-46.463-23.451.22-3.141a6.416 6.416 0 0 1 3.881-3.469l61.377-19.514a6.393 6.393 0 0 1 4.584.281l2.999 1.355-26.598 47.939zm-36.922-25.424 34.447 17.386 19.031-34.293-53.478 16.907z"/><path fill="#394257" d="M108.159 93.136c-30.968 0-57.398 8.076-70.653 20.725.052 16.384 12.953 33.718 29.358 33.718h82.592c16.402 0 29.012-17.634 29.069-34.018-13.255-12.649-39.399-20.425-70.366-20.425zm57.182-77.412 50.266 29.109s-22.397 17.916-40.331 5.086c-.998-.71.531-21.092-.434-21.999l-9.501-12.196zm-115.076 0L0 44.833s22.397 17.916 40.331 5.086c.996-.71-.533-21.092.434-21.999l9.5-12.196z"/><path fill="#E16053" d="M108.159 99.198c-30.968 0-56.522 8.429-69.777 20.253.055 15.318 12.077 28.128 28.482 28.128h82.592c16.402 0 28.614-12.218 28.671-27.536-13.258-11.824-39.001-20.845-69.968-20.845z"/><path fill="#394257" d="M102.483 69.356c-.873 3.481-3.331 5.86-5.486 5.318-2.165-.54-3.208-3.799-2.334-7.28.877-3.48 3.336-5.858 5.497-5.318 2.16.542 3.2 3.802 2.323 7.28zm20.232-2.094c.989 3.452.054 6.743-2.09 7.356-2.135.616-4.67-1.684-5.665-5.132-.987-3.447-.047-6.737 2.093-7.356 2.135-.61 4.676 1.686 5.662 5.132zm-36.691 57.423c2.916 4.978 2.775 10.477-.318 12.285-3.086 1.81-7.953-.757-10.866-5.732-2.919-4.979-2.776-10.478.313-12.287 3.087-1.81 7.957.76 10.871 5.734zm47.745.284c-2.919 4.976-2.776 10.48.312 12.285 3.088 1.811 7.958-.757 10.87-5.732 2.919-4.976 2.773-10.474-.315-12.287-3.09-1.811-7.954.758-10.867 5.734z"/><path fill="#394257" d="M178.468 40.365c0-16.437-13.32-29.787-29.761-29.787H66.864c-16.436 0-29.842 13.083-29.842 29.522v82.594c0 16.43 13.406 30.331 29.842 30.331h82.592c16.432 0 29.761-13.608 29.761-30.044l-.749-82.616zm-5.196 84.261c0 12.261-9.944 22.204-22.207 22.204H65.422c-12.263 0-22.205-9.942-22.205-22.204V38.977c0-12.26 9.942-22.203 22.205-22.203h85.643c12.263 0 22.207 9.943 22.207 22.203v85.649z"/></svg>