<svg xmlns="http://www.w3.org/2000/svg" width="400" height="400" style="overflow:visible;enable-background:new 0 0 400 400" xml:space="preserve"><path style="fill:#555c66" d="M.1 364.9V35c1.5-1.3 1.4-3.3 2-4.9C8.1 13.7 19.5 3.8 37 1c1.3 0 2.7.1 4 .1h308.1c4.7 0 9.3-.1 14-.1 13 1.9 23 8.5 30.3 19.4 3.3 4.9 4.5 10.5 6.6 15.7V365c-1.5 1.3-1.3 3.3-1.9 4.9-6 16.5-17.5 26.4-35 29.2-1.7 0-3.3-.1-5-.1-55 0-109.9-.1-164.9-.1 0-12-.2-24-.1-36 .3-22.9-1.9-45.5-8.1-67.6-7.1-25.3-19-47.8-39.7-64.8-18.6-15.3-40.5-22.3-64-25.2-3.3-.4-3 1.6-3 3.7 0 15 .1 30-.1 45 0 2.7 1.1 3.7 3.5 4.5 6 2 11.6 4.8 16.8 8.5 16.2 11.6 24.1 28.4 28.5 47.1 6.7 27.9 6.4 56.4 6 84.9-6.3 0-12.6 0-18.9.1-25.4.1-50.8.1-76.2.2-17.8-2.7-29.6-12.6-35.9-29.4-.6-1.7-.3-3.7-1.9-5zm148.8-307c-23.8-.5-44.8 20.4-44 45.6.8 23.6 20.2 42.6 45 42.6 24.3-.1 44-21.4 43.2-45.4-.7-23.6-20-42.9-44.2-42.8z"/><path style="fill:#fdfdfd" d="M133 398.9c.4-28.5.7-56.9-6-84.9-4.5-18.7-12.3-35.5-28.5-47.1-5.2-3.7-10.8-6.5-16.8-8.5-2.4-.8-3.5-1.7-3.5-4.5.1-15 .1-30 .1-45 0-2-.3-4.1 3-3.7 23.5 2.9 45.4 9.9 64 25.2 20.7 17.1 32.6 39.5 39.7 64.8 6.2 22.1 8.4 44.7 8.1 67.6-.1 12 0 24 .1 36 0 .4-.1.7-.1 1.1h-60c-.1-.3-.1-.7-.1-1z"/><path style="fill:#fcfcfc" d="M.1 364.9c1.6 1.3 1.4 3.3 2 4.9 6.2 16.8 18 26.7 35.8 29.3 0 .3 0 .5.2.8-11.8 0-23.7-.1-35.5.1-2.2 0-2.6-.4-2.6-2.6.1-10.8.1-21.6.1-32.5zM399.9 36.1c-2.1-5.3-3.4-10.9-6.6-15.7C386 9.4 376.1 2.8 363 1c-.1-.3-.1-.6-.1-.9 11.5 0 23 .1 34.5-.1 2.2 0 2.6.4 2.6 2.6-.1 11.1-.1 22.3-.1 33.5zM37 1C19.5 3.8 8.1 13.7 2 30.2c-.6 1.6-.4 3.6-2 4.9.1-10.9.1-21.7 0-32.5C0 .4.4 0 2.6 0c11.5.1 23 .1 34.5.1 0 .3 0 .6-.1.9zm326 398c17.4-2.8 28.9-12.7 35-29.2.6-1.6.4-3.6 1.9-4.9 0 10.8-.1 21.7.1 32.5 0 2.2-.4 2.6-2.6 2.6-11.5-.1-23-.1-34.5-.1 0-.3 0-.6.1-.9z"/><path style="fill:#a9acb1" d="M37 1c.1-.3.1-.6.1-.9H363c0 .3 0 .6.1.9-4.7 0-9.3.1-14 .1H41c-1.4 0-2.7-.1-4-.1zm326 398c-.1.3-.1.6-.1.9H193c0-.4.1-.7.1-1.1 55 0 109.9.1 164.9.1 1.7 0 3.4.1 5 .1z"/><path style="fill:#aaadb2" d="M38.1 399.9c-.1-.2-.2-.5-.2-.8 25.4-.1 50.8-.1 76.2-.2 6.3 0 12.6 0 18.9-.1 0 .4 0 .7.1 1.1h-95z"/><path style="fill:#fdfdfd" d="M148.9 57.9c24.2-.1 43.5 19.2 44.3 42.8.8 24-19 45.3-43.2 45.4-24.8.1-44.3-18.9-45-42.6-1-25.2 20-46.2 43.9-45.6z"/></svg>