<svg xmlns="http://www.w3.org/2000/svg" width="96" height="96" style="overflow:visible;enable-background:new 0 0 96 96" xml:space="preserve"><path style="fill:#1385fe" d="M.1 94.9C.1 64.4.1 33.8 0 3.3 0 .6.6 0 3.3 0c30.5.1 61 .1 91.5.1v88.2c0 6.6-.1 6.7-6.7 6.7-29.3-.1-58.7-.1-88-.1zM45 48c0-9.2-6.4-15.6-15.6-15.8-9.2-.1-16 6.4-16 15.3-.1 9.5 6.2 15.9 15.8 16C38.3 63.6 45 57 45 48zm8.7.8v11.5c0 1.5-.1 3.1 2.1 3.3 2.7.1 2.2-1.9 2.2-3.4.1-4.6-.2-9.3.2-13.9.4-6.6 4.8-10.3 10.8-10 5.7.2 8.7 3.7 8.8 10.4.1 4.5 0 9 0 13.4 0 1.6-.4 3.5 2.3 3.4 2.3-.1 2-1.8 2-3.2 0-5.1.2-10.3-.1-15.4-.5-10.9-11.3-16.4-20.5-10.4-1.7 1.1-2.7 2.6-5.2.8-1.7-1.2-2.8.5-2.7 2.6.1 3.6.1 7.2.1 10.9z"/><path style="fill:#2c92fe" d="M.1 94.9h88c6.6 0 6.7-.1 6.7-6.7V0c2-.2.9 1.4.9 2 .1 30.4 0 60.7.1 91.1 0 1.6.5 2.8-2.2 2.8-30.8-.1-61.7-.1-92.5-.1-.9.1-1.2 0-1-.9z"/><path style="fill:#eaf4fe" d="M45 48c0 9.1-6.7 15.7-15.8 15.6-9.6-.1-15.9-6.5-15.8-16 0-9 6.8-15.5 16-15.3C38.7 32.3 45 38.8 45 48zm-27.1-.1c0 6.7 4.5 11.5 11 11.6 6.8.1 11.7-4.7 11.7-11.4.1-6.8-4.8-11.9-11.3-11.9-6.8 0-11.4 4.8-11.4 11.7z"/><path style="fill:#f1f7fe" d="M53.7 48.8c0-3.7.1-7.3 0-11-.1-2.1 1.1-3.8 2.7-2.6 2.5 1.8 3.5.3 5.2-.8 9.2-6 20-.5 20.5 10.4.2 5.1.1 10.3.1 15.4 0 1.5.3 3.1-2 3.2-2.7.1-2.3-1.8-2.3-3.4 0-4.5.1-9 0-13.4-.3-6.6-3.2-10.1-8.9-10.3-6-.3-10.3 3.4-10.8 9.8-.4 4.6-.1 9.3-.2 13.9 0 1.5.6 3.6-2.2 3.4-2.2-.1-2.1-1.8-2.1-3.3-.1-3.7 0-7.5 0-11.3z"/><path style="fill:#1486fe" d="M17.9 47.9c0-7 4.6-11.7 11.4-11.8 6.5-.1 11.4 5.1 11.3 11.9-.1 6.8-5 11.5-11.7 11.4-6.5 0-11-4.7-11-11.5z"/></svg>