<svg xmlns="http://www.w3.org/2000/svg" width="199.9" height="147.8" style="overflow:visible;enable-background:new 0 0 199.9 147.8" xml:space="preserve"><path style="fill:#ef1a01" d="M12.8 112.8c.1 6.2.3 12.3.1 18.4-.1 2.8.7 3.7 3.6 3.6 6.5-.2 13 .1 19.5.1-.2 1.8 1.1 2.9 1.9 4.3 1.5 3 5.4 4.5 5.2 8.5H.1v-44.9c2.4.3 4 1.7 5.5 3.7 1.9 2.5 3.8 5.4 7.2 6.3z"/><path style="fill:#f12c09" d="M60 135h46c.1 4.1 2.9 6.5 5.9 8.6 1.5 1.1 3.1 2 3.2 4.1h-47c0-1.9-1.7-2.7-2.4-4-1.8-3-5.6-4.6-5.7-8.7z"/><path style="fill:#f23d10" d="M17.9 27.3c-4.3-.3-5.2 1.9-5.1 5.9.3 8.9 0 17.8 0 26.8-1.9-.1-2.7-1.8-4-2.6C5.5 55.3 4.1 51 0 50V15c3-.5 6-.4 9 0 .3 3.2 3.3 4.3 4.9 6.5 1.5 1.8 4.2 2.8 4 5.8z"/><path style="fill:#f02305" d="M12.8 112.8c-3.5-.9-5.3-3.8-7.3-6.3-1.5-2-3.1-3.3-5.5-3.7v-29c2.5.1 3.4 2.3 5.1 3.5 2.6 2.1 4.2 5.5 7.8 6.4-.1 9.8-.1 19.5-.1 29.1z"/><path style="fill:#f55f20" d="M187.1 125.8c.3 7.3.6 14.7-.1 22h-6c-.4-3.1-3.2-4.4-5-6.4-1.7-1.9-3.5-3.5-3-6.3 2.6-1.8 1.1-4.5 1.3-6.8.3-3.4.3-6.9.5-10.3 2.5-.5 3.8 1.2 5.5 2.7 2.1 1.7 3.4 4.8 6.8 5.1z"/><path style="fill:#f02305" d="M60 135c.1 4 3.9 5.7 5.6 8.7.7 1.4 2.5 2.2 2.4 4H43c.3-4-3.6-5.5-5.2-8.5-.7-1.4-2.1-2.5-1.9-4.3 8.1.1 16.1.1 24.1.1z"/><path style="fill:#f12c09" d="M12.8 83.9C9.2 83 7.7 79.5 5 77.5c-1.6-1.3-2.5-3.5-5-3.6v-24c4.2 1 5.6 5.3 8.8 7.4 1.3.9 2.1 2.5 4 2.6v24z"/><path style="fill:#f5561b" d="M172.9 135c-.5 2.8 1.3 4.5 3 6.3 1.8 2 4.6 3.3 5 6.4h-23c-.4-3.1-3.2-4.4-5-6.4-1.7-1.9-3.5-3.5-3-6.3h23z"/><path style="fill:#f23d10" d="M115 147.8c-.1-2.1-1.6-3-3.2-4.1-3-2.1-5.8-4.5-5.9-8.6h22c-.3 2.5 1.7 3.7 3 5.3 2 2.5 5.4 3.9 6 7.5-7.3-.1-14.6-.1-21.9-.1z"/><path style="fill:#f34a17" d="M137 147.8c-.6-3.6-4-5-6-7.5-1.3-1.6-3.3-2.8-3-5.3h22c-.5 2.8 1.3 4.5 3 6.3 1.8 2 4.6 3.3 5 6.4-7.1.1-14.1.1-21 .1z"/><path style="fill:#f6f6f6" d="M173.9.6V0h26v1c-8.6-.1-17.3-.3-26-.4z"/><path style="fill:#f7792b" d="M173.9.6c8.7.1 17.3.3 26 .4v22.9c0 3.1-.1 5.7-3.1 8-3.2 2.5-5.9 5.5-9.7 8.5V25.6c-2.2-1-2.7 1.3-4.2 1.4-1.9-4.3-4.9-7.3-9.2-9.1.5-1.4 2.5-1.6 2.8-3.8h-17.1c-.2-.3-.3-.7-.5-1 5-4.2 10-8.3 15-12.5z"/><path style="fill:#f34516" d="M91.8 99.1C73.1 87 54.3 74.8 35.5 62.7c-1.3-.8-2.3-1.8-2.2-3.6.1-3.4 0-6.9 0-11.4C44.4 54 54.7 59.8 65.1 65.6c-.1 1.3.4 2.2 1.2 3.1 5.9 5.9 11.7 12 17.7 17.7 2.4 2.3 4.1 5.7 7.9 6.4 0 2.2 0 4.3-.1 6.3z"/><path style="fill:#f66c24" d="M173.7 17.9c4.3 1.8 7.4 4.8 9.2 9.1-6.6 5.4-13.3 10.8-19.9 16.1-1.1-4.8-6.3-6.3-8.2-10.5 6-5.3 12.4-10.1 18.9-14.7zm13.4 107.9c-3.4-.3-4.7-3.4-6.8-5.3-1.6-1.4-3-3.2-5.5-2.7-.9-9-.3-18-.1-27.1 2.5-.3 3.9 1.3 5.5 2.7 2.2 1.9 3.5 5 6.9 5.3v27.1z"/><path style="fill:#f23d10" d="M142.1 59.9c-5.8 5.3-11.7 10.4-18.1 14.9-2.2-4.5-5.5-8-10.2-10 6.3-5.7 13.1-10.7 19.9-15.7l8.4 10.8z"/><path style="fill:#f02305" d="M91.8 99.1c0-2.1.1-4.2.1-6.3 0-4.1.1-8.3.1-12.4 4.6-1.4 7.3-5.7 11.6-7.7 4.4 2.4 6.6 7.4 11.2 9.5-7 5.9-14 11.7-20.9 17.6-1.2 1.1-1.6.3-2.1-.7z"/><path style="fill:#f34a17" d="M17.9 27.3c.2-3-2.6-4-4-5.9-1.6-2.2-4.6-3.3-4.9-6.5 8.3-.5 16.7-.4 25 0 .4 3.1 2.3 5.2 4.8 6.9 2 1.4 4.2 2.5 4.2 5.5-8.4.5-16.7.6-25.1 0z"/><path style="fill:#f66c24" d="M105.9 27.3c-8.3.5-16.6.6-24.9 0 .4-2.5-1.2-3.9-2.6-5.5-1.9-2.2-5-3.5-5.4-6.8h24c.6 3.4 3.3 5 5.7 6.8 2 1.4 3.1 3.1 3.2 5.5z"/><path style="fill:#f5561b" d="M42.9 27.3c0-2.9-2.2-4.1-4.2-5.5-2.5-1.7-4.4-3.8-4.8-6.9 7-.5 14-.4 21 0-.4 3 1.9 4.4 3.6 6.1 1.7 1.8 3.9 3.2 3.3 6.2-6.2.7-12.5.7-18.9.1z"/><path style="fill:#f55f20" d="M61.9 27.3c.6-3-1.7-4.5-3.3-6.2-1.7-1.8-4-3.1-3.6-6.1 6-.4 12-.4 18 0 .4 3.3 3.5 4.7 5.4 6.8 1.5 1.6 3 3.1 2.6 5.5-6.4.5-12.7.6-19.1 0z"/><path style="fill:#f7792b" d="M105.9 27.3c-.1-2.4-1.2-4.1-3.2-5.6-2.4-1.8-5.2-3.4-5.7-6.8 9.7-.4 19.3-.4 29 0v1c-4.6 3.7-9.1 7.4-13.8 11-1.9 1.4-4.2.9-6.3.4z"/><path style="fill:#f34a17" d="M92 80.5c0 4.1-.1 8.3-.1 12.4-3.8-.7-5.5-4.1-7.9-6.4-6-5.8-11.8-11.9-17.7-17.8-.9-.9-1.4-1.8-1.2-3.1 9.2 4.6 18.1 9.6 26.9 14.9z"/><path style="fill:#f77e3f" d="M187.1 98.9c-3.4-.4-4.7-3.4-6.9-5.3-1.6-1.5-3.1-3.1-5.5-2.7-1.4-3.9-.1-6.6 3.3-8.8 3-2 5.8-4.4 9.7-7.4-.4 8.7.4 16.4-.6 24.2z"/><path style="fill:#f12c09" d="M114.9 82.2c-4.7-2.1-6.8-7.1-11.2-9.5 3.1-2.9 6.3-5.8 10.1-7.9 4.7 2 8 5.5 10.2 10-3.1 2.5-6.1 5-9.1 7.4z"/><path style="fill:#f5561b" d="M154.8 32.6c1.9 4.2 7.1 5.7 8.2 10.5-3.4 3.3-7 6.4-11 8.9-.2-1.8-1.2-3.3-2.2-4.8-1.7-2.4-5-3.1-6.1-6 3.7-2.8 7.4-5.7 11.1-8.6z"/><path style="fill:#f34a17" d="M143.7 41.3c1.1 2.9 4.5 3.6 6.1 6 1 1.5 2 2.9 2.2 4.8-3.6 2.2-6 6-9.9 7.9l-8.4-10.8c3-3 6.4-5.7 10-7.9z"/><path style="fill:#f77e3f" d="M126 16v-1c.2.1.5.2.7.3-.3.2-.5.4-.7.7z"/></svg>