<svg xmlns="http://www.w3.org/2000/svg" viewBox="0 0 204 204" style="enable-background:new 0 0 204 204" xml:space="preserve"><path style="fill:#0593ff" d="M925 2033c-117-26-246-101-312-179-38-46-47-51-109-63-310-62-498-378-409-686l26-88-22-61C36 777 89 547 225 408c79-81 230-158 311-158 16 0 46-23 96-74C744 63 869 9 1020 9c151 1 273 54 387 168 49 50 80 73 96 73 34 0 135 35 189 65 166 93 277 285 273 475-2 66-19 152-40 203-9 23-7 39 13 100 31 90 34 222 8 312-61 208-233 361-438 390-27 4-48 10-48 14s-27 35-60 68c-59 60-137 109-222 139-41 15-211 27-253 17zm220-156c61-22 145-71 145-85 0-4-24-16-52-26-207-72-350-281-350-511 0-49 5-103 11-118 10-27 10-28-11-22-57 17-198 123-198 149 0 4-9 20-19 35-62 87-69 256-14 371 89 184 301 274 488 207zm412-237c161-56 265-202 267-377 0-45-2-85-6-88-4-4-26 9-50 30-53 45-165 99-235 114-151 31-340-18-453-118-43-38-50-38-51-3-10 178 41 298 162 388 51 37 112 62 174 71 22 3 41 6 43 8 7 7 103-9 149-25zm-1066-23c-5-14-9-74-7-134 2-92 7-119 31-178 35-86 69-137 136-203 44-44 150-106 213-126 18-6 18-7 1-26-31-34-136-79-205-89-189-25-373 93-430 275-47 155-8 307 109 418 43 40 149 102 158 92 2-2-1-15-6-29zm1034-441c133-35 232-125 277-254 62-176 0-366-154-469-46-31-98-56-104-50-2 2 1 32 7 66 36 226-86 462-294 564-40 21-82 37-92 37-17 0-16 3 5 25 27 29 111 71 167 84 57 13 132 12 188-3zm-299-284c75-49 119-99 158-182 28-59 31-74 30-160 0-109-16-157-79-244-66-92-180-152-301-159-61-4-114 7-182 38-56 26-123 75-101 75 7 0 49 18 93 39 143 69 254 208 290 361 14 59 16 197 3 248-9 33 20 28 89-16zM375 774c121-59 272-72 392-34 64 21 136 60 185 101 26 22 49 35 52 31 3-5 4-49 3-98-2-76-7-98-33-155-111-235-401-308-605-152-55 42-122 134-139 191-16 54-24 145-16 186l7 37 42-36c23-20 74-52 112-71z" transform="matrix(.1 0 0 -.1 0 204)"/></svg>