<svg xmlns="http://www.w3.org/2000/svg" viewBox="0 0 179.9 179.9" style="enable-background:new 0 0 179.9 179.9" xml:space="preserve"><circle style="fill:#c65048" cx="90" cy="90" r="90"/><path style="fill:#fff" d="M93.7 37.2C73.5 47 66.1 71.4 77.3 92.1c1.5 2.7.9 4-1.1 5.8-1.9 1.7-3.2 2.1-4.8-.2-1.5-2.2-2.8-.7-4 .4-11.8 10.8-23.6 21.5-35.4 32.3-1.8 1.6-2.4 2.8-.4 4.8 3.2 3.2 6.2 6.5 9.1 10 1.6 1.8 2.7 1.8 4.4.2l35.7-32.7c1.1-1 2.6-2.1.9-3.6-2.6-2.3-1.2-3.7.6-5.6 2.4-2.6 4-.8 5.9.5 12.8 8.6 26.4 10 40.2 3 13.9-7.1 20.8-19.1 21.2-30.3 0-33.3-29.8-52-55.9-39.5zm18 62.4c-14.8.7-27.7-11.5-28.1-26.5-.4-15.3 11.8-28 27.7-28.1.6 0 2 .1 3.3.3 7 1 7.3 1.5 3.8 7.6-1.4 2.5-1 3.7 1.4 5 3 1.6 5.4 4.2 6.4 7.4 1.2 3.7 2.9 3.4 5.8 2 5.2-2.7 5.5-2.4 5.9 3.5 1.1 15-10.9 28.2-26.2 28.8z"/></svg>