<svg xmlns="http://www.w3.org/2000/svg" viewBox="0 0 73.2 126.3" style="enable-background:new 0 0 73.2 126.3" xml:space="preserve"><path style="fill-rule:evenodd;clip-rule:evenodd;fill:#e6d2fc" d="M70.4 36.3c0 18.5-33.8 84-33.8 84S2.8 54.9 2.8 36.3c0-18.5 15.1-33.6 33.8-33.6s33.8 15.1 33.8 33.6z"/><path style="fill:#8962b2" d="m36.6 126.3-2.5-4.7C32.7 118.9 0 55.3 0 36.4 0 16.3 16.4 0 36.6 0c20.2 0 36.6 16.3 36.6 36.4 0 19-32.7 82.5-34.1 85.2l-2.5 4.7zm0-120.8C19.5 5.5 5.5 19.4 5.5 36.4c0 5 2.9 17.4 16.7 47.8 5.6 12.4 11.3 23.9 14.4 30.1 3.1-6.2 8.8-17.7 14.4-30.1 13.8-30.4 16.7-42.8 16.7-47.8 0-17-14-30.9-31.1-30.9z"/><path style="fill-rule:evenodd;clip-rule:evenodd;fill:#fff" d="M36.6 51.2c-8 0-14.5-6.5-14.5-14.5s6.5-14.5 14.5-14.5 14.5 6.5 14.5 14.5-6.5 14.5-14.5 14.5z"/><path style="fill:#8962b2" d="M36.6 52.5c-8.8 0-15.9-7.1-15.9-15.9s7.1-15.9 15.9-15.9 15.9 7.1 15.9 15.9-7.2 15.9-15.9 15.9zm0-29c-7.2 0-13.1 5.9-13.1 13.1s5.9 13.1 13.1 13.1c7.2 0 13.1-5.9 13.1-13.1s-5.9-13.1-13.1-13.1z"/></svg>