
<?xml version="1.0" encoding="UTF-8"?>
<svg width="30px" height="47px" viewBox="0 0 30 47" version="1.1" xmlns="http://www.w3.org/2000/svg" xmlns:xlink="http://www.w3.org/1999/xlink">
    <!-- Generator: Sketch 50.2 (55047) - http://www.bohemiancoding.com/sketch -->
    <title>Logo / Glyph</title>
    <desc>Created with Sketch.</desc>
    <defs>
        <path d="M11.8254781,24.818383 C12.5677359,24.818383 13.314145,24.523024 14.0921042,23.9331646 C14.9630532,23.3038095 15.7468242,22.7628904 15.749315,22.7611732 L16.2848366,22.3919744 L15.7559572,22.0124724 C15.2760634,21.6681731 3.99607007,13.5732754 2.79799629,12.7773516 C2.17446655,12.308555 1.45296543,12.2132502 0.86762793,12.5206296 C0.316331331,12.8116956 0,13.4015551 0,14.1408112 L0,17.09526 L0.188470373,17.2300604 C0.269006172,17.2884454 8.26944898,23.0436531 9.83117925,24.1203398 C10.5070157,24.585702 11.1645864,24.818383 11.8254781,24.818383 Z M28.4233249,20.1630442 C27.724241,19.6212664 2.75482246,1.62325574 1.69208203,0.857382945 L1.00296128,0.361111111 L1.00296128,5.21564562 C1.00296128,6.73708799 1.79254421,7.32780602 2.70583677,8.01125304 L2.84698198,8.11771966 C4.04837683,9.02869616 20.72842,21.0027567 23.9755902,23.3338606 C20.769103,25.6331961 3.79182465,37.8055937 2.68840118,38.5388396 C1.24290814,39.5348177 1.09179974,40.2199819 1.09179974,41.5430873 L1.05277724,46.6388889 C1.05277724,46.6388889 27.8346664,26.9391295 28.4150223,26.5115458 L28.4233249,26.504677 C29.7268425,25.4923854 30,24.2714537 30,23.4248723 L30,22.9715306 C30,21.8811063 29.4511942,20.9074519 28.4233249,20.1630442 Z" id="path-1"></path>
    </defs>
    <g id="Page-2" stroke="none" stroke-width="1" fill="none" fill-rule="evenodd">
        <g id="Logo-/-Glyph">
            <mask id="mask-2" fill="white">
                <use xlink:href="#path-1"></use>
            </mask>
            <use id="Fill-1" fill="#FFFFFF" xlink:href="#path-1"></use>
            <g id="Color-/-Blue-/-100" mask="url(#mask-2)" fill="#356AE6">
                <g transform="translate(0.000000, -1.000000)" id="Rectangle-24">
                    <rect x="0" y="0" width="30" height="49"></rect>
                </g>
            </g>
        </g>
    </g>
</svg>
