<?xml version="1.0" encoding="utf-8"?>
<!-- Generator: Adobe Illustrator 24.2.1, SVG Export Plug-In . SVG Version: 6.00 Build 0)  -->
<svg version="1.1" id="Layer_1" xmlns="http://www.w3.org/2000/svg" xmlns:xlink="http://www.w3.org/1999/xlink" x="0px" y="0px"
	 viewBox="0 0 128.3 128.3" style="enable-background:new 0 0 128.3 128.3;" xml:space="preserve">
<g>
	<path style="fill-rule:evenodd;clip-rule:evenodd;fill:#2574DB;" d="M64.1,0C28.7,0,0,28.7,0,64.1s28.7,64.1,64.1,64.1
		c35.4,0,64.1-28.7,64.1-64.1c0,0,0,0,0,0C128.3,28.7,99.6,0,64.1,0z M88.2,70.6c0,15.1-9.5,24.5-23.8,24.5C49.8,95,40,85.7,40,70.5
		V49l16-4.3v25.8c0,6.6,3.4,10.3,8.4,10.3c4.7,0,7.8-3.7,7.8-10.3V40.4l16-4.3L88.2,70.6z"/>
</g>
</svg>
