<?xml version="1.0" encoding="UTF-8" standalone="no"?>
<svg xmlns="http://www.w3.org/2000/svg" xmlns:xlink="http://www.w3.org/1999/xlink" width="100%" height="100%" viewBox="0 0 162 87" xml:space="preserve" style="fill-rule:evenodd;clip-rule:evenodd;stroke-linejoin:round;stroke-miterlimit:1.41421;">
    <g id="Artboard1" transform="matrix(0.88868,0,0,1.00417,0,0)">
        <rect x="0" y="0" width="181.697" height="85.942" style="fill:none;"></rect>
        <clipPath id="_clip1">
            <rect x="0" y="0" width="181.697" height="85.942"></rect>
        </clipPath>
        <g clip-path="url(#_clip1)">
            <g transform="matrix(0.272479,0,0,0.24114,-55.6503,23.1964)">
                <g transform="matrix(4.10852,0,0,4.08461,7.26622,-2236.38)">
                    <path d="M100.173,545.84C104.135,542.793 112.817,547.45 114.567,548.062C121.843,550.607 121.509,547.669 121.509,547.669C121.509,547.669 136.517,523.886 137.98,525.44C134.512,521.471 168.56,552.595 168.56,552.595L199.688,595.46L98.089,603.723L54.366,596.151C55.392,595.191 56.105,594.2 57.13,593.165C71.878,578.27 86.73,556.181 100.173,545.84Z" style="fill:white;"></path>
                </g>
                <g transform="matrix(4.16667,0,0,4.16667,-4.12974,-2285.92)">
                    <path d="M100.173,545.84C104.135,542.793 112.365,546.755 114.194,547.059C116.022,547.364 120.899,549.498 121.509,547.669C122.119,545.84 134.92,527.247 137.663,525.724C140.407,524.199 167.534,551.632 167.534,551.632L185.944,571.368C185.944,571.368 191.61,577.279 195.877,581.851C198.855,585.042 203.572,589.602 209.922,595.551L184.23,595.287C179.756,586.612 169.801,573.662 167.227,569.919C163.874,565.042 155.644,551.022 156.254,552.545C156.864,554.069 155.644,565.636 155.644,565.636C155.644,565.636 148.939,549.498 148.634,544.925C148.329,540.353 137.814,527.856 137.814,527.856C137.509,529.228 137.356,537.61 137.356,537.61C137.356,537.61 141.014,544.011 141.319,545.535C141.624,547.059 140.405,550.107 143.147,554.069C145.891,558.032 147.415,564.737 147.415,564.737C147.415,564.737 139.49,560.775 135.527,557.117C131.565,553.459 124.859,551.631 124.859,551.631C124.859,551.631 137.356,568.09 141.319,570.224C144.017,571.677 154.333,586.99 160.651,595.163C136.793,595.038 149.67,590.917 136.29,577.539C134.157,575.406 133.852,581.502 132.023,581.197C130.194,580.893 127.451,571.138 125.318,566.262C123.184,561.385 103.981,546.755 103.981,546.755C103.981,546.755 102.305,547.821 101.543,549.65C100.781,551.479 98.647,568.091 98.647,568.091C98.647,568.091 104.439,562.909 106.267,559.556C108.096,556.204 112.669,564.128 112.974,565.957C113.278,567.786 109.316,567.176 107.792,568.7C106.268,570.224 104.93,576.893 104.439,581.807C103.948,586.721 94.019,599.558 88.517,603.723L54.806,596.658C55.832,595.698 56.487,594.302 57.513,593.267C72.26,578.372 86.73,556.181 100.173,545.84Z" style="fill:rgb(51,63,77);"></path>
                </g>
                <g transform="matrix(3.72719,0,0,4.16667,21.5419,-2285.92)">
                    <path d="M57.424,593.206C71.556,598.257 101.322,602.697 113.032,602.295C176.551,600.114 167.411,592.322 227.786,595.581L201.47,597.839C167.758,600.167 87.604,623.376 49.017,601.928L57.424,593.206Z" style="fill:rgb(185,155,112);"></path>
                </g>
            </g>
        </g>
    </g>
</svg>
