<!-- Generator: Adobe Illustrator 24.2.1, SVG Export Plug-In  -->
<svg version="1.1" xmlns="http://www.w3.org/2000/svg" xmlns:xlink="http://www.w3.org/1999/xlink" x="0px" y="0px" width="56.2px"
     height="56.4px" viewBox="0 0 56.2 56.4" style="overflow:visible;enable-background:new 0 0 56.2 56.4;" xml:space="preserve">
<defs>
</defs>
<g>
    <path style="fill-rule:evenodd;clip-rule:evenodd;fill:#FF9E1A;" d="M36.3,23.1c0.5,1.5,1.9,2.4,3.5,2.4c0.4,0,0.8-0.1,1.2-0.2
        c1.9-0.7,2.9-2.8,2.2-4.7c-1.2-3.3-3.7-5.9-7.2-7.5c-1.8-0.8-4,0-4.9,1.8c-0.8,1.8,0,4,1.8,4.9C34.7,20.6,35.8,21.7,36.3,23.1z"/>
    <path style="fill-rule:evenodd;clip-rule:evenodd;fill:#FF9E1A;" d="M35.1,0.1c-2-0.4-3.9,0.9-4.3,2.9s0.9,3.9,2.9,4.3
        C42,8.9,47.6,14.5,49,22.6c0.3,1.8,1.9,3,3.6,3c0.2,0,0.4,0,0.6-0.1c2-0.4,3.3-2.3,3-4.2C54.3,10.3,46.4,2.3,35.1,0.1z"/>
    <path style="fill-rule:evenodd;clip-rule:evenodd;fill:#1856ED;" d="M25.8,36.7c-3.3,0-6.1-2.7-6.1-6.1c0-3.3,2.7-6.1,6.1-6.1
        c2,0,3.7-1.6,3.7-3.7s-1.6-3.7-3.7-3.7c-7.4,0-13.4,6-13.4,13.4s6,13.4,13.4,13.4s13.4-6,13.4-13.4c0-2-1.6-3.7-3.7-3.7
        c-2,0-3.7,1.6-3.7,3.7C31.9,34,29.1,36.7,25.8,36.7z"/>
    <path style="fill-rule:evenodd;clip-rule:evenodd;fill:#1856ED;" d="M47.9,27c-2,0-3.7,1.6-3.7,3.7c0,10.2-8.3,18.5-18.5,18.5
        S7.2,40.9,7.2,30.7s8.3-18.5,18.5-18.5c2,0,3.7-1.6,3.7-3.7c0-2-1.6-3.7-3.7-3.7C11.6,4.8,0,16.4,0,30.6s11.6,25.8,25.8,25.8
        s25.8-11.6,25.8-25.8C51.6,28.6,50,27,47.9,27z"/>
</g>
</svg>
