<svg fill="none" height="39" viewBox="0 0 30 39" width="30" xmlns="http://www.w3.org/2000/svg"><path d="m28.4565 24.8621c-.981-.5172-2.0601.0836-2.4902.5247-.2566.2662-.5735.4716-.9206.6009s-.7169.1825-1.0867.1521c-.3697-.0304-.7244-.1445-1.0489-.3271-.3245-.1825-.5961-.4411-.815-.7453-.0528-.076-.0981-.1521-.1433-.2357 3.3203-2.525 5.4558-6.533 5.4483-11.0506-.0076-7.63567-6.2105-13.8339967-13.7868-13.78075961-7.5311.05323711-13.6133 6.21352961-13.6133 13.81125961 0 4.9434 2.58078 9.2784 6.45196 11.7197-.01509.1217-.03773.2434-.06791.3651-.09056.3651-.26412.6997-.49805.9887s-.52823.5172-.86781.6769c-.33203.1597-.70179.2433-1.07155.2433-.61124 0-2.24121.1978-2.49778 1.3766-.23393 1.0799.71689 1.734 1.61488 1.8709.2943.0456.59614.0684.89799.0684.85272 0 1.69788-.1977 2.46759-.5627.76971-.3651 1.44886-.9051 1.99219-1.5667.22638-.2738.42258-.5628.5886-.867 0 0 0-.0076.00754-.0076.05283-.0989.20375-.0381.16602.0684-.00755.0152-.00755.0228-.01509.038-.34713 1.08-.85272 2.0991-1.50923 3.0269-.53578.753-1.15457 1.4374-1.84881 2.0307-.74707.6388-1.02628 1.7187-.52069 2.5629.5056.8442 1.59979 1.118 2.3695.5096 1.10173-.867 2.06764-1.8937 2.88265-3.0497.9206-1.3081 1.6224-2.7532 2.0752-4.2894.0377-.1369.0905-.3271.1358-.5248.0302-.1369.2339-.1141.2339.0228.0076.1749.0076.3499.0076.5172-.0227 1.521-.3547 3.0193-.9735 4.4111-.3773.8442-.8602 1.6351-1.4262 2.3576-.61124.7681-.67161 1.8861-.0151 2.6162.6565.7301 1.7809.791 2.4223.0457.9131-1.0648 1.6677-2.2588 2.2488-3.5517.8225-1.8329 1.2602-3.8103 1.2828-5.8181 0-.1521 0-.3042 0-.4487 0-.1065.1509-.1293.1811-.0304.0453.1673.0906.327.1208.4411.2565 1.1256.3395 2.2816.2414 3.4376-.0754.9202-.2716 1.8329-.5735 2.6999-.3244.9278-.0151 2.0078.8452 2.4717s1.9394.1445 2.294-.7681c.5132-1.3081.8301-2.6923.9509-4.0993.1056-1.2016.0528-2.4185-.1359-3.6049-.0528-.3498-.1283-.6921-.2037-1.0343-.0227-.0837.083-.1521.1509-.0913.2717.2358.566.4411.8754.616.7395.4259 1.562.6845 2.4147.753.8527.0684 1.7055-.0533 2.5053-.3499.7999-.3042 1.5244-.7757 2.1205-1.3917.2113-.2206.4075-.4488.5811-.6997.5282-.7225.3622-1.7036-.4453-2.1295zm-19.59732-8.9363c-.93572.1293-1.80353-.5247-1.93181-1.4754-.12829-.943.52068-1.8177 1.46395-1.9469.93572-.1293 1.80358.5247 1.93178 1.4754.1283.943-.52065 1.8177-1.46392 1.9469zm10.27032-3.179c-.1283-.943.5207-1.8176 1.464-1.9469.9357-.1293 1.8035.5247 1.9318 1.4754.1283.9431-.5207 1.8177-1.464 1.947-.9433.1292-1.8035-.5324-1.9318-1.4755z" fill="#6e54d7"/></svg>