<?xml version="1.0" encoding="utf-8"?>
<!-- Generator: Adobe Illustrator 24.2.1, SVG Export Plug-In . SVG Version: 6.00 Build 0)  -->
<svg version="1.1" id="Layer_1" xmlns="http://www.w3.org/2000/svg" xmlns:xlink="http://www.w3.org/1999/xlink" x="0px" y="0px"
	 viewBox="0 0 47.4 32" style="enable-background:new 0 0 47.4 32;" xml:space="preserve">
<g>
	
		<linearGradient id="SVGID_1_" gradientUnits="userSpaceOnUse" x1="122.1552" y1="-531.5438" x2="122.1552" y2="-486.2896" gradientTransform="matrix(0.7071 0 0 -0.7071 -62.6591 -343.8554)">
		<stop  offset="0" style="stop-color:#EFC119"/>
		<stop  offset="0.3314" style="stop-color:#92C84E"/>
		<stop  offset="0.4859" style="stop-color:#71BF5B"/>
		<stop  offset="0.7506" style="stop-color:#15B158"/>
		<stop  offset="0.903" style="stop-color:#23AC69"/>
		<stop  offset="1" style="stop-color:#23AC69"/>
	</linearGradient>
	<path style="fill:url(#SVGID_1_);" d="M1,14.5L22.2,0.4c0.9-0.5,2.1-0.5,3,0l21.3,14.1c0.8,0.4,1.2,1.4,0.8,2.3
		c-0.2,0.3-0.4,0.6-0.8,0.8l-2.9,1.9c-7-11-21.5-14.3-32.5-7.3c-2.9,1.9-5.4,4.4-7.3,7.3l-2.9-1.9c-0.8-0.4-1.2-1.5-0.7-2.3
		C0.4,14.9,0.6,14.7,1,14.5z M23.7,14.3c-6.1,0-11.8,3.2-15,8.3l4.9,3.3c3.4-5.6,10.6-7.4,16.2-4c1.6,1,3,2.4,4,4l4.9-3.3
		C35.5,17.5,29.8,14.3,23.7,14.3z M23.7,26.1c-2.2,0-4.1,1.2-5.2,3.1l3.3,2.1c0.5,0.5,1.2,0.7,1.9,0.7c0.7,0,1.4-0.2,1.9-0.7
		l3.3-2.1C27.8,27.3,25.9,26.1,23.7,26.1z"/>
</g>
</svg>
