<!-- Generator: Adobe Illustrator 24.2.1, SVG Export Plug-In  -->
<svg version="1.1" xmlns="http://www.w3.org/2000/svg" xmlns:xlink="http://www.w3.org/1999/xlink" x="0px" y="0px" width="400px"
     height="400px" viewBox="0 0 400 400" style="overflow:visible;enable-background:new 0 0 400 400;" xml:space="preserve">
<defs>
</defs>
<g>
    <g>
        <path style="fill:#555C66;" d="M0.1,364.9c0-110,0-219.9,0-329.9c1.5-1.3,1.4-3.3,2-4.9C8.1,13.7,19.5,3.8,37,1
            c1.3,0,2.7,0.1,4,0.1c102.7,0,205.4,0,308.1,0c4.7,0,9.3-0.1,14-0.1c13,1.9,23,8.5,30.3,19.4c3.3,4.9,4.5,10.5,6.6,15.7
            c0,109.6,0,219.3,0,328.9c-1.5,1.3-1.3,3.3-1.9,4.9c-6,16.5-17.5,26.4-35,29.2c-1.7,0-3.3-0.1-5-0.1c-55,0-109.9-0.1-164.9-0.1
            c0-12-0.2-24-0.1-36c0.3-22.9-1.9-45.5-8.1-67.6c-7.1-25.3-19-47.8-39.7-64.8c-18.6-15.3-40.5-22.3-64-25.2c-3.3-0.4-3,1.6-3,3.7
            c0,15,0.1,30-0.1,45c0,2.7,1.1,3.7,3.5,4.5c6,2,11.6,4.8,16.8,8.5c16.2,11.6,24.1,28.4,28.5,47.1c6.7,27.9,6.4,56.4,6,84.9
            c-6.3,0-12.6,0-18.9,0.1c-25.4,0.1-50.8,0.1-76.2,0.2C20.1,396.6,8.3,386.7,2,369.9C1.4,368.2,1.7,366.2,0.1,364.9z M148.9,57.9
            c-23.8-0.5-44.8,20.4-44,45.6c0.8,23.6,20.2,42.6,45,42.6c24.3-0.1,44-21.4,43.2-45.4C192.4,77.1,173.1,57.8,148.9,57.9z"/>
        <path style="fill:#FDFDFD;" d="M133,398.9c0.4-28.5,0.7-56.9-6-84.9c-4.5-18.7-12.3-35.5-28.5-47.1c-5.2-3.7-10.8-6.5-16.8-8.5
            c-2.4-0.8-3.5-1.7-3.5-4.5c0.1-15,0.1-30,0.1-45c0-2-0.3-4.1,3-3.7c23.5,2.9,45.4,9.9,64,25.2c20.7,17.1,32.6,39.5,39.7,64.8
            c6.2,22.1,8.4,44.7,8.1,67.6c-0.1,12,0,24,0.1,36c0,0.4-0.1,0.7-0.1,1.1c-20,0-40,0-60,0C133,399.6,133,399.2,133,398.9z"/>
        <path style="fill:#FCFCFC;" d="M0.1,364.9c1.6,1.3,1.4,3.3,2,4.9c6.2,16.8,18,26.7,35.8,29.3c0,0.3,0,0.5,0.2,0.8
            c-11.8,0-23.7-0.1-35.5,0.1c-2.2,0-2.6-0.4-2.6-2.6C0.1,386.6,0.1,375.8,0.1,364.9z"/>
        <path style="fill:#FCFCFC;" d="M399.9,36.1c-2.1-5.3-3.4-10.9-6.6-15.7C386,9.4,376.1,2.8,363,1c-0.1-0.3-0.1-0.6-0.1-0.9
            c11.5,0,23,0.1,34.5-0.1c2.2,0,2.6,0.4,2.6,2.6C399.9,13.7,399.9,24.9,399.9,36.1z"/>
        <path style="fill:#FCFCFC;" d="M37,1C19.5,3.8,8.1,13.7,2,30.2c-0.6,1.6-0.4,3.6-2,4.9C0.1,24.2,0.1,13.4,0,2.6C0,0.4,0.4,0,2.6,0
            c11.5,0.1,23,0.1,34.5,0.1C37.1,0.4,37.1,0.7,37,1z"/>
        <path style="fill:#FCFCFC;" d="M363,399c17.4-2.8,28.9-12.7,35-29.2c0.6-1.6,0.4-3.6,1.9-4.9c0,10.8-0.1,21.7,0.1,32.5
            c0,2.2-0.4,2.6-2.6,2.6c-11.5-0.1-23-0.1-34.5-0.1C362.9,399.6,362.9,399.3,363,399z"/>
        <path style="fill:#A9ACB1;" d="M37,1c0.1-0.3,0.1-0.6,0.1-0.9c108.6,0,217.3,0,325.9,0c0,0.3,0,0.6,0.1,0.9c-4.7,0-9.3,0.1-14,0.1
            c-102.7,0-205.4,0-308.1,0C39.6,1.1,38.3,1,37,1z"/>
        <path style="fill:#A9ACB1;" d="M363,399c-0.1,0.3-0.1,0.6-0.1,0.9c-56.6,0-113.3,0-169.9,0c0-0.4,0.1-0.7,0.1-1.1
            c55,0,109.9,0.1,164.9,0.1C359.7,398.9,361.4,399,363,399z"/>
        <path style="fill:#AAADB2;" d="M38.1,399.9c-0.1-0.2-0.2-0.5-0.2-0.8c25.4-0.1,50.8-0.1,76.2-0.2c6.3,0,12.6,0,18.9-0.1
            c0,0.4,0,0.7,0.1,1.1C101.4,399.9,69.7,399.9,38.1,399.9z"/>
        <path style="fill:#FDFDFD;" d="M148.9,57.9c24.2-0.1,43.5,19.2,44.3,42.8c0.8,24-19,45.3-43.2,45.4c-24.8,0.1-44.3-18.9-45-42.6
            C104,78.3,125,57.3,148.9,57.9z"/>
    </g>
</g>
</svg>
