<!-- Generator: Adobe Illustrator 24.2.1, SVG Export Plug-In  -->
<svg version="1.1" xmlns="http://www.w3.org/2000/svg" xmlns:xlink="http://www.w3.org/1999/xlink" x="0px" y="0px" width="96px"
     height="96px" viewBox="0 0 96 96" style="overflow:visible;enable-background:new 0 0 96 96;" xml:space="preserve">
<defs>
</defs>
<g>
    <g>
        <path style="fill:#1385FE;" d="M0.1,94.9c0-30.5,0-61.1-0.1-91.6C0,0.6,0.6,0,3.3,0c30.5,0.1,61,0.1,91.5,0.1
            c0,29.4,0,58.8,0,88.2c0,6.6-0.1,6.7-6.7,6.7C58.8,94.9,29.4,94.9,0.1,94.9z M45,48c0-9.2-6.4-15.6-15.6-15.8
            c-9.2-0.1-16,6.4-16,15.3c-0.1,9.5,6.2,15.9,15.8,16C38.3,63.6,45,57,45,48z M53.7,48.8c0,3.8,0,7.6,0,11.5c0,1.5-0.1,3.1,2.1,3.3
            c2.7,0.1,2.2-1.9,2.2-3.4c0.1-4.6-0.2-9.3,0.2-13.9C58.6,39.7,63,36,69,36.3c5.7,0.2,8.7,3.7,8.8,10.4c0.1,4.5,0,9,0,13.4
            c0,1.6-0.4,3.5,2.3,3.4c2.3-0.1,2-1.8,2-3.2c0-5.1,0.2-10.3-0.1-15.4c-0.5-10.9-11.3-16.4-20.5-10.4c-1.7,1.1-2.7,2.6-5.2,0.8
            c-1.7-1.2-2.8,0.5-2.7,2.6C53.7,41.5,53.7,45.1,53.7,48.8z"/>
        <path style="fill:#2C92FE;" d="M0.1,94.9c29.3,0,58.7,0,88,0c6.6,0,6.7-0.1,6.7-6.7c0-29.4,0-58.8,0-88.2c2-0.2,0.9,1.4,0.9,2
            c0.1,30.4,0,60.7,0.1,91.1c0,1.6,0.5,2.8-2.2,2.8c-30.8-0.1-61.7-0.1-92.5-0.1C0.2,95.9-0.1,95.8,0.1,94.9z"/>
        <path style="fill:#EAF4FE;" d="M45,48c0,9.1-6.7,15.7-15.8,15.6c-9.6-0.1-15.9-6.5-15.8-16c0-9,6.8-15.5,16-15.3
            C38.7,32.3,45,38.8,45,48z M17.9,47.9c0,6.7,4.5,11.5,11,11.6c6.8,0.1,11.7-4.7,11.7-11.4c0.1-6.8-4.8-11.9-11.3-11.9
            C22.5,36.2,17.9,41,17.9,47.9z"/>
        <path style="fill:#F1F7FE;" d="M53.7,48.8c0-3.7,0.1-7.3,0-11c-0.1-2.1,1.1-3.8,2.7-2.6c2.5,1.8,3.5,0.3,5.2-0.8
            c9.2-6,20-0.5,20.5,10.4c0.2,5.1,0.1,10.3,0.1,15.4c0,1.5,0.3,3.1-2,3.2c-2.7,0.1-2.3-1.8-2.3-3.4c0-4.5,0.1-9,0-13.4
            C77.6,40,74.7,36.5,69,36.3c-6-0.3-10.3,3.4-10.8,9.8c-0.4,4.6-0.1,9.3-0.2,13.9c0,1.5,0.6,3.6-2.2,3.4c-2.2-0.1-2.1-1.8-2.1-3.3
            C53.6,56.4,53.7,52.6,53.7,48.8z"/>
        <path style="fill:#1486FE;" d="M17.9,47.9c0-7,4.6-11.7,11.4-11.8c6.5-0.1,11.4,5.1,11.3,11.9c-0.1,6.8-5,11.5-11.7,11.4
            C22.4,59.4,17.9,54.7,17.9,47.9z"/>
    </g>
</g>
</svg>
