<!-- Generator: Adobe Illustrator 24.2.1, SVG Export Plug-In  -->
<svg version="1.1" xmlns="http://www.w3.org/2000/svg" xmlns:xlink="http://www.w3.org/1999/xlink" x="0px" y="0px" width="199.9px"
     height="147.8px" viewBox="0 0 199.9 147.8" style="overflow:visible;enable-background:new 0 0 199.9 147.8;"
     xml:space="preserve">
<defs>
</defs>
<g>
    <path style="fill:#EF1A01;" d="M12.8,112.8c0.1,6.2,0.3,12.3,0.1,18.4c-0.1,2.8,0.7,3.7,3.6,3.6c6.5-0.2,13,0.1,19.5,0.1
        c-0.2,1.8,1.1,2.9,1.9,4.3c1.5,3,5.4,4.5,5.2,8.5c-14.3,0-28.7,0-43,0c0-15,0-30,0-44.9c2.4,0.3,4,1.7,5.5,3.7
        C7.5,109,9.4,111.9,12.8,112.8z"/>
    <path style="fill:#F12C09;" d="M60,135c15.3,0,30.6,0,46,0c0.1,4.1,2.9,6.5,5.9,8.6c1.5,1.1,3.1,2,3.2,4.1c-15.7,0-31.3,0-47,0
        c0-1.9-1.7-2.7-2.4-4C63.9,140.7,60.1,139.1,60,135z"/>
    <path style="fill:#F23D10;" d="M17.9,27.3c-4.3-0.3-5.2,1.9-5.1,5.9c0.3,8.9,0,17.8,0,26.8c-1.9-0.1-2.7-1.8-4-2.6
        c-3.3-2.1-4.7-6.4-8.8-7.4c0-11.7,0-23.3,0-35c3-0.5,6-0.4,9,0c0.3,3.2,3.3,4.3,4.9,6.5C15.4,23.3,18.1,24.3,17.9,27.3z"/>
    <path style="fill:#F02305;" d="M12.8,112.8c-3.5-0.9-5.3-3.8-7.3-6.3c-1.5-2-3.1-3.3-5.5-3.7c0-9.7,0-19.3,0-29
        c2.5,0.1,3.4,2.3,5.1,3.5c2.6,2.1,4.2,5.5,7.8,6.4C12.8,93.5,12.8,103.2,12.8,112.8z"/>
    <path style="fill:#F55F20;" d="M187.1,125.8c0.3,7.3,0.6,14.7-0.1,22c-2,0-4,0-6,0c-0.4-3.1-3.2-4.4-5-6.4c-1.7-1.9-3.5-3.5-3-6.3
        c2.6-1.8,1.1-4.5,1.3-6.8c0.3-3.4,0.3-6.9,0.5-10.3c2.5-0.5,3.8,1.2,5.5,2.7C182.4,122.4,183.7,125.5,187.1,125.8z"/>
    <path style="fill:#F02305;" d="M60,135c0.1,4,3.9,5.7,5.6,8.7c0.7,1.4,2.5,2.2,2.4,4c-8.3,0-16.7,0-25,0c0.3-4-3.6-5.5-5.2-8.5
        c-0.7-1.4-2.1-2.5-1.9-4.3C44,135,52,135,60,135z"/>
    <path style="fill:#F12C09;" d="M12.8,83.9c-3.6-0.9-5.1-4.4-7.8-6.4C3.4,76.2,2.5,74,0,73.9c0-8,0-16,0-24c4.2,1,5.6,5.3,8.8,7.4
        c1.3,0.9,2.1,2.5,4,2.6C12.8,67.9,12.8,75.9,12.8,83.9z"/>
    <path style="fill:#F5561B;" d="M172.9,135c-0.5,2.8,1.3,4.5,3,6.3c1.8,2,4.6,3.3,5,6.4c-7.7,0-15.3,0-23,0c-0.4-3.1-3.2-4.4-5-6.4
        c-1.7-1.9-3.5-3.5-3-6.3C157.6,135,165.3,135,172.9,135z"/>
    <path style="fill:#F23D10;" d="M115,147.8c-0.1-2.1-1.6-3-3.2-4.1c-3-2.1-5.8-4.5-5.9-8.6c7.3,0,14.7,0,22,0
        c-0.3,2.5,1.7,3.7,3,5.3c2,2.5,5.4,3.9,6,7.5C129.6,147.8,122.3,147.8,115,147.8z"/>
    <path style="fill:#F34A17;" d="M137,147.8c-0.6-3.6-4-5-6-7.5c-1.3-1.6-3.3-2.8-3-5.3c7.3,0,14.7,0,22,0c-0.5,2.8,1.3,4.5,3,6.3
        c1.8,2,4.6,3.3,5,6.4C150.9,147.8,143.9,147.8,137,147.8z"/>
    <path style="fill:#F6F6F6;" d="M173.9,0.6c0-0.2,0-0.4,0-0.6c8.7,0,17.3,0,26,0c0,0.3,0,0.7,0,1C191.3,0.9,182.6,0.7,173.9,0.6z"/>
    <path style="fill:#F7792B;" d="M173.9,0.6c8.7,0.1,17.3,0.3,26,0.4c0,7.6,0,15.2,0,22.9c0,3.1-0.1,5.7-3.1,8
        c-3.2,2.5-5.9,5.5-9.7,8.5c0-5.5,0-10.2,0-14.8c-2.2-1-2.7,1.3-4.2,1.4c-1.9-4.3-4.9-7.3-9.2-9.1c0.5-1.4,2.5-1.6,2.8-3.8
        c-5.8,0-11.5,0-17.1,0c-0.2-0.3-0.3-0.7-0.5-1C163.9,8.9,168.9,4.8,173.9,0.6z"/>
    <path style="fill:#F34516;" d="M91.8,99.1C73.1,87,54.3,74.8,35.5,62.7c-1.3-0.8-2.3-1.8-2.2-3.6c0.1-3.4,0-6.9,0-11.4
        C44.4,54,54.7,59.8,65.1,65.6c-0.1,1.3,0.4,2.2,1.2,3.1c5.9,5.9,11.7,12,17.7,17.7c2.4,2.3,4.1,5.7,7.9,6.4
        C91.9,95,91.9,97.1,91.8,99.1z"/>
    <path style="fill:#F66C24;" d="M173.7,17.9c4.3,1.8,7.4,4.8,9.2,9.1c-6.6,5.4-13.3,10.8-19.9,16.1c-1.1-4.8-6.3-6.3-8.2-10.5
        C160.8,27.3,167.2,22.5,173.7,17.9z"/>
    <path style="fill:#F66C24;" d="M187.1,125.8c-3.4-0.3-4.7-3.4-6.8-5.3c-1.6-1.4-3-3.2-5.5-2.7c-0.9-9-0.3-18-0.1-27.1
        c2.5-0.3,3.9,1.3,5.5,2.7c2.2,1.9,3.5,5,6.9,5.3C187.1,107.9,187.1,116.8,187.1,125.8z"/>
    <path style="fill:#F23D10;" d="M142.1,59.9c-5.8,5.3-11.7,10.4-18.1,14.9c-2.2-4.5-5.5-8-10.2-10c6.3-5.7,13.1-10.7,19.9-15.7
        C136.5,52.7,139.3,56.3,142.1,59.9z"/>
    <path style="fill:#F02305;" d="M91.8,99.1c0-2.1,0.1-4.2,0.1-6.3c0-4.1,0.1-8.3,0.1-12.4c4.6-1.4,7.3-5.7,11.6-7.7
        c4.4,2.4,6.6,7.4,11.2,9.5c-7,5.9-14,11.7-20.9,17.6C92.7,100.9,92.3,100.1,91.8,99.1z"/>
    <path style="fill:#F34A17;" d="M17.9,27.3c0.2-3-2.6-4-4-5.9c-1.6-2.2-4.6-3.3-4.9-6.5c8.3-0.5,16.7-0.4,25,0
        c0.4,3.1,2.3,5.2,4.8,6.9c2,1.4,4.2,2.5,4.2,5.5C34.6,27.8,26.3,27.9,17.9,27.3z"/>
    <path style="fill:#F66C24;" d="M105.9,27.3c-8.3,0.5-16.6,0.6-24.9,0c0.4-2.5-1.2-3.9-2.6-5.5c-1.9-2.2-5-3.5-5.4-6.8
        c8,0,16,0,24,0c0.6,3.4,3.3,5,5.7,6.8C104.7,23.2,105.8,24.9,105.9,27.3z"/>
    <path style="fill:#F5561B;" d="M42.9,27.3c0-2.9-2.2-4.1-4.2-5.5c-2.5-1.7-4.4-3.8-4.8-6.9c7-0.5,14-0.4,21,0
        c-0.4,3,1.9,4.4,3.6,6.1c1.7,1.8,3.9,3.2,3.3,6.2C55.6,27.9,49.3,27.9,42.9,27.3z"/>
    <path style="fill:#F55F20;" d="M61.9,27.3c0.6-3-1.7-4.5-3.3-6.2c-1.7-1.8-4-3.1-3.6-6.1c6-0.4,12-0.4,18,0
        c0.4,3.3,3.5,4.7,5.4,6.8c1.5,1.6,3,3.1,2.6,5.5C74.6,27.8,68.3,27.9,61.9,27.3z"/>
    <path style="fill:#F7792B;" d="M105.9,27.3c-0.1-2.4-1.2-4.1-3.2-5.6c-2.4-1.8-5.2-3.4-5.7-6.8c9.7-0.4,19.3-0.4,29,0
        c0,0.3,0,0.7,0,1c-4.6,3.7-9.1,7.4-13.8,11C110.3,28.3,108,27.8,105.9,27.3z"/>
    <path style="fill:#F34A17;" d="M92,80.5c0,4.1-0.1,8.3-0.1,12.4c-3.8-0.7-5.5-4.1-7.9-6.4C78,80.7,72.2,74.6,66.3,68.7
        c-0.9-0.9-1.4-1.8-1.2-3.1C74.3,70.2,83.2,75.2,92,80.5z"/>
    <path style="fill:#F77E3F;" d="M187.1,98.9c-3.4-0.4-4.7-3.4-6.9-5.3c-1.6-1.5-3.1-3.1-5.5-2.7c-1.4-3.9-0.1-6.6,3.3-8.8
        c3-2,5.8-4.4,9.7-7.4C187.3,83.4,188.1,91.1,187.1,98.9z"/>
    <path style="fill:#F12C09;" d="M114.9,82.2c-4.7-2.1-6.8-7.1-11.2-9.5c3.1-2.9,6.3-5.8,10.1-7.9c4.7,2,8,5.5,10.2,10
        C120.9,77.3,117.9,79.8,114.9,82.2z"/>
    <path style="fill:#F5561B;" d="M154.8,32.6c1.9,4.2,7.1,5.7,8.2,10.5c-3.4,3.3-7,6.4-11,8.9c-0.2-1.8-1.2-3.3-2.2-4.8
        c-1.7-2.4-5-3.1-6.1-6C147.4,38.4,151.1,35.5,154.8,32.6z"/>
    <path style="fill:#F34A17;" d="M143.7,41.3c1.1,2.9,4.5,3.6,6.1,6c1,1.5,2,2.9,2.2,4.8c-3.6,2.2-6,6-9.9,7.9
        c-2.8-3.6-5.6-7.2-8.4-10.8C136.7,46.2,140.1,43.5,143.7,41.3z"/>
    <path style="fill:#F77E3F;" d="M126,16c0-0.3,0-0.7,0-1c0.2,0.1,0.5,0.2,0.7,0.3C126.4,15.5,126.2,15.7,126,16z"/>
</g>
</svg>
