<svg version="1.1" id="Layer_1" xmlns="http://www.w3.org/2000/svg" x="0" y="0" viewBox="0 0 200 200" xml:space="preserve"><g id="Logo" transform="translate(100 100)"><path id="Board" d="M-75-100c-13.8 0-25 11.2-25 25V75c0 13.8 11.2 25 25 25H75c13.8 0 25-11.2 25-25V-75c0-13.8-11.2-25-25-25H-75zM25-74c-6.6 0-12 5.4-12 12V1.5c0 6.6 5.4 12 12 12h37c6.6 0 12-5.4 12-12V-62c0-6.6-5.4-12-12-12H25zm-87 0c-6.6 0-12 5.4-12 12V51.5c0 6.6 5.4 12 12 12h37c6.6 0 12-5.4 12-12V-62c0-6.6-5.4-12-12-12h-37z" fill-rule="evenodd" clip-rule="evenodd" fill="#0079bf"/></g></svg>