<svg xmlns="http://www.w3.org/2000/svg" viewBox="0 0 61.5 72.1" style="enable-background:new 0 0 61.5 72.1" xml:space="preserve"><path style="fill-rule:evenodd;clip-rule:evenodd;fill:#ffab00" d="M61.5 10.6C54.8 3.8 45.6 0 36 0 16.1 0 0 16.1 0 36s16.1 36 36 36c9.6 0 18.7-3.8 25.5-10.6l-7.6-7.6c-4.7 4.7-11.1 7.4-17.8 7.4-14 .1-25.3-11.2-25.3-25.2S22.1 10.8 36 10.8c6.7 0 13.1 2.7 17.8 7.4.1 0 7.7-7.6 7.7-7.6z"/><path style="fill-rule:evenodd;clip-rule:evenodd;fill:#ffc400" d="M10.6 61.5c6.8 6.8 15.9 10.6 25.5 10.6s18.7-3.8 25.5-10.6L54 53.9c-4.7 4.7-11.1 7.4-17.8 7.4s-13.1-2.7-17.8-7.4c-.2 0-7.8 7.6-7.8 7.6z"/><circle style="fill-rule:evenodd;clip-rule:evenodd;fill:#ffab00" cx="25.2" cy="36" r="5.4"/><circle style="fill-rule:evenodd;clip-rule:evenodd;fill:#ffab00" cx="46.9" cy="36" r="5.4"/></svg>