<svg xmlns="http://www.w3.org/2000/svg" viewBox="0 0 32 32" style="enable-background:new 0 0 32 32" xml:space="preserve"><path style="opacity:.5;fill:#0074bf;enable-background:new" d="M24 28h-4v4h4v-4z"/><path style="opacity:.7;fill:#0074bf;enable-background:new" d="M20 28h-4v4h4v-4zm-4 0h-4v4h4v-4z"/><path style="opacity:.5;fill:#0074bf;enable-background:new" d="M12 28H8v4h4v-4z"/><path style="opacity:.7;fill:#0082bf;enable-background:new" d="M28 24h-4v4h4v-4z"/><path style="opacity:.8;fill:#0082bf;enable-background:new" d="M24 24h-4v4h4v-4z"/><path style="fill:#0082bf" d="M20 24h-4v4h4v-4zm-4 0h-4v4h4v-4z"/><path style="opacity:.8;fill:#0082bf;enable-background:new" d="M12 24H8v4h4v-4z"/><path style="opacity:.7;fill:#0082bf;enable-background:new" d="M8 24H4v4h4v-4z"/><path style="opacity:.5;fill:#008fbf;enable-background:new" d="M32 20h-4v4h4v-4z"/><path style="opacity:.8;fill:#008fbf;enable-background:new" d="M28 20h-4v4h4v-4z"/><path style="fill:#008fbf" d="M24 20h-4v4h4v-4zm-4 0h-4v4h4v-4zm-4 0h-4v4h4v-4zm-4 0H8v4h4v-4z"/><path style="opacity:.8;fill:#008fbf;enable-background:new" d="M8 20H4v4h4v-4z"/><path style="opacity:.5;fill:#008fbf;enable-background:new" d="M4 20H0v4h4v-4z"/><path style="opacity:.7;fill:#009dbf;enable-background:new" d="M32 16h-4v4h4v-4z"/><path style="fill:#009dbf" d="M28 16h-4v4h4v-4zm-4 0h-4v4h4v-4zm-4 0h-4v4h4v-4zm-4 0h-4v4h4v-4zm-4 0H8v4h4v-4zm-4 0H4v4h4v-4z"/><path style="opacity:.7;fill:#009dbf;enable-background:new" d="M4 16H0v4h4v-4z"/><path style="opacity:.7;fill:#00abbf;enable-background:new" d="M32 12h-4v4h4v-4z"/><path style="fill:#00abbf" d="M28 12h-4v4h4v-4zm-4 0h-4v4h4v-4zm-4 0h-4v4h4v-4zm-4 0h-4v4h4v-4zm-4 0H8v4h4v-4zm-4 0H4v4h4v-4z"/><path style="opacity:.7;fill:#00abbf;enable-background:new" d="M4 12H0v4h4v-4z"/><path style="opacity:.5;fill:#00b9bf;enable-background:new" d="M32 8h-4v4h4V8z"/><path style="opacity:.8;fill:#00b9bf;enable-background:new" d="M28 8h-4v4h4V8z"/><path style="fill:#00b9bf" d="M24 8h-4v4h4V8zm-4 0h-4v4h4V8zm-4 0h-4v4h4V8zm-4 0H8v4h4V8z"/><path style="opacity:.8;fill:#00b9bf;enable-background:new" d="M8 8H4v4h4V8z"/><path style="opacity:.5;fill:#00b9bf;enable-background:new" d="M4 8H0v4h4V8z"/><path style="opacity:.7;fill:#00c6bf;enable-background:new" d="M28 4h-4v4h4V4z"/><path style="opacity:.8;fill:#00c6bf;enable-background:new" d="M24 4h-4v4h4V4z"/><path style="fill:#00c6bf" d="M20 4h-4v4h4V4zm-4 0h-4v4h4V4z"/><path style="opacity:.8;fill:#00c6bf;enable-background:new" d="M12 4H8v4h4V4z"/><path style="opacity:.7;fill:#00c6bf;enable-background:new" d="M8 4H4v4h4V4z"/><path style="opacity:.5;fill:#00d4bf;enable-background:new" d="M24 0h-4v4h4V0z"/><path style="opacity:.7;fill:#00d4bf;enable-background:new" d="M20 0h-4v4h4V0zm-4 0h-4v4h4V0z"/><path style="opacity:.5;fill:#00d4bf;enable-background:new" d="M12 0H8v4h4V0z"/><path style="fill:#fff" d="m10.5 15 1.1-2.5c.4-.6.4-1.4-.1-1.9l-.2-.2c-.3-.2-.7-.2-1-.1-.4.1-.7.4-.9.7 0 0-1.5 3.6-2.1 5.2S7 20.8 9.2 23c2.3 2.3 5.7 2.9 7.9 1.3.1 0 .2-.1.3-.2l6.6-5.6c.3-.3.8-.8.4-1.4s-1.2-.2-1.5 0l-3.8 2.8c-.1.1-.2.1-.2 0-.1-.1-.1-.4 0-.6l5.9-5c.5-.5.6-1.1.2-1.6-.4-.4-1-.4-1.5 0l-5.3 4.1c-.1.1-.3.1-.3 0-.1-.1-.1-.3 0-.4l6-5.8c.5-.4.5-1.2.1-1.7-.2-.2-.5-.4-.8-.4s-.6.1-.8.3l-6.1 5.7c-.1.1-.4 0-.5-.2 0-.1 0-.1.1-.2L20.1 9c.5-.4.5-1.2.1-1.6-.4-.5-1.2-.5-1.6-.1l-.1.1-7.1 7.9c-.3.3-.6.3-.8.1-.2-.2-.2-.3-.1-.4z"/></svg>