<svg height="40" width="40" xml:space="preserve" xmlns="http://www.w3.org/2000/svg"><path fill="#efa517" d="m26.075 20.483-3.046 5.522h-6.091l-3.045-5.522 3.045-5.491h6.091l3.046 5.491zM15.993 14.48l-3.045-5.491H6.857L3.812 14.48l3.046 5.522h6.091l3.044-5.522zm0 12.034-3.045-5.523H6.857l-3.046 5.523 3.046 5.46h6.091l3.045-5.429v-.031zM36.16 14.512 33.114 8.99h-6.09l-3.046 5.522 3.046 5.46h6.09l3.046-5.46zm0 12.002-3.046-5.523h-6.09l-3.046 5.523 3.046 5.46h6.09l3.046-5.46zm-10.085 6.064-3.046 5.43h-6.091l-3.045-5.43 3.045-5.585h6.091l3.046 5.585zm0-24.128-3.046 5.554h-6.091L13.894 8.45l3.045-5.46h6.091l3.045 5.46z"/></svg>