<svg xmlns="http://www.w3.org/2000/svg" viewBox="0 0 358 358" xml:space="preserve" style="fill-rule:evenodd;clip-rule:evenodd;stroke-linejoin:round;stroke-miterlimit:2"><path d="M1775 3928c-323-146-838-267-1284-302l-92-7v-885c0-561 4-915 11-967 28-204 110-416 233-601 136-205 338-406 580-580 178-127 452-281 613-344l56-22 96 38c258 103 582 300 779 472 350 307 544 635 598 1008 13 85 16 273 16 995v890h-39c-22 0-120 9-218 21-422 50-822 152-1123 285-64 28-116 50-116 50 0-1-50-24-110-51Z" style="fill:#ffe9ae;fill-rule:nonzero" transform="matrix(.09058 0 0 -.09058 7.808 369.168)"/><path d="M1775 3928c-323-146-838-267-1284-302l-92-7v-885c0-561 4-915 11-967 28-204 110-416 233-601 136-205 338-406 580-580 178-127 452-281 613-344l56-22 96 38c258 103 582 300 779 472 350 307 544 635 598 1008 13 85 16 273 16 995v890h-39c-22 0-120 9-218 21-422 50-822 152-1123 285-64 28-116 50-116 50 0-1-50-24-110-51Zm250-321.26c277-111 595.18-194.56 984.18-249.56l106.7-18.31-4-739.87c-3-830-23.23-853.82-46.23-941.82-91.49-350.02-359.88-705.977-790.65-960.993-125-74-354-185-381-184-53 0-412 119.813-578 241.813-414 305-647 634-712 1004-13 78-16 218-16 887v795l171 24c393 56 741.39 77.75 1016.39 190.75 66 27 113.61 4.99 119.61 2.99s64-25 130-51Z" style="fill:#333f4c;fill-rule:nonzero" transform="matrix(.09524 0 0 -.09524 -1.02 378.925)"/><path d="M1898 3591c-8 0-.18-2970.722 1.82-2972.722 7-7 185.18 65.722 310.18 140.722 166 98 320 217 441 338 186 187 288 355 355 583 22 77 23 94 26 852l3 773-60 7c-282 32-797 163-1015 257-28 12-56 22-62 22Z" style="fill:#333f4c;fill-rule:nonzero" transform="matrix(-.11425 0 0 -.1132 396.043 415.736)"/></svg>