<svg xmlns="http://www.w3.org/2000/svg" viewBox="0 0 48.2 21.8" style="enable-background:new 0 0 48.2 21.8" xml:space="preserve"><path style="fill:#fff" d="m43.7 10.6-5.6-1.3-1-.4-25.7.2v12.4l32.3.1v-11z"/><path style="fill:#f48120" d="M33.2 20.4c.3-.9.2-1.8-.3-2.6-.5-.6-1.3-1-2.1-1.1l-17.4-.2c-.1 0-.2-.1-.3-.1-.1-.1-.1-.2 0-.3.1-.2.2-.3.4-.3l17.5-.2c2.3-.3 4.2-1.7 5.1-3.8l1-2.6c0-.1.1-.2 0-.3-1.4-6.1-7.5-10-13.6-8.6-3.9.9-7 3.7-8.3 7.4-1-.7-2.3-1.1-3.6-1C9.2 7 7.3 8.9 7 11.3c-.1.6 0 1.2.1 1.8-4 .1-7.1 3.3-7.1 7.3 0 .4 0 .7.1 1.1 0 .2.1.3.3.3h32.1c.2 0 .4-.1.4-.3l.3-1.1z"/><path style="fill:#faad3f" d="M38.7 9.2h-.5c-.1 0-.2.1-.3.2l-.7 2.4c-.3.9-.2 1.8.3 2.6.5.6 1.3 1 2.1 1.1l3.7.2c.1 0 .2.1.3.1.1.1.1.2 0 .3-.1.2-.2.3-.4.3l-3.8.2c-2.3.3-4.2 1.7-5.1 3.8l-.2.9c-.1.1 0 .3.2.3h13.2c.1 0 .3-.1.3-.2v-.1c.2-.8.4-1.7.4-2.6 0-5.2-4.3-9.5-9.5-9.5"/></svg>