<svg version="1.1" id="Layer_1" xmlns="http://www.w3.org/2000/svg" x="0" y="0" viewBox="0 0 60.8 60.8" xml:space="preserve" enable-background="new 0 0 60.8 60.8"><defs><filter id="Adobe_OpacityMaskFilter" filterUnits="userSpaceOnUse" x="3.5" y="10.5" width="53.8" height="39.8"><feColorMatrix values="1 0 0 0 0 0 1 0 0 0 0 0 1 0 0 0 0 0 1 0"/></filter></defs><mask maskUnits="userSpaceOnUse" x="3.5" y="10.5" width="53.8" height="39.8" id="mask-2_6_"><g filter="url(#Adobe_OpacityMaskFilter)"><path id="path-1_6_" fill-rule="evenodd" clip-rule="evenodd" fill="#fff" d="M248.1 30.4v20H3.5v-40h244.6z"/></g></mask><path id="Fill-10" d="M55.9 15.3c3.8 5.4-1.3 15.7-2.5 17.9-8.5 14.9-31.1 22.2-42.7 13.2C6.3 43 2.4 36.4 3.8 30 7.5 13 48.4 4.6 55.9 15.3" mask="url(#mask-2_6_)" fill-rule="evenodd" clip-rule="evenodd" fill="#1a7a3f"/><defs><filter id="Adobe_OpacityMaskFilter_1_" filterUnits="userSpaceOnUse" x="4.6" y="11.4" width="50.7" height="24.5"><feColorMatrix values="1 0 0 0 0 0 1 0 0 0 0 0 1 0 0 0 0 0 1 0"/></filter></defs><mask maskUnits="userSpaceOnUse" x="4.6" y="11.4" width="50.7" height="24.5" id="mask-2_5_"><g filter="url(#Adobe_OpacityMaskFilter_1_)"><path id="path-1_5_" fill-rule="evenodd" clip-rule="evenodd" fill="#fff" d="M248.1 30.4v20H3.5v-40h244.6z"/></g></mask><path id="Fill-11" d="M4.8 30.9c1.6 5.4 14.1 6.6 28 2.6 13.9-4 23.9-11.7 22.3-17.1-1.6-5.4-14.1-6.6-28-2.6-13.9 4-23.9 11.6-22.3 17.1" mask="url(#mask-2_5_)" fill-rule="evenodd" clip-rule="evenodd" fill="#9ec740"/><defs><filter id="Adobe_OpacityMaskFilter_2_" filterUnits="userSpaceOnUse" x="3.7" y="10.4" width="52.6" height="26.4"><feColorMatrix values="1 0 0 0 0 0 1 0 0 0 0 0 1 0 0 0 0 0 1 0"/></filter></defs><mask maskUnits="userSpaceOnUse" x="3.7" y="10.4" width="52.6" height="26.4" id="mask-2_4_"><g filter="url(#Adobe_OpacityMaskFilter_2_)"><path id="path-1_4_" fill-rule="evenodd" clip-rule="evenodd" fill="#fff" d="M248.1 30.4v20H3.5v-40h244.6z"/></g></mask><path id="Fill-12" d="M42.5 12.4c-4.6 0-9.8.8-15.2 2.3-6.6 1.9-12.5 4.7-16.6 7.9-3.8 2.9-5.7 5.9-5 8.1 1.3 4.2 12.3 6 26.8 1.9C47 28.4 55.4 21 54.2 16.6c-.6-2.2-3.7-3.7-8.5-4.1-1-.1-2.1-.1-3.2-.1zM17.4 36.8c-7.3 0-12.5-2-13.6-5.7C3 28.1 5 24.5 9.6 21c4.3-3.3 10.5-6.2 17.3-8.2 6.8-2 13.6-2.8 19-2.3 5.7.5 9.3 2.5 10.2 5.5 1.7 6.1-8.4 14.1-23 18.3-5.7 1.8-11.1 2.5-15.7 2.5z" mask="url(#mask-2_4_)" fill-rule="evenodd" clip-rule="evenodd" fill="#1a7a3f"/><path id="Fill-14" d="M16.4 27.3c.8 2.6 7.3 3 14.7.9 7.4-2.1 12.7-6 12-8.6-.8-2.6-7.3-3-14.7-.9-7.4 2.1-12.7 5.9-12 8.6" fill-rule="evenodd" clip-rule="evenodd" fill="#f0ef9e"/><path id="Fill-15" fill-rule="evenodd" clip-rule="evenodd" fill="#9ec740" d="M27.8 30.8h7.5l-7.5 11.8-7.5-11.8h7.5"/></svg>