<svg version="1.1" id="Layer_1" xmlns="http://www.w3.org/2000/svg" x="0" y="0" viewBox="0 0 47.4 32" xml:space="preserve"><linearGradient id="SVGID_1_" gradientUnits="userSpaceOnUse" x1="122.155" y1="-531.544" x2="122.155" y2="-486.29" gradientTransform="matrix(.7071 0 0 -.7071 -62.66 -343.855)"><stop offset="0" stop-color="#efc119"/><stop offset=".331" stop-color="#92c84e"/><stop offset=".486" stop-color="#71bf5b"/><stop offset=".751" stop-color="#15b158"/><stop offset=".903" stop-color="#23ac69"/><stop offset="1" stop-color="#23ac69"/></linearGradient><path d="M1 14.5L22.2.4c.9-.5 2.1-.5 3 0l21.3 14.1c.8.4 1.2 1.4.8 2.3-.2.3-.4.6-.8.8l-2.9 1.9c-7-11-21.5-14.3-32.5-7.3-2.9 1.9-5.4 4.4-7.3 7.3L.9 17.6c-.8-.4-1.2-1.5-.7-2.3.2-.4.4-.6.8-.8zm22.7-.2c-6.1 0-11.8 3.2-15 8.3l4.9 3.3c3.4-5.6 10.6-7.4 16.2-4 1.6 1 3 2.4 4 4l4.9-3.3c-3.2-5.1-8.9-8.3-15-8.3zm0 11.8c-2.2 0-4.1 1.2-5.2 3.1l3.3 2.1c.5.5 1.2.7 1.9.7s1.4-.2 1.9-.7l3.3-2.1c-1.1-1.9-3-3.1-5.2-3.1z" fill="url(#SVGID_1_)"/></svg>