<svg version="1.1" id="Layer_1" xmlns="http://www.w3.org/2000/svg" x="0" y="0" viewBox="0 0 20.1 27.9" xml:space="preserve"><g id="Logo_x2F_Light" fill-rule="evenodd" clip-rule="evenodd"><path id="logo" d="M6.1 5v3.2c0 1.5.9 2.6 2.9 3l3.7.7c4.8.9 7.4 4.1 7.4 7.8 0 4.1-3.4 8.2-9.6 8.2-7 0-10.7-4.7-10.5-9.5h4.8c.2 2.6 2.1 5.1 5.8 5.1 2.8 0 4.5-1.6 4.5-3.4 0-1.5-1.3-2.9-3.4-3.3L8 16c-4.2-.9-6.8-3.4-6.8-7.4V5h4.9z" fill="#343f53"/><path id="arrow" d="M10 0h10v10h-5V5h-5V0z" fill="#e43958"/></g></svg>