<svg version="1.1" id="Layer_1" xmlns="http://www.w3.org/2000/svg" x="0" y="0" viewBox="0 0 51.4 24.8" xml:space="preserve"><g id="Page-1"><g id="Home" transform="translate(-100 -58)"><g id="header" transform="translate(100 57)"><g id="wizehive-logo-rectangle"><path id="Path" fill="#4e4a4b" d="M20.1 25.8l-4.7-13.2-4.6 13.2H6.7L0 8h4.1l4.7 14 4.6-14h4.1l4.6 14 4.7-14h4l-6.7 17.8z"/><path id="Path_2_" d="M51.4 14.4v11.4h-6V16c.1-.9-.2-1.8-.8-2.4s-1.5-1-2.5-1c-1.1 0-2.2.5-2.9 1.3-.7.8-1.1 1.9-.9 3v8.9h-5.8V1h5.8v9.8c1.3-2.1 3.7-3.4 6.2-3.2 1.9-.1 3.7.6 5 2 1.4 1.2 2.1 3 1.9 4.8" fill="#316cb2"/></g></g></g></g></svg>