<svg xmlns="http://www.w3.org/2000/svg" width="180" height="180" style="overflow:visible;enable-background:new 0 0 180 180" xml:space="preserve"><path style="fill:#fefdfd" d="M89.7 179.9H3.8c-2.5 0-3.8.1-3.8-3.4C.2 118.8.1 61 0 3.3 0 .3.8 0 3.4 0 61.2.1 119 .1 176.7 0c2.9 0 3.2.8 3.2 3.4-.1 57.8-.1 115.6 0 173.4 0 2.9-.8 3.3-3.4 3.2-28.9-.1-57.8-.1-86.8-.1zM68.1 50.7c-5.3.1-10.1 2.9-13.4 8.2-5.1 8.2-10.2 16.3-15.3 24.5-4.7 7.5-9.5 14.8-13.9 22.4-4.5 7.8-1.9 17.3 5.4 21.9 7.2 4.6 17.2 3.2 21.8-3.9 10.6-16.3 21.1-32.7 30.9-49.4 6.1-10.7-2.2-23.7-15.5-23.7zm22.2 79.5c5.6.2 10.3-2 13.2-6.6 10.3-16.1 20.5-32.2 30.4-48.6 4.6-7.6 2-16.8-5.1-21.5-7.2-4.8-17.3-3.5-22.2 3.9C95.9 73.6 85.5 90 75.7 106.8c-6.2 10.6 2.2 23.4 14.6 23.4zm50.6.1c9.1 0 16.3-7 16.4-15.9.1-8.7-7.3-16-16.3-16.1-9.3-.1-16.7 7.1-16.6 16.2.1 8.9 7.3 15.8 16.5 15.8z"/><path style="fill:#f82054" d="M68.1 50.7c13.3.1 21.6 13.1 15.4 23.7-9.8 16.8-20.3 33.2-30.9 49.4-4.6 7.1-14.6 8.5-21.8 3.9-7.3-4.6-9.9-14.1-5.4-21.9 4.4-7.6 9.3-15 13.9-22.4 5.1-8.2 10.2-16.3 15.3-24.5 3.4-5.4 8.2-8.1 13.5-8.2z"/><path style="fill:#fecc04" d="M90.3 130.2c-12.4 0-20.8-12.8-14.6-23.5 9.7-16.8 20.2-33.2 30.9-49.4 4.9-7.4 14.9-8.7 22.2-3.9 7.1 4.7 9.7 14 5.1 21.5-9.9 16.4-20.1 32.5-30.4 48.6-2.9 4.6-7.6 6.8-13.2 6.7z"/><path style="fill:#06cc72" d="M140.9 130.3c-9.2 0-16.4-6.9-16.5-15.8-.1-9.1 7.3-16.3 16.6-16.2 9 .1 16.4 7.4 16.3 16.1-.1 8.9-7.3 15.9-16.4 15.9z"/></svg>