<svg xmlns="http://www.w3.org/2000/svg" viewBox="0 0 53.1 33.9" style="enable-background:new 0 0 53.1 33.9" xml:space="preserve"><path style="fill:#1999e3" d="M53.1 22.1c0 3.2-1.4 6.3-3.7 8.5-.2.1-.4.1-.6 0-.9-.8-1.9-1.5-3-1.9-.7-.3-1.8-.4-1.8-1.4 0-.2.1-.4.2-.6v-.1c.9-1.3 1.5-2.8 1.7-4.4.1-.4.1-.8.1-1.3-.1-2.3-2-4.1-4.4-4.1-2.3 0-4.2 1.8-4.4 4.1 0 .4.1.8.1 1.3.2 1.6.8 3.1 1.7 4.4v.1c.1.2.2.4.2.6 0 .9-1 1-1.7 1.3-.1 0-.2.2-.2.3 0 .1 0 .3.1.4.3.3.5.6.8 1 .8 1 1.4 2.1 1.9 3.2v.2c0 .2-.1.4-.3.4h-.1c-.1 0-.2 0-.3-.1-2.4-2.5-5-4.4-8.3-5.4-.1 0-.2-.1-.2-.1l-.1-.1c-.8-.5-.9-1.5-.5-2.3.6-1.1 1.3-2.2 1.8-3.4 1.3-3.1 2-6.9-.1-9.8-1.3-1.8-3.5-2.9-5.7-2.9-2.3 0-4.4 1.1-5.7 2.9-2.1 2.9-1.3 6.7-.1 9.8.5 1.2 1.2 2.2 1.8 3.4.4.8.3 1.8-.5 2.3l-.1.1c-.1 0-.1.1-.2.1-3.3 1-5.9 2.9-8.3 5.4-.1.1-.2.1-.3.1h-.1c-.2 0-.3-.2-.3-.4v-.2c.5-1.1 1.2-2.2 1.9-3.2.2-.3.5-.6.8-1 .1-.1.1-.2.1-.4 0-.1-.1-.2-.2-.3-.7-.3-1.7-.4-1.7-1.3 0-.2.1-.4.2-.6v-.1c.9-1.3 1.5-2.8 1.7-4.4.1-.4.1-.8.1-1.3-.1-2.3-2-4.1-4.4-4.1-2.3 0-4.2 1.8-4.4 4.1 0 .4.1.8.1 1.3.2 1.6.8 3.1 1.7 4.4v.1c.1.2.2.4.2.6 0 1-1.1 1.1-1.8 1.4-1.1.4-2.2 1.1-3 1.9-.2.1-.4.2-.6 0-3.3-3-4.6-7.7-3.2-12 1.4-4.3 5.2-7.3 9.7-7.8.1 0 .3-.1.3-.2C13.3 4.1 19.6 0 26.5 0s13.2 4.1 15.9 10.5c.1.1.2.2.3.2 5.9.6 10.4 5.5 10.4 11.4"/></svg>