<?xml version="1.0" encoding="utf-8"?>
<!-- Generator: Adobe Illustrator 24.2.1, SVG Export Plug-In . SVG Version: 6.00 Build 0)  -->
<svg version="1.1" id="Layer_1" xmlns="http://www.w3.org/2000/svg" xmlns:xlink="http://www.w3.org/1999/xlink" x="0px" y="0px"
     viewBox="0 0 179.9 179.9" style="enable-background:new 0 0 179.9 179.9;" xml:space="preserve">
<g>
    <circle style="fill:#C65048;" cx="90" cy="90" r="90"/>
    <path style="fill:#FFFFFF;" d="M93.7,37.2C73.5,47,66.1,71.4,77.3,92.1c1.5,2.7,0.9,4-1.1,5.8c-1.9,1.7-3.2,2.1-4.8-0.2
        c-1.5-2.2-2.8-0.7-4,0.4c-11.8,10.8-23.6,21.5-35.4,32.3c-1.8,1.6-2.4,2.8-0.4,4.8c3.2,3.2,6.2,6.5,9.1,10c1.6,1.8,2.7,1.8,4.4,0.2
        c11.9-10.9,23.8-21.8,35.7-32.7c1.1-1,2.6-2.1,0.9-3.6c-2.6-2.3-1.2-3.7,0.6-5.6c2.4-2.6,4-0.8,5.9,0.5c12.8,8.6,26.4,10,40.2,3
        c13.9-7.1,20.8-19.1,21.2-30.3C149.6,43.4,119.8,24.7,93.7,37.2z M111.7,99.6C96.9,100.3,84,88.1,83.6,73.1
        c-0.4-15.3,11.8-28,27.7-28.1c0.6,0,2,0.1,3.3,0.3c7,1,7.3,1.5,3.8,7.6c-1.4,2.5-1,3.7,1.4,5c3,1.6,5.4,4.2,6.4,7.4
        c1.2,3.7,2.9,3.4,5.8,2c5.2-2.7,5.5-2.4,5.9,3.5C139,85.8,127,99,111.7,99.6z"/>
</g>
</svg>

