<?xml version="1.0" encoding="utf-8"?>
<!-- Generator: Adobe Illustrator 24.2.1, SVG Export Plug-In . SVG Version: 6.00 Build 0)  -->
<svg version="1.1" id="places_illustration" xmlns="http://www.w3.org/2000/svg" xmlns:xlink="http://www.w3.org/1999/xlink"
     x="0px" y="0px" viewBox="0 0 73.2 126.3" style="enable-background:new 0 0 73.2 126.3;" xml:space="preserve">
<g id="pin">
    <g>
        <path style="fill-rule:evenodd;clip-rule:evenodd;fill:#E6D2FC;" d="M70.4,36.3c0,18.5-33.8,84-33.8,84S2.8,54.9,2.8,36.3
            c0-18.5,15.1-33.6,33.8-33.6S70.4,17.8,70.4,36.3z"/>
        <path style="fill:#8962B2;" d="M36.6,126.3l-2.5-4.7C32.7,118.9,0,55.3,0,36.4C0,16.3,16.4,0,36.6,0c20.2,0,36.6,16.3,36.6,36.4
            c0,19-32.7,82.5-34.1,85.2L36.6,126.3z M36.6,5.5C19.5,5.5,5.5,19.4,5.5,36.4c0,5,2.9,17.4,16.7,47.8
            c5.6,12.4,11.3,23.9,14.4,30.1c3.1-6.2,8.8-17.7,14.4-30.1c13.8-30.4,16.7-42.8,16.7-47.8C67.7,19.4,53.7,5.5,36.6,5.5z"/>
    </g>
    <g>
        <path style="fill-rule:evenodd;clip-rule:evenodd;fill:#FFFFFF;" d="M36.6,51.2c-8,0-14.5-6.5-14.5-14.5c0-8,6.5-14.5,14.5-14.5
            s14.5,6.5,14.5,14.5C51.1,44.7,44.6,51.2,36.6,51.2z"/>
        <path style="fill:#8962B2;" d="M36.6,52.5c-8.8,0-15.9-7.1-15.9-15.9s7.1-15.9,15.9-15.9c8.8,0,15.9,7.1,15.9,15.9
            S45.3,52.5,36.6,52.5z M36.6,23.5c-7.2,0-13.1,5.9-13.1,13.1s5.9,13.1,13.1,13.1c7.2,0,13.1-5.9,13.1-13.1S43.8,23.5,36.6,23.5z"
            />
    </g>
</g>
</svg>
