<?xml version="1.0" encoding="utf-8"?>
<!-- Generator: Adobe Illustrator 24.2.1, SVG Export Plug-In . SVG Version: 6.00 Build 0)  -->
<svg version="1.1" id="Layer_1" xmlns="http://www.w3.org/2000/svg" xmlns:xlink="http://www.w3.org/1999/xlink" x="0px" y="0px"
	 viewBox="0 0 49 33.7" style="enable-background:new 0 0 49 33.7;" xml:space="preserve">
<desc>Created with Sketch.</desc>
<path id="path18" style="fill:#409CE3;" d="M21.3,0.4c2.3-0.5,4.1-0.5,6.2,0c5.3,1.1,9.6,5.4,11,10.6c0.5,1.8,0.5,3.6,0.4,5.4
	c2.2-0.3,4.4,0.2,6.2,1.4c2.5,1.6,4.1,4.7,3.9,7.7c-0.1,4.4-4.4,8.3-8.8,8.2H13c-1.8,0-3.3,0.1-5-0.5c-3.3-1.1-6.1-3.7-7.3-7
	c-0.9-2.1-0.7-4.4-0.5-6.5c0.8-5.1,5.3-9.1,10.3-9.6C12.1,5.3,16.3,1.4,21.3,0.4L21.3,0.4z M14.8,10.9c2.9,0.5,5.4,2.3,8.2,3.5
	c-0.5,0.8-1.2,3-1.6,3.8c-1.5-0.8-3.1-1.5-4.6-2.4c-1.8-0.9-3.9-1.6-5.8-1.1c-3.6,0.8-6.7,3.8-6.3,7.5c0.2,4,4.5,6.8,8.5,6.8h25.5
	c2.1,0.1,4.8,0,5.9-1.9c0.8-1.9,1-4.2-1-6c-1.5-1.4-3.7-1.4-5.5-0.5c-0.5,1.4-1.3,2.3-2.3,3.4c-0.7-0.6-2.7-1.9-3.4-2.4
	c1.3-1.5,2.2-3.4,2.4-5.4c0.7-4.6-2.3-9.4-6.6-11C23.1,3.2,16.6,5.9,14.8,10.9z"/>
</svg>
