<?xml version="1.0" encoding="utf-8"?>
<!-- Generator: Adobe Illustrator 24.2.1, SVG Export Plug-In . SVG Version: 6.00 Build 0)  -->
<svg version="1.1" id="Layer_1" xmlns="http://www.w3.org/2000/svg" xmlns:xlink="http://www.w3.org/1999/xlink" x="0px" y="0px"
	 viewBox="0 0 60.8 60.8" style="enable-background:new 0 0 60.8 60.8;" xml:space="preserve">
<desc>Created with Sketch.</desc>
<defs>
	<filter id="Adobe_OpacityMaskFilter" filterUnits="userSpaceOnUse" x="3.5" y="10.5" width="53.8" height="39.8">
		<feColorMatrix  type="matrix" values="1 0 0 0 0  0 1 0 0 0  0 0 1 0 0  0 0 0 1 0"/>
	</filter>
</defs>
<mask maskUnits="userSpaceOnUse" x="3.5" y="10.5" width="53.8" height="39.8" id="mask-2_6_">
	<g style="filter:url(#Adobe_OpacityMaskFilter);">
		<polygon id="path-1_6_" style="fill-rule:evenodd;clip-rule:evenodd;fill:#FFFFFF;" points="248.1,30.4 248.1,50.4 3.5,50.4 
			3.5,10.4 248.1,10.4 		"/>
	</g>
</mask>
<path id="Fill-10" style="mask:url(#mask-2_6_);fill-rule:evenodd;clip-rule:evenodd;fill:#1A7A3F;" d="M55.9,15.3
	c3.8,5.4-1.3,15.7-2.5,17.9c-8.5,14.9-31.1,22.2-42.7,13.2c-4.4-3.4-8.3-10-6.9-16.4C7.5,13,48.4,4.6,55.9,15.3"/>
<defs>
	<filter id="Adobe_OpacityMaskFilter_1_" filterUnits="userSpaceOnUse" x="4.6" y="11.4" width="50.7" height="24.5">
		<feColorMatrix  type="matrix" values="1 0 0 0 0  0 1 0 0 0  0 0 1 0 0  0 0 0 1 0"/>
	</filter>
</defs>
<mask maskUnits="userSpaceOnUse" x="4.6" y="11.4" width="50.7" height="24.5" id="mask-2_5_">
	<g style="filter:url(#Adobe_OpacityMaskFilter_1_);">
		<polygon id="path-1_5_" style="fill-rule:evenodd;clip-rule:evenodd;fill:#FFFFFF;" points="248.1,30.4 248.1,50.4 3.5,50.4 
			3.5,10.4 248.1,10.4 		"/>
	</g>
</mask>
<path id="Fill-11" style="mask:url(#mask-2_5_);fill-rule:evenodd;clip-rule:evenodd;fill:#9EC740;" d="M4.8,30.9
	c1.6,5.4,14.1,6.6,28,2.6c13.9-4,23.9-11.7,22.3-17.1c-1.6-5.4-14.1-6.6-28-2.6C13.2,17.8,3.2,25.4,4.8,30.9"/>
<defs>
	<filter id="Adobe_OpacityMaskFilter_2_" filterUnits="userSpaceOnUse" x="3.7" y="10.4" width="52.6" height="26.4">
		<feColorMatrix  type="matrix" values="1 0 0 0 0  0 1 0 0 0  0 0 1 0 0  0 0 0 1 0"/>
	</filter>
</defs>
<mask maskUnits="userSpaceOnUse" x="3.7" y="10.4" width="52.6" height="26.4" id="mask-2_4_">
	<g style="filter:url(#Adobe_OpacityMaskFilter_2_);">
		<polygon id="path-1_4_" style="fill-rule:evenodd;clip-rule:evenodd;fill:#FFFFFF;" points="248.1,30.4 248.1,50.4 3.5,50.4 
			3.5,10.4 248.1,10.4 		"/>
	</g>
</mask>
<path id="Fill-12" style="mask:url(#mask-2_4_);fill-rule:evenodd;clip-rule:evenodd;fill:#1A7A3F;" d="M42.5,12.4
	c-4.6,0-9.8,0.8-15.2,2.3c-6.6,1.9-12.5,4.7-16.6,7.9c-3.8,2.9-5.7,5.9-5,8.1C7,34.9,18,36.7,32.5,32.6C47,28.4,55.4,21,54.2,16.6
	c-0.6-2.2-3.7-3.7-8.5-4.1C44.7,12.4,43.6,12.4,42.5,12.4z M17.4,36.8c-7.3,0-12.5-2-13.6-5.7C3,28.1,5,24.5,9.6,21
	c4.3-3.3,10.5-6.2,17.3-8.2c6.8-2,13.6-2.8,19-2.3c5.7,0.5,9.3,2.5,10.2,5.5c1.7,6.1-8.4,14.1-23,18.3C27.4,36.1,22,36.8,17.4,36.8
	L17.4,36.8z"/>
<path id="Fill-14" style="fill-rule:evenodd;clip-rule:evenodd;fill:#F0EF9E;" d="M16.4,27.3c0.8,2.6,7.3,3,14.7,0.9
	c7.4-2.1,12.7-6,12-8.6c-0.8-2.6-7.3-3-14.7-0.9C21,20.8,15.7,24.6,16.4,27.3"/>
<polyline id="Fill-15" style="fill-rule:evenodd;clip-rule:evenodd;fill:#9EC740;" points="27.8,30.8 35.3,30.8 27.8,42.6 
	20.3,30.8 27.8,30.8 "/>
</svg>
