<svg fill="none" height="48" viewBox="0 0 49 48" width="49" xmlns="http://www.w3.org/2000/svg"><g fill="#1f2e5c"><path d="m.15625 38.4625h5.98086v-3.7366h7.63109v3.7366h5.9809v-28.73105h-19.59285z"></path><path d="m30.214 1.72461c-.904 0-1.6398.73267-1.6398 1.6328 0 .90014.7358 1.63281 1.6398 1.63281.9039 0 1.6397-.73267 1.6397-1.63281 0-.90013-.7358-1.6328-1.6397-1.6328z"></path><path d="m30.214 9.25c-.904 0-1.6398.73267-1.6398 1.6328 0 .9001.7358 1.6328 1.6398 1.6328.9039 0 1.6397-.7327 1.6397-1.6328 0-.90013-.7358-1.6328-1.6397-1.6328z"></path><path d="m30.214 16.7754c-.904 0-1.6398.7327-1.6398 1.6328s.7358 1.6328 1.6398 1.6328c.9039 0 1.6397-.7327 1.6397-1.6328s-.7358-1.6328-1.6397-1.6328z"></path><path d="m37.92 1.72461c-.9039 0-1.6397.73267-1.6397 1.6328 0 .90014.7358 1.63281 1.6397 1.63281.904 0 1.6398-.73267 1.6398-1.63281 0-.90013-.7358-1.6328-1.6398-1.6328z"></path><path d="m37.921 9.25c-.904 0-1.6398.73267-1.6398 1.6328 0 .9001.7358 1.6328 1.6398 1.6328s1.6397-.7327 1.6397-1.6328c0-.90013-.7357-1.6328-1.6397-1.6328z"></path><path d="m37.921 16.7754c-.904 0-1.6398.7327-1.6398 1.6328s.7358 1.6328 1.6398 1.6328 1.6397-.7327 1.6397-1.6328-.7357-1.6328-1.6397-1.6328z"></path><path d="m45.4903 1.72461c-.9039 0-1.6397.73267-1.6397 1.6328 0 .90014.7358 1.63281 1.6397 1.63281.904 0 1.6398-.73267 1.6398-1.63281.0105-.90013-.7253-1.6328-1.6398-1.6328z"></path><path d="m45.4913 9.25c-.904 0-1.6397.73267-1.6397 1.6328 0 .9001.7357 1.6328 1.6397 1.6328s1.6397-.7327 1.6397-1.6328c.0106-.90013-.7252-1.6328-1.6397-1.6328z"></path><path d="m45.4913 16.7754c-.904 0-1.6397.7327-1.6397 1.6328s.7357 1.6328 1.6397 1.6328 1.6397-.7327 1.6397-1.6328-.7252-1.6328-1.6397-1.6328z"></path></g><path clip-rule="evenodd" d="m.135525 38.0017c.126134-5.3903 4.624915-9.6607 10.038175-9.5351 5.4238.1256 9.7123 4.6053 9.5757 9.9957-.1262 5.3903-4.6249 9.6607-10.0382 9.5351-5.41325-.1256-9.70180898-4.6053-9.575675-9.9957zm6.532445 3.7265h6.55893v-6.5312h-6.55893z" fill="#e02179" fill-rule="evenodd"></path><path d="m19.6522 10.3122c.1266-5.44302-4.1186-9.957758-9.4821-10.083913-5.36347-.126154-9.814102 4.184053-9.940762 9.627113-.12666 5.4431 4.118612 9.9578 9.482082 10.084 5.36348.1261 9.81408-4.1841 9.94078-9.6272z" fill="#42bb9c"></path><path clip-rule="evenodd" d="m27.7891 26.6143v20.1274h20.2129v-20.1274zm16.1065 14.6004h-11.9933v-2.4911h11.9933zm-11.9933-6.5935h11.9933v-2.4911h-11.9933z" fill="#42bb9c" fill-rule="evenodd"></path></svg>