<?xml version="1.0" encoding="utf-8"?>
<!-- Generator: Adobe Illustrator 24.2.1, SVG Export Plug-In . SVG Version: 6.00 Build 0)  -->
<svg version="1.1" id="Layer_1" xmlns="http://www.w3.org/2000/svg" xmlns:xlink="http://www.w3.org/1999/xlink" x="0px" y="0px"
	 viewBox="0 0 34.1 34.1" style="enable-background:new 0 0 34.1 34.1;" xml:space="preserve">
<g>
	<path style="fill-rule:evenodd;clip-rule:evenodd;fill:#FFA800;" d="M17,34.1c-9.4,0-17-7.6-17-17S7.6,0,17,0h12.8
		c2.4,0,4.3,1.9,4.3,4.3c0,0,0,0,0,0V17C34.1,26.5,26.5,34.1,17,34.1"/>
	<path style="fill-rule:evenodd;clip-rule:evenodd;fill:#FFFFFF;" d="M20.6,11.9c0,1.9-1.5,3.4-3.4,3.4s-3.4-1.5-3.4-3.4
		s1.5-3.4,3.4-3.4S20.6,10,20.6,11.9 M9.7,16.4l5.9,5.9v3.3h2.9v-3.3l5.9-5.9L9.7,16.4z"/>
</g>
</svg>
