<?xml version="1.0" encoding="utf-8"?>
<!-- Generator: Adobe Illustrator 24.2.1, SVG Export Plug-In . SVG Version: 6.00 Build 0)  -->
<svg version="1.1" id="Layer_1" xmlns="http://www.w3.org/2000/svg" xmlns:xlink="http://www.w3.org/1999/xlink" x="0px" y="0px"
	 viewBox="0 0 34.1 34.1" style="enable-background:new 0 0 34.1 34.1;" xml:space="preserve">
<g>
	<path style="fill:#9B65C3;" d="M0.2,19.6c0.5,3.6,2.2,6.9,4.8,9.5l5.8-5.8c0-6.1,3.2-11.7,8.5-14.8L0.2,19.6z"/>
	<path style="fill:#9B65C3;" d="M10.8,23.3c-3,0-5.9-0.8-8.5-2.3c-0.7-0.4-1.4-0.9-2.1-1.4c0.5,3.6,2.2,6.9,4.8,9.5
		C5,29.1,10.8,23.3,10.8,23.3z"/>
	<path style="fill:#BE63C5;" d="M10.8,23.3L5,29.1c2.6,2.6,5.9,4.3,9.5,4.8l11-19.1C22.5,20,16.9,23.3,10.8,23.3z"/>
	<path style="fill:#BF63C6;" d="M13.1,31.8c-1.5-2.6-2.3-5.5-2.3-8.5L5,29.1c2.6,2.6,5.9,4.3,9.5,4.8C14,33.2,13.5,32.5,13.1,31.8z"
		/>
	<path style="fill:#3278B1;" d="M32.5,0.9L19.3,8.5c-5.3,3-11.7,3-17,0C0.8,11.1,0,14.1,0,17.1c0,0.8,0.1,1.7,0.2,2.5
		c0.7,0.5,1.4,1,2.1,1.4c2.6,1.5,5.5,2.3,8.5,2.3l22-22C32.7,1.2,32.6,1.1,32.5,0.9z"/>
	<path style="fill:#3278B2;" d="M2.3,21c2.6,1.5,5.5,2.3,8.5,2.3c0-6.1,3.2-11.7,8.5-14.8l-19.1,11C0.9,20.1,1.6,20.6,2.3,21z"/>
	<path style="fill:#45A4EC;" d="M2.3,8.5C0.8,11.1,0,14.1,0,17.1c0,0.8,0.1,1.7,0.2,2.5L19.3,8.5C14.1,11.6,7.6,11.6,2.3,8.5z"/>
	<path style="fill:#19BB7D;" d="M32.8,1.3C32.5,1,32.3,0.8,32,0.6C31.4,0.2,30.6,0,29.9,0H17C10.9,0,5.3,3.3,2.3,8.5
		c5.3,3,11.7,3,17,0c-5.3,3-8.5,8.7-8.5,14.8c6.1,0,11.7-3.2,14.8-8.5l7.6-13.2C33,1.5,32.9,1.4,32.8,1.3z"/>
	<path style="fill:#08C7FB;" d="M19.3,8.5l13.2-7.6c-0.2-0.1-0.3-0.3-0.5-0.4l-29.7,8C7.6,11.6,14.1,11.6,19.3,8.5z"/>
	<path style="fill:#59F2F6;" d="M29.8,0H17C10.9,0,5.3,3.3,2.3,8.5l29.7-8C31.3,0.2,30.6,0,29.8,0z"/>
	<path style="fill:#DA3757;" d="M25.6,14.8l7.6-13.2c-0.1-0.1-0.2-0.2-0.3-0.4l-22,22c0,3,0.8,5.9,2.3,8.5c0.4,0.7,0.9,1.4,1.4,2.1
		c0.8,0.1,1.6,0.2,2.4,0.2c3,0,5.9-0.8,8.5-2.3C22.5,26.5,22.5,20,25.6,14.8z"/>
	<path style="fill:#D33C4E;" d="M10.8,23.3c0,3,0.8,5.9,2.3,8.5c0.4,0.7,0.9,1.4,1.4,2.1l11-19.1C22.5,20,16.9,23.3,10.8,23.3z"/>
	<path style="fill:#EE5A24;" d="M25.6,14.8l-11,19.1c0.8,0.1,1.6,0.2,2.5,0.2c3,0,5.9-0.8,8.5-2.3C22.5,26.5,22.5,20,25.6,14.8z"/>
	<path style="fill:#8BDF55;" d="M33.5,2.1c-0.3-0.5-0.6-0.9-1-1.2L19.3,8.5c-5.3,3-8.5,8.7-8.5,14.8c6.1,0,11.7-3.2,14.8-8.5
		c-3,5.3-3,11.7,0,17c5.2-3,8.5-8.6,8.5-14.6V4.3C34.1,3.5,33.9,2.8,33.5,2.1z"/>
	<path style="fill:#25C16F;" d="M32.5,0.9L19.3,8.5c-5.3,3-8.5,8.7-8.5,14.8l22-22C32.7,1.2,32.6,1,32.5,0.9z"/>
	<path style="fill:#8BDF55;" d="M10.8,23.3c6.1,0,11.7-3.2,14.8-8.5l7.6-13.2c-0.1-0.1-0.2-0.2-0.3-0.4L10.8,23.3z"/>
	<path style="fill:#FFBB00;" d="M33.2,1.6l-7.6,13.2c-3,5.3-3,11.7,0,17l8-29.7C33.4,1.9,33.3,1.8,33.2,1.6z"/>
	<path style="fill:#FFA800;" d="M25.6,31.8c5.3-3,8.5-8.6,8.5-14.7V4.3c0-0.8-0.2-1.5-0.6-2.2L25.6,31.8z"/>
</g>
</svg>
