<?xml version="1.0" encoding="utf-8"?>
<!-- Generator: Adobe Illustrator 24.2.1, SVG Export Plug-In . SVG Version: 6.00 Build 0)  -->
<svg version="1.1" id="Layer_1" xmlns="http://www.w3.org/2000/svg" xmlns:xlink="http://www.w3.org/1999/xlink" x="0px" y="0px"
	 viewBox="0 0 34.1 34.1" style="enable-background:new 0 0 34.1 34.1;" xml:space="preserve">
<g>
	<path style="fill:#25C16F;" d="M17,0h12.8c2.4,0,4.3,1.9,4.3,4.3v12.8c0,9.4-7.6,17-17,17H17c-9.4,0-17-7.6-17-17S7.6,0.1,17,0z"/>
	<path style="fill:#FFFFFF;" d="M17,7.6c-4.3,0-7.8,3.5-7.8,7.8v5.3c0,1.4,1.2,2.6,2.6,2.6H14v-6.1h-3v-1.7c0.1-3.4,3-6,6.3-5.8
		c3.2,0.1,5.7,2.7,5.8,5.8v1.7h-3v6.1h2v0.1c0,1.3-1.1,2.4-2.4,2.4h-2.4c-0.2,0-0.4,0.1-0.4,0.3s0.2,0.4,0.4,0.4h2.4
		c1.7,0,3.1-1.4,3.1-3.1v-0.2c1.2-0.3,2-1.3,2-2.5v-5.2C24.9,11.1,21.4,7.6,17,7.6z"/>
</g>
</svg>
