<?xml version="1.0" encoding="utf-8"?>
<!-- Generator: Adobe Illustrator 24.2.1, SVG Export Plug-In . SVG Version: 6.00 Build 0)  -->
<svg version="1.1" id="Layer_1" xmlns="http://www.w3.org/2000/svg" xmlns:xlink="http://www.w3.org/1999/xlink" x="0px" y="0px"
	 viewBox="0 0 51.5 51.5" style="enable-background:new 0 0 51.5 51.5;" xml:space="preserve">
<rect style="fill:#FF5621;" width="51.5" height="51.5"/>
<path style="fill:#FFFFFF;" d="M13.2,14.4c0-2.8,2.8-4.1,4.5-4.1c1.5,0,2.9,0.7,2.9,2.4c0.2,2.7-1.8,5.1-4.6,5.3
	C14.5,18.1,13.2,17.5,13.2,14.4z M15.9,18.1L15.9,18.1z M40.6,39.7c-1.1,1-2.5,1.5-3.9,1.5c-3.8,0-5.9-2.5-5.9-6.5
	c0-2.3,0.7-5.4,0.7-7.4c0-1.2-0.3-2-1.1-2c-1.9,0-3.6,5.6-3.6,12.8c0,1.2-0.9,3.1-5.3,3.1c-0.6,0-0.9-0.4-1-1.2
	c-1,0.8-2.3,1.2-3.5,1.2c-4.5,0-6-3.3-6-7.5c0-3.6,0.5-9.8,1.2-11.3c1-1.7,2.6-2.8,4.5-3.1c0.9,0,1.7,0.7,1.7,1.7c0,0,0,0.1,0,0.1
	c0,1.5-1.1,4.9-1.1,9.5c0,4.6,0.5,6.1,1.6,6.1c0.9,0.1,1.6-0.5,1.8-1.3c0.1-1.2,0.2-2.4,0.3-3.7c0-7.4,0.2-8.2,0.5-9.2
	c0.4-2.1,3.9-3.6,5.4-3.6c0.8-0.1,1.5,0.4,1.6,1.2c0,0.1,0,0.3,0,0.4c0,0.9-0.7,2.2-1,4.1c1.1-2.3,4-5.3,6.6-5.3
	c3,0,3.7,2.1,3.7,4.8c0,2.8-0.8,5.7-0.8,8.8c0,2.7,0.5,3.7,1.5,3.8L40.6,39.7z"/>
</svg>
