<?xml version="1.0" encoding="utf-8"?>
<!-- Generator: Adobe Illustrator 24.2.1, SVG Export Plug-In . SVG Version: 6.00 Build 0)  -->
<svg version="1.1" id="Layer_1" xmlns="http://www.w3.org/2000/svg" xmlns:xlink="http://www.w3.org/1999/xlink" x="0px" y="0px"
	 viewBox="0 0 505.3 307.8" style="enable-background:new 0 0 505.3 307.8;" xml:space="preserve">
<g>
	<path style="fill:#B7D433;" d="M0.5,307.8C0.3,306.9,0.2,306,0,305c0.4-0.3,0.8-0.7,1.2-1c6.2-3.8,10.9-9,15.1-14.8l0,0
		c1.7-0.3,2.7-1.3,3-3c0.8-1,1.6-1.9,2.4-2.9c1.3-0.3,2.1-1,2.5-2.3c3.4-2.3,6.5-5,8.6-8.6c2.1-0.8,3.5-2.4,4.6-4.2
		c0.3-0.3,0.6-0.6,0.9-0.9c0.6-0.4,1.2-0.9,1.9-1.3c8.6-6,15.7-13.5,22.2-21.7l0,0c1.2-0.1,1.9-0.8,2-2c1-0.6,1.9-1.3,2.2-2.6
		c0.5-0.3,1.1-0.5,1.6-0.8c1.3,0.1,2.7,0.2,4,0.2c30.5-0.5,60.3-5.4,89.7-13.3c28.2-7.6,54.9-18.8,80.4-32.8c4.5-2.5,9.9-4,13.1-8.6
		c0.3-0.1,0.5-0.2,0.8-0.3c4.1-1.2,7.9-2.8,10.3-6.6c0.3-0.1,0.5-0.2,0.7-0.4c5.8-1.4,9.8-5.8,14.4-9c3.9-2.7,8.6-4.8,11-9.5
		c0.3-0.1,0.5-0.2,0.7-0.3c1.9,0.1,2.8-1,3.3-2.7c0.3-0.3,0.6-0.6,1-0.9c1.4-0.1,2.7-0.5,2.9-2.1c0.4-0.5,0.7-1.1,1.1-1.6
		c1.6-0.3,2.5-1.7,3.7-2.6c1.8,0,2.8-1,3.2-2.7c0.3-0.4,0.6-0.8,0.8-1.2c1-0.7,1.9-1.4,2.9-2.1c4.7-1.9,7.7-5.5,10.2-9.7
		c2.6-2.7,5.3-5.4,7.9-8c3.9-2.1,7.2-4.8,8.7-9.2c0.8-0.9,1.6-1.8,2.3-2.8c2.6-0.6,3.8-2.3,4.2-4.8c1.3-1.2,2.4-2.4,2.9-4.1
		c0.7-0.6,1.4-1.2,2-1.9c2-0.8,3.5-2,3.6-4.3c0.4-0.6,0.9-1.2,1.3-1.8c2.2-0.5,2.9-2,3-4l0,0c1.3-0.2,1.9-0.9,1.7-2.2
		c0.7-0.5,1.1-1.1,1-2c0,0,0.3,0.2,0.3,0.2c2.9-1.1,4.1-3.4,4.7-6.2c0.1-0.2,0.3-0.5,0.3-0.7c1.2-0.3,1.9-0.9,1.7-2.2
		c0.1-0.2,0.2-0.5,0.3-0.7c3.9-2.9,6.3-6.7,7.5-11.3c0.2-0.2,0.3-0.5,0.4-0.7c2.7-1.7,4.2-4.2,4.7-7.3c0.2-0.2,0.3-0.5,0.4-0.7
		c4.7-5.4,8.4-11.4,10.6-18.3c0.1-0.2,0.2-0.5,0.3-0.8c3.7-2.4,4.5-6.7,6.4-10.3c4.8-9.1,10.3-18,13.3-28c0,0,0.1-0.1,0.1-0.1
		c29.4,0,58.8,0,88.1,0.1c2,0,4.5-0.9,5.2,2.3c-0.1,0.2-0.3,0.5-0.3,0.8c-1.8,0.3-2.1,2-2.7,3.3c-12.1,27-24.1,53.9-36.2,80.9
		c-12,26.6-24,53.2-36,79.8c-11.5,25.4-23,50.8-34.5,76.3c-7.7,16.9-15.4,33.8-22.8,50.9c-1.7,3.9-4.7,7.4-4.5,12
		c-1.8,1.7-4.1,1.1-6.2,1.1c-30.7,0.1-61.4,0.1-92.1,0.2c0.2-4.9,3.1-8.7,5-12.8c17.5-38.9,35-77.8,52.5-116.7
		c3.5-7.9,7.2-15.7,10.8-23.6c0.5-1.2,1.5-2.7,0-3.5c-1.2-0.7-2.2,0.8-2.6,1.7c-1.7,3.6-5.1,6.2-5.7,10.4l0,0
		c-2.5,0.8-3.4,2.8-3.6,5.3c-0.2,0.2-0.3,0.5-0.4,0.7c-4.4,3.9-7.9,8.5-9.6,14.3c-0.2,0.2-0.3,0.5-0.4,0.7c-1.3,0.2-1.9,0.9-1.6,2.3
		c-0.2,0.2-0.3,0.5-0.4,0.8c-1.3,0.2-1.9,0.9-1.7,2.2c-0.2,0.2-0.3,0.5-0.4,0.7c-2,0.7-2.6,2.3-2.8,4.2c-0.4,0.6-0.8,1.2-1.1,1.9
		c-2.5,0.8-3.5,2.7-3.7,5.2c-0.2,0.2-0.3,0.5-0.4,0.7c-1.3,0.2-1.8,1-1.7,2.3c-0.2,0.2-0.3,0.4-0.4,0.7c-1.6,0.4-1.9,1.6-2,3l0,0
		c-1.2,0.3-1.8,1-1.5,2.3c-0.2,0.2-0.3,0.4-0.4,0.7c-1.7,0.2-1.8,1.6-2.1,2.9c-4,4.2-7.3,8.9-9.5,14.3c-0.2,0.2-0.3,0.5-0.3,0.7
		c-1.6,0.4-2,1.6-2,3c0,0,0,0,0,0c-1.3,0.3-1.8,1-1.6,2.3c-0.2,0.2-0.3,0.4-0.4,0.7c-1.2,0.3-1.8,1-1.6,2.3
		c-0.2,0.2-0.3,0.4-0.4,0.7c-1.3,0.3-1.8,1-1.6,2.3c-0.2,0.2-0.3,0.4-0.4,0.7c-2.9,2.1-4.8,4.8-5.6,8.3c-0.2,0.2-0.3,0.5-0.4,0.7
		c-2.6,0.8-3.5,2.8-3.6,5.3c-0.2,0.2-0.3,0.5-0.3,0.8c-1.3,0.2-1.9,0.8-1.7,2.2c-0.2,0.2-0.3,0.5-0.3,0.7c-3.2,1.9-4.9,4.7-5.5,8.3
		c-0.2,0.2-0.3,0.5-0.4,0.7c-1.3,0.2-1.9,1-1.6,2.3c-0.2,0.2-0.3,0.4-0.4,0.7c-1.3,0.2-1.9,0.9-1.6,2.3c-0.2,0.2-0.3,0.5-0.4,0.7
		c-2.8,2.1-5.1,4.6-5.7,8.2c-0.1,0.2-0.2,0.5-0.3,0.8c-3.3,1.8-4.9,4.7-5.6,8.3c-1.1,0.5-1.3,1.6-1.6,2.6c-1.6,0.6-2.7,1.5-2.5,3.4
		c-0.2,0.2-0.3,0.5-0.4,0.7c-1.7,0.3-2,1.6-2,3c0,0,0,0,0,0c-2.5,1.2-3.5,3.4-4.1,5.9l0.2,0.2c-7,0.1-13.9,0.2-20.9,0.3
		c-25.6,0.2-51.1-0.5-76.7,0.4c-0.2-1.3-0.3-2.5-0.5-3.8c0.2-0.2,0.3-0.4,0.4-0.7c1.2-0.3,1.9-1,1.6-2.3c0.2-0.2,0.3-0.5,0.3-0.7
		c3.7-2.4,5.2-6.3,6.7-10.2c0.1-0.2,0.2-0.5,0.3-0.7c1.2-0.3,1.9-0.9,1.6-2.3c1.6-3,4.3-5.4,5.1-8.9c0.9-0.3,1.2-1,1.3-1.9
		c1.2-0.6,1.6-1.7,2.1-2.8c1.5-0.6,2.6-1.6,2.5-3.4c0.2-0.2,0.3-0.5,0.3-0.8c4.3-4.4,7.8-9.3,9.7-15.2c0.2-0.2,0.3-0.4,0.4-0.7
		c1.2-0.3,1.8-1,1.7-2.3c0.2-0.2,0.3-0.4,0.3-0.7c1.2-0.3,1.8-1,1.6-2.3c0.2-0.2,0.3-0.5,0.4-0.7c2.2-1.1,3.4-2.9,3.6-5.3
		c0.2-0.2,0.3-0.5,0.4-0.8c1.6-0.3,2.1-1.5,2-2.9l0-0.1c3-1.2,3.6-3.8,4.7-7.5c-4.2,1.8-6.3,4.1-7.9,7.1c-0.9,0.9-1.9,1.7-2.8,2.6
		c-3.2,0.7-4.9,2.9-6.2,5.7c-1.2,1.1-2.5,2.2-3.7,3.3c-3.2,0.7-4.9,2.9-6.3,5.7c-1.3,1.1-2.5,2.2-3.8,3.3c-2.7,0.5-4.3,2.2-5.2,4.7
		c-1.6,1.4-3.2,2.9-4.8,4.3c-2.8,0.3-4.3,2.2-5.2,4.7c-0.9,0.8-1.8,1.6-2.7,2.4c-3.7,0.8-5.6,3.5-7.3,6.6c-0.9,0.8-1.8,1.6-2.8,2.3
		c-2.8,0.3-4.3,2.2-5.2,4.7l0.2,0.2c-2.2,0.6-3,3.1-5,4.1c-3.5,1-5.6,3.5-7.1,6.6c-1,0.8-1.9,1.6-2.9,2.5c-3.5,0.7-5.2,3.4-7.1,6.1
		c-30.4,0-60.9,0-91.3,0C4.1,307.4,2.3,307.7,0.5,307.8z"/>
	<path style="fill:#B7D436;" d="M188,171.8c-5.3,0.8-10.6,1.7-15.8,2.5c-1.1-0.3-2.2-0.3-3.1,0.6c-1.3,0.1-2.6,0.3-3.9,0.4
		c-1.1-0.4-2.2-0.3-3.1,0.5c-3-0.1-5.9-0.2-8.9,0.5c-2.4-0.4-4.8-0.7-7.1,0.5c-3.6-0.2-7.3-0.3-10.9,0.4c-1-0.2-1.9-0.4-2.9-0.5
		c0-0.5,0.1-1,0.1-1.4c1-1,2-2,3-3c7.8-7.5,15.6-14.9,23.3-22.4c11.7-11.4,23.3-22.8,34.9-34.2c2-1.9,4.3-2.2,6.9-2.2
		c17.3,0.1,34.6-0.1,51.9,0.1c3.9,0,6.4-1,8.5-4.5c10.2-16.2,20.6-32.1,30.9-48.3c0.9-1.4,1.9-2.6,3.2-3.7c1.3,0,2.7-0.1,4-0.1
		c15,0.7,30,0.6,45,0c3.7,0.6,7.3,0.6,11,0c2,0.5,4,0.6,6,0c1.6,0.5,2.1,1.7,1.8,3.2c-7.3,8.2-13.9,16.9-21.3,25
		c-16,17.5-34.2,32.3-53.9,45.5c-17.5,11.6-36.2,20.8-55.6,28.5c-0.9-0.1-1.6,0.1-2.1,0.9c-4,1.3-7.9,2.7-11.9,4
		c-1.2-0.1-2.3,0-3.1,0.9c-1.5-0.2-2.7,0.6-3.9,1.2c-0.8-0.2-1.6,0-2.2,0.7c-1.9,0.5-3.9,0.9-5.8,1.4c-0.8-0.2-1.6-0.1-2.1,0.6
		c-2,0.4-3.9,0.8-5.9,1.2c-0.9-0.2-1.6,0-2.2,0.7c-0.9,0.2-1.9,0.3-2.8,0.5C189.3,171,188.6,171.2,188,171.8z"/>
</g>
</svg>
