<svg data-name="Layer 1" xmlns="http://www.w3.org/2000/svg" viewBox="0 0 40 40"><path d="M20 17.13A2.86 2.86 0 1117.16 20 2.87 2.87 0 0120 17.13z" fill="#1e4164"></path><path d="M12.86 7.14a5.72 5.72 0 01-5.72 5.72 7.14 7.14 0 000 14.28 5.72 5.72 0 015.72 5.72 7.15 7.15 0 0014.29 0 5.71 5.71 0 015.71-5.71A7.14 7.14 0 1025.72 20 5.72 5.72 0 0120 25.71 5.71 5.71 0 0114.29 20 5.71 5.71 0 0120 14.28a7.14 7.14 0 10-7.14-7.14zM30 20a2.86 2.86 0 112.86 2.86A2.86 2.86 0 0130 20z" fill="#e71e1d"></path></svg>