<!-- Generator: Adobe Illustrator 24.2.1, SVG Export Plug-In  -->
<svg version="1.1" xmlns="http://www.w3.org/2000/svg" xmlns:xlink="http://www.w3.org/1999/xlink" x="0px" y="0px" width="402.6px"
     height="402.6px" viewBox="0 0 402.6 402.6" style="overflow:visible;enable-background:new 0 0 402.6 402.6;"
     xml:space="preserve">
<defs>
</defs>
<rect style="fill:#26292C;" width="402.6" height="402.6"/>
<path style="fill:#FFFFFF;" d="M219.7,80.2c45.9,0,76.8,36.4,76.8,90.5c0,53.3-32.5,90.4-79,90.4c-22.2,0-36.4-9.5-43.8-16.4
    c0.1,1.6,0.1,3.5,0.1,5.4v72.2h-47.5V129.9c0-2.8-0.9-3.7-3.7-3.7h-16.4V84.1h39.9c18.4,0,23.1,9.3,24,16.5
    C177.5,92.3,193,80.2,219.7,80.2z M172.8,171.6c0,22.9,11.6,47.7,37.2,47.7c19,0,38.2-14.8,38.2-48c0-29.1-15.1-48.6-37.5-48.6
    C192.3,122.7,172.8,135.5,172.8,171.6z"/>
</svg>
