<!-- Generator: Adobe Illustrator 24.2.1, SVG Export Plug-In  -->
<svg version="1.1" xmlns="http://www.w3.org/2000/svg" xmlns:xlink="http://www.w3.org/1999/xlink" x="0px" y="0px" width="192px"
     height="192px" viewBox="0 0 192 192" style="overflow:visible;enable-background:new 0 0 192 192;" xml:space="preserve">
<defs>
</defs>
<g>
    <g>
        <path style="fill:#34B5E4;" d="M191.9,96c0,30.8,0,61.6,0.1,92.3c0,2.8-0.3,3.7-3.5,3.7c-61.7-0.1-123.5-0.1-185.2,0
            c-2.9,0-3.3-0.7-3.3-3.4C0.1,126.9,0.1,65.1,0,3.4C0,0.8,0.3,0,3.2,0C65.2,0.1,127.1,0.1,189,0c2.6,0,3,0.7,3,3.1
            C191.9,34.1,191.9,65,191.9,96z M130.5,122.6c0.1,7.7-3,15.9-9.6,22.7c-3.3,3.4-6.1,7-8.6,11c-1.5,2.5-1.9,5,0,7.4
            c1.5,1.8,3.4,2.7,5.8,2.1c2.9-0.8,4.5-2.9,4.6-5.8c0.3-5.3,3.1-8,8.3-8.9c5.1-0.8,7.3-4.1,6-8.9c-2.2-7.7-0.1-13.6,6-18.6
            c5.3-4.3,4.6-10.2-1.2-14c-7.6-4.9-9.7-10.3-7.5-19.1c2.1-8.3-2.8-13.8-11.3-12.7c-7.8,1-13.5-1.7-17.5-8.6
            c-5-8.8-15.3-8.8-20.3,0c-3.8,6.7-9.3,9.6-17,8.7C59,76.8,54.4,82,56.6,91c2,8.1-0.3,14-7.2,18.4c-6.4,4.1-7,9.7-1.2,14.5
            c5.8,4.8,7.7,10.5,5.7,17.8c-1.4,5.3,0.6,8.5,5.8,9.4c5.2,0.9,8,3.6,8.3,8.9c0.2,3,1.7,5,4.6,5.8c2.3,0.6,4.3-0.3,5.8-2.1
            c2-2.4,1.6-4.9,0-7.4c-2.6-4.3-5.8-8.1-9.2-11.8c-10.5-11.5-12-29.3-3.7-42.6c8.3-13.4,24.4-19.6,39.5-15.3
            C120.3,91,130.6,104.8,130.5,122.6z M95.6,36.9c-5.3-0.1-9.5,3.9-9.7,9.2c-0.2,5.5,4,9.9,9.4,10c5.2,0.1,9.6-4,9.8-9.2
            C105.2,41.5,101,37,95.6,36.9z M127.4,61.3c0-4.7-3.7-8.6-8.4-8.7c-4.9-0.1-9,3.8-9,8.6c0,4.6,3.8,8.6,8.4,8.7
            C123.3,70.1,127.4,66.2,127.4,61.3z M80.8,61.4c0.1-4.6-3.7-8.6-8.4-8.8c-4.8-0.2-9,3.8-9.1,8.6c-0.1,4.6,3.8,8.6,8.4,8.8
            C76.5,70.2,80.7,66.2,80.8,61.4z M157.3,95.7c-0.1-4.5-3.8-8.3-8.2-8.3c-4.7-0.1-8.6,3.8-8.6,8.5c0,4.7,4,8.4,8.8,8.3
            C153.8,103.9,157.3,100.2,157.3,95.7z M42.1,87.3c-4.6-0.1-8.6,3.9-8.5,8.5c0.1,4.5,3.7,8.2,8.3,8.2c4.6,0.1,8.3-3.4,8.5-8
            C50.5,91.4,46.7,87.4,42.1,87.3z M148.8,128.1c-4,0-7.3,3.2-7.3,7.2c0,4,3.3,7.3,7.2,7.3c4,0,7.3-3.3,7.3-7.2
            C156.1,131.4,152.8,128.1,148.8,128.1z M142.2,65c-3.8-0.1-7,3-7.2,6.8c-0.2,4.1,3,7.4,7,7.4c3.9,0,7-2.9,7.2-6.7
            C149.4,68.5,146.2,65.1,142.2,65z M49.2,135.4c0-4-3.2-7.3-7.2-7.3c-4,0-7.2,3.2-7.3,7.2c0,4,3.2,7.3,7.2,7.3
            C45.9,142.7,49.2,139.4,49.2,135.4z M55.9,72.2c0-3.8-3.1-7-6.9-7.1c-4-0.1-7.4,3.1-7.4,7.1c0,4.1,3.3,7.2,7.4,7.1
            C52.8,79.1,55.9,76,55.9,72.2z M39.5,116.4c0.1-3.7-2.5-6.4-5.8-6.5c-3.5-0.2-6.6,2.7-6.3,6.1c0.3,3.6,2.3,5.9,6,5.9
            C37.2,121.9,39,119.6,39.5,116.4z M157.4,109.8c-3.7,0.3-6,2.3-6.1,5.9c-0.1,3.6,2.1,5.9,5.8,6.1c3.5,0.3,6.5-2.7,6.3-6.1
            C163.1,112.1,161,110.2,157.4,109.8z M101.4,25.2c-0.4-3.6-2.4-5.9-6.1-5.8c-3.4,0.1-5.6,2.2-5.7,5.7c-0.1,3.7,2,6,5.8,6.1
            C99,31.1,101,28.8,101.4,25.2z M160.4,61c-0.1-3.2-1.8-5.4-5.1-5.5c-3-0.1-5.1,1.5-5.4,4.7c-0.3,3.3,1.4,5.5,4.7,5.8
            C157.9,66.3,159.8,64.3,160.4,61z M36.1,66.1c2.8-0.5,5-2,4.9-5.4c0-3.3-2.1-5.3-5.3-5.3c-3.2,0-5.3,2.1-5.3,5.3
            C30.5,64,32.5,65.8,36.1,66.1z M143.9,148.4c-3,0.3-5.1,1.7-5.2,4.9c-0.1,3.4,1.8,5.4,5.2,5.4c3.1,0,5-1.9,5-5
            C148.9,150.5,146.9,148.8,143.9,148.4z M52.2,153c-0.5-2.7-2.1-4.7-5.2-4.6c-3.3,0.1-5.2,2.2-4.9,5.6c0.3,3.1,2.3,4.8,5.4,4.6
            C50.4,158.4,52,156.4,52.2,153z M64.7,160.7c-0.4-2.8-1.8-4.7-4.8-4.7c-2.7,0-4.4,1.6-4.6,4.3c-0.2,2.9,1.5,4.8,4.4,4.9
            C62.7,165.4,64.2,163.5,64.7,160.7z M131.1,165.3c2.6-0.4,4.5-1.9,4.4-4.8c-0.1-2.6-1.7-4.4-4.4-4.5c-2.9-0.1-4.8,1.6-4.9,4.5
            C126.2,163.4,128,165,131.1,165.3z M17.5,119.5c2.6-0.3,4.4-1.7,4.5-4.4c0.1-2.7-1.6-4.5-4.3-4.6c-2.9-0.1-4.8,1.6-4.7,4.6
            C13,117.8,14.9,119.1,17.5,119.5z M178,114.9c-0.4-2.7-2-4.4-4.6-4.4c-2.9,0-4.7,1.8-4.5,4.8c0.2,2.7,2,4.3,4.7,4.1
            C176.3,119.3,177.7,117.5,178,114.9z M155.1,157.5c-2.2,0.1-3.8,1.2-4,3.5c-0.2,2.5,1.3,4.1,3.8,4.1c2.3,0,3.7-1.4,3.8-3.7
            C158.9,159.2,157.4,157.9,155.1,157.5z M39.8,161.3c-0.4-2.2-1.5-3.7-3.9-3.7c-2.3,0-3.8,1.3-3.8,3.6c-0.1,2.5,1.4,4,4,3.9
            C38.4,165.1,39.5,163.4,39.8,161.3z"/>
        <path style="fill:#F8FCFD;" d="M130.5,122.6c0.1-17.8-10.2-31.6-25.5-36c-15.1-4.3-31.2,1.9-39.5,15.3
            c-8.3,13.4-6.8,31.1,3.7,42.6c3.4,3.7,6.6,7.5,9.2,11.8c1.5,2.5,1.9,5,0,7.4c-1.5,1.8-3.4,2.7-5.8,2.1c-2.9-0.8-4.4-2.8-4.6-5.8
            c-0.3-5.3-3.1-8-8.3-8.9c-5.3-0.9-7.3-4.1-5.8-9.4c1.9-7.2,0-13-5.7-17.8c-5.8-4.8-5.2-10.4,1.2-14.5c6.9-4.4,9.3-10.3,7.2-18.4
            c-2.3-9,2.3-14.2,11.6-13.1c7.7,0.9,13.1-1.9,17-8.7c5-8.8,15.3-8.9,20.3,0c4,6.9,9.6,9.7,17.5,8.6c8.5-1.1,13.4,4.4,11.3,12.7
            c-2.2,8.9-0.1,14.3,7.5,19.1c5.8,3.7,6.5,9.7,1.2,14c-6.1,5-8.2,10.9-6,18.6c1.4,4.8-0.9,8.1-6,8.9c-5.2,0.9-8,3.6-8.3,8.9
            c-0.2,3-1.7,5-4.6,5.8c-2.3,0.6-4.3-0.3-5.8-2.1c-2-2.4-1.6-4.9,0-7.4c2.4-4,5.3-7.7,8.6-11C127.5,138.5,130.6,130.3,130.5,122.6z
            "/>
        <path style="fill:#F8FCFD;" d="M95.6,36.9c5.5,0.1,9.7,4.5,9.5,10c-0.2,5.2-4.5,9.3-9.8,9.2c-5.4-0.1-9.6-4.5-9.4-10
            C86,40.8,90.2,36.8,95.6,36.9z"/>
        <path style="fill:#F6FBFD;" d="M127.4,61.3c0,4.9-4.1,8.8-9,8.6c-4.6-0.2-8.4-4.1-8.4-8.7c0-4.9,4.1-8.8,9-8.6
            C123.7,52.7,127.4,56.6,127.4,61.3z"/>
        <path style="fill:#F5FBFD;" d="M80.8,61.4c-0.1,4.8-4.3,8.8-9.1,8.6c-4.6-0.2-8.4-4.2-8.4-8.8c0.1-4.8,4.3-8.8,9.1-8.6
            C77.1,52.8,80.9,56.8,80.8,61.4z"/>
        <path style="fill:#F7FBFD;" d="M157.3,95.7c0.1,4.6-3.5,8.3-8,8.5c-4.8,0.2-8.7-3.5-8.8-8.3c0-4.7,3.9-8.6,8.6-8.5
            C153.5,87.4,157.2,91.1,157.3,95.7z"/>
        <path style="fill:#F7FBFD;" d="M42.1,87.3c4.7,0.1,8.4,4.1,8.2,8.8c-0.2,4.6-3.9,8-8.5,8c-4.5-0.1-8.2-3.8-8.3-8.2
            C33.5,91.2,37.4,87.2,42.1,87.3z"/>
        <path style="fill:#F5FBFD;" d="M148.8,128.1c4,0,7.2,3.3,7.2,7.3c0,4-3.3,7.3-7.3,7.2c-3.9,0-7.2-3.4-7.2-7.3
            C141.6,131.3,144.9,128.1,148.8,128.1z"/>
        <path style="fill:#F4FAFD;" d="M142.2,65c4,0.1,7.2,3.5,7,7.5c-0.2,3.9-3.3,6.8-7.2,6.7c-4.1,0-7.2-3.4-7-7.4
            C135.1,68,138.4,65,142.2,65z"/>
        <path style="fill:#F5FBFD;" d="M49.2,135.4c0,4-3.3,7.3-7.3,7.2c-3.9,0-7.2-3.3-7.2-7.3c0-4,3.3-7.2,7.3-7.2
            C46,128.1,49.3,131.4,49.2,135.4z"/>
        <path style="fill:#F6FBFD;" d="M55.9,72.2c0,3.8-3,6.9-6.9,7.1c-4.1,0.1-7.4-3-7.4-7.1c0-4,3.4-7.3,7.4-7.1
            C52.8,65.2,55.9,68.4,55.9,72.2z"/>
        <path style="fill:#F2FAFC;" d="M39.5,116.4c-0.5,3.2-2.4,5.5-6.1,5.5c-3.7,0-5.8-2.3-6-5.9c-0.3-3.4,2.8-6.3,6.3-6.1
            C37.1,110,39.6,112.8,39.5,116.4z"/>
        <path style="fill:#F2FAFC;" d="M157.4,109.8c3.6,0.3,5.8,2.3,6,6c0.2,3.5-2.8,6.4-6.3,6.1c-3.7-0.3-5.8-2.6-5.8-6.1
            C151.4,112.2,153.7,110.1,157.4,109.8z"/>
        <path style="fill:#F3FAFD;" d="M101.4,25.2c-0.4,3.7-2.3,5.9-6.1,5.9c-3.7-0.1-5.8-2.4-5.8-6.1c0.1-3.4,2.3-5.6,5.7-5.7
            C99,19.3,100.9,21.5,101.4,25.2z"/>
        <path style="fill:#F3FAFD;" d="M160.4,61c-0.6,3.4-2.4,5.3-5.8,5c-3.3-0.3-5-2.5-4.7-5.8c0.3-3.1,2.4-4.8,5.4-4.7
            C158.5,55.6,160.2,57.8,160.4,61z"/>
        <path style="fill:#EEF8FC;" d="M36.1,66.1c-3.6-0.3-5.6-2.1-5.6-5.4c0-3.3,2.1-5.3,5.3-5.3c3.2,0,5.2,2,5.3,5.3
            C41.1,64.1,39,65.6,36.1,66.1z"/>
        <path style="fill:#EFF9FC;" d="M143.9,148.4c3,0.5,5,2.1,4.9,5.2c0,3.1-1.9,5-5,5c-3.3,0-5.3-2-5.2-5.4
            C138.8,150.1,140.9,148.7,143.9,148.4z"/>
        <path style="fill:#F1F9FC;" d="M52.2,153c-0.1,3.4-1.7,5.4-4.8,5.6c-3,0.2-5.1-1.5-5.4-4.6c-0.3-3.4,1.6-5.4,4.9-5.6
            C50,148.4,51.7,150.3,52.2,153z"/>
        <path style="fill:#EDF8FC;" d="M64.7,160.7c-0.5,2.9-2,4.7-5,4.5c-2.9-0.2-4.6-2-4.4-4.9c0.2-2.6,1.9-4.3,4.6-4.3
            C62.9,156,64.3,157.8,64.7,160.7z"/>
        <path style="fill:#EEF8FC;" d="M131.1,165.3c-3.2-0.3-5-1.9-4.9-4.8c0.1-2.9,1.9-4.6,4.9-4.5c2.7,0.1,4.4,1.9,4.4,4.5
            C135.6,163.3,133.8,164.9,131.1,165.3z"/>
        <path style="fill:#F1F9FC;" d="M17.5,119.5c-2.6-0.4-4.5-1.7-4.5-4.4c0-3,1.8-4.7,4.7-4.6c2.7,0.1,4.3,1.8,4.3,4.6
            C21.9,117.8,20.1,119.2,17.5,119.5z"/>
        <path style="fill:#F1F9FC;" d="M178,114.9c-0.3,2.7-1.7,4.4-4.4,4.5c-2.7,0.1-4.5-1.4-4.7-4.1c-0.2-3,1.6-4.8,4.5-4.8
            C176.1,110.5,177.6,112.2,178,114.9z"/>
        <path style="fill:#EEF8FC;" d="M155.1,157.5c2.3,0.4,3.7,1.6,3.6,3.9c-0.1,2.2-1.5,3.7-3.8,3.7c-2.5,0-4-1.6-3.8-4.1
            C151.3,158.7,152.9,157.6,155.1,157.5z"/>
        <path style="fill:#EDF8FC;" d="M39.8,161.3c-0.3,2.2-1.3,3.8-3.7,3.8c-2.5,0.1-4-1.4-4-3.9c0.1-2.3,1.5-3.6,3.8-3.6
            C38.2,157.6,39.4,159.1,39.8,161.3z"/>
    </g>
</g>
</svg>
