<?xml version="1.0" encoding="utf-8"?>
<!-- Generator: Adobe Illustrator 24.2.1, SVG Export Plug-In . SVG Version: 6.00 Build 0)  -->
<svg version="1.1" id="Layer_1" xmlns="http://www.w3.org/2000/svg" xmlns:xlink="http://www.w3.org/1999/xlink" x="0px" y="0px"
	 viewBox="0 0 20.1 27.9" style="enable-background:new 0 0 20.1 27.9;" xml:space="preserve">
<g id="Logo_x2F_Light">
	<path id="logo" style="fill-rule:evenodd;clip-rule:evenodd;fill:#343F53;" d="M6.1,5c0,0.1,0,3.1,0,3.2c0,1.5,0.9,2.6,2.9,3
		l3.7,0.7c4.8,0.9,7.4,4.1,7.4,7.8c0,4.1-3.4,8.2-9.6,8.2c-7,0-10.7-4.7-10.5-9.5h4.8c0.2,2.6,2.1,5.1,5.8,5.1
		c2.8,0,4.5-1.6,4.5-3.4c0-1.5-1.3-2.9-3.4-3.3L8,16c-4.2-0.9-6.8-3.4-6.8-7.4l0-0.3v0c0-0.8,0-3.2,0-3.3H6.1z"/>
	<path id="arrow" style="fill-rule:evenodd;clip-rule:evenodd;fill:#E43958;" d="M10,0h10v10h-5V5h-5V0z"/>
</g>
</svg>
