<!-- Generator: Adobe Illustrator 24.2.1, SVG Export Plug-In  -->
<svg version="1.1" xmlns="http://www.w3.org/2000/svg" xmlns:xlink="http://www.w3.org/1999/xlink" x="0px" y="0px" width="138.1px"
     height="154.1px" viewBox="0 0 138.1 154.1" style="overflow:visible;enable-background:new 0 0 138.1 154.1;"
     xml:space="preserve">
<defs>
</defs>
<g>
    <path style="fill:#DCDCDB;" d="M32.9,126.9c-0.3,0-0.7-0.1-1,0c-10.9,2.7-13,1.8-19-8.2c-3.6-6-6.9-12.1-9-18.7
        c-0.7-2.1-1.1-4.1-0.7-6.3c1.3,0.6,2.3,3.6,4.2,0.7c2.8-2.1,4.3-5,4.6-8.4c3-6.1,3.7-12.9,6-19.1c2.3-6.3,2.5-13.1,5.4-19.1
        c0.5-2.9,1-5.8,1.5-8.7c1.3-6.5,2.4-13.1,2-19.8c-0.2-2,1.3-3,2.5-4.1c4.8-4.5,10.5-7.4,16.3-10.3c3.1-1.5,7.4-1,9.2-4.8
        c1.7,0,3.3,0,5,0c3.5,12,2.1,24.2,1.3,36.3c-0.7,11.9-3.4,23.4-5.6,35c-4.4,15.9-8.5,31.9-16.8,46.3
        C36.9,120.8,33.5,122.9,32.9,126.9z"/>
    <path style="fill:#33954E;" d="M0,68.9c2-1.9,0.4-4.9,2-7C3.9,64.8,2.9,68,2.8,71c-0.1,8.1,0.6,16,4.6,23.3
        c-1.9,2.9-2.9-0.1-4.2-0.7c0-0.3-0.1-0.5-0.3-0.7c-0.1-0.5-0.3-1-0.4-1.6c-1.6-1.5,0.1-4.4-2.5-5.4C0,80.2,0,74.6,0,68.9z"/>
    <path style="fill:#DCDCDC;" d="M114,6.1c0.2-0.8,0.1-2,0.6-2.3c1.7-0.9,1.7,1,2.2,1.8c8.2,14,12.7,29.4,16.2,45.1
        c4,18.5,6,37.2,5,56.1c-0.2,4.3-0.9,8.5-1.8,12.7c-0.6,3.3-1.6,1.5-2.3-0.1c-1.9-3.2-3.8-6.4-6-10.2c-1.3,2.3-2.1,3.8-2,5.7
        c-4.2,8.4-7.6,17.2-13.7,24.6c-7.1,8.5-15.3,14.1-27,14.5c-9.4,0.3-18.6,0.2-27.8-2c-1.2-0.3-2.3-0.4-2.5-1.9
        c3.6-1.1,7.4-1.8,10.4-4.3c12.6-10.6,18.1-25.4,24.3-40.8c-2.9,0.9-4.9,1.2-6.1,3c-6.5,0.7-12.5,3.2-18.7,5
        c-2.3-0.2-4.5,2.2-6.8,0.2c4.4-3.6,7.8-8.1,11.2-12.6c17-22.9,28.8-48.6,38.9-75.1C110.5,19.1,113.6,13,114,6.1z"/>
    <path style="fill:#84C342;" d="M58,113.2c2.3,2,4.5-0.4,6.8-0.2c1.8,5.4,4.1,10.6,7.3,15.4c-0.7,2.4-2.7,3.7-4.3,5.3
        c-6.9,6.6-14.4,5.9-20.3-1.4c-3.6-4.4-6-9.4-8.5-14.4c8.3-14.5,12.4-30.5,16.8-46.3c1.4,11.2,3.9,22.2,6.3,33.3
        C60.6,107.4,57.5,109.4,58,113.2z"/>
    <path style="fill:#238D49;" d="M38.9,117.7c2.5,5,4.9,10,8.5,14.4c6,7.3,13.5,8,20.3,1.4c1.6-1.6,3.6-2.9,4.3-5.3
        c5.5-5.9,8.4-13.1,11.4-20.3c1.2-1.8,3.2-2.1,6.1-3c-6.2,15.4-11.6,30.2-24.3,40.8c-3,2.5-6.8,3.2-10.4,4.3
        c-9.8-1.5-14.7-8.6-18.9-16.5c-1.2-2.2-2.1-4.5-3.1-6.7C33.5,122.9,36.9,120.8,38.9,117.7z"/>
    <path style="fill:#309354;" d="M58,113.2c-0.6-3.7,2.6-5.7,4-8.5c7.5-6.7,12.7-15.3,17.6-23.9c11.7-20.6,22.1-41.9,28.3-64.9
        c1-3.8,2.6-7.4,6.1-9.8c-0.4,6.9-3.4,13-5.8,19.3C98,51.9,86.2,77.6,69.2,100.5C65.8,105,62.4,109.6,58,113.2z"/>
    <path style="fill:#309354;" d="M125.8,114.9c-0.1-1.9,0.7-3.4,2-5.7c2.2,3.8,4.1,7,6,10.2C130.6,118.8,128.4,116.5,125.8,114.9z"/>
    <path style="fill:#DCDCDB;" d="M2.5,91.3c0.1,0.5,0.3,1,0.4,1.6C2.3,92.5,2.2,92,2.5,91.3z"/>
    <path style="fill:#86C347;" d="M7.4,94.3C3.5,87,2.7,79.1,2.8,71c0-3,1.1-6.2-0.8-9.1c0.5-5,1-10,4.4-14.5
        c0.9,13.2,2.2,26,5.6,38.5C11.7,89.4,10.2,92.2,7.4,94.3z"/>
    <path style="fill:#39975B;" d="M23.2,38.9c0.7-6.7,0.2-13.6,3.7-19.8c0.3,6.7-0.7,13.3-2,19.8C24.3,38.9,23.8,38.9,23.2,38.9z"/>
    <path style="fill:#5AA876;" d="M23.2,38.9c0.6,0,1.1,0,1.7,0c-0.5,2.9-1,5.8-1.5,8.7C22.8,44.7,22.7,41.8,23.2,38.9z"/>
</g>
</svg>
