<?xml version="1.0" encoding="utf-8"?>
<!-- Generator: Adobe Illustrator 24.2.1, SVG Export Plug-In . SVG Version: 6.00 Build 0)  -->
<svg version="1.1" id="Layer_1" xmlns="http://www.w3.org/2000/svg" xmlns:xlink="http://www.w3.org/1999/xlink" x="0px" y="0px"
	 viewBox="0 0 60.7 60.6" style="enable-background:new 0 0 60.7 60.6;" xml:space="preserve">
<path style="fill:#0DDAF5;" d="M46.8,0H13.9C6.2,0,0,6.2,0,13.8v32.9c0,7.7,6.2,13.9,13.9,13.9h32.9c7.7,0,13.9-6.2,13.9-13.9V13.8
	C60.7,6.2,54.5,0,46.8,0z"/>
<path style="fill:#FFFFFF;" d="M48.1,23.6l-0.5-0.4c-2.1-1.5-5.1-1.1-6.6,1L26.2,43.7c-1.5,2.1-1.1,5.1,1,6.6l0.5,0.4
	c2.1,1.5,5.1,1.1,6.6-1l14.8-19.5C50.7,28,50.2,25.1,48.1,23.6z M26.1,32.4l-6.4-8.2c-1.5-2.1-4.5-2.6-6.6-1l-0.5,0.4
	c-2.1,1.5-2.6,4.5-1,6.6l6.8,8.6l3.7,4.5l3.2-4.2C27,36.9,27.7,34.5,26.1,32.4z M30.3,21.8c3.5,0,6.4-2.9,6.4-6.4S33.8,9,30.3,9
	s-6.4,2.9-6.4,6.4S26.8,21.8,30.3,21.8z"/>
</svg>
