<!-- Generator: Adobe Illustrator 24.2.1, SVG Export Plug-In  -->
<svg version="1.1" xmlns="http://www.w3.org/2000/svg" xmlns:xlink="http://www.w3.org/1999/xlink" x="0px" y="0px" width="56.7px"
     height="56.7px" viewBox="0 0 56.7 56.7" style="overflow:visible;enable-background:new 0 0 56.7 56.7;" xml:space="preserve">
<defs>
</defs>
<rect style="fill:#EB413E;" width="56.7" height="56.7"/>
<path style="fill:#FEF4F2;" d="M24.9,39c4.3,0,7.7-0.1,11.1,0c1.9,0,3.7,0.6,3.6,3c-0.1,2.1-1.8,2.8-3.4,2.8
    C31,45,25.7,45,20.5,44.8c-2.3-0.1-3.3-1.5-3.4-3.9c-0.2-5.8,3.2-9.8,6.7-13.7c2.1-2.3,4.4-4.4,6.5-6.7c1.3-1.5,1-2.7-1.3-2.7
    c-2.6,0-5.3,0-7.9-0.1c-1.6-0.1-2.9-0.7-3-2.6c-0.1-2,1.1-3.2,2.9-3.2c4.9-0.1,9.8-0.1,14.8-0.1c2.2,0,3.1,1.4,3.2,3.5
    c0.2,4.7-1.4,8.6-4.4,12.1C31.6,31,27.6,33.8,24.9,39z"/>
</svg>
