<?xml version="1.0" encoding="utf-8"?>
<!-- Generator: Adobe Illustrator 27.2.0, SVG Export Plug-In . SVG Version: 6.00 Build 0)  -->
<svg version="1.1" id="Layer_1" xmlns:serif="http://www.serif.com/"
     xmlns="http://www.w3.org/2000/svg" xmlns:xlink="http://www.w3.org/1999/xlink" x="0px" y="0px" viewBox="0 0 61.5 72.1"
     style="enable-background:new 0 0 61.5 72.1;" xml:space="preserve">
<g>
    <path style="fill-rule:evenodd;clip-rule:evenodd;fill:#FFAB00;" d="M61.5,10.6C54.8,3.8,45.6,0,36,0C16.1,0,0,16.1,0,36
        s16.1,36,36,36c9.6,0,18.7-3.8,25.5-10.6l-7.6-7.6c-4.7,4.7-11.1,7.4-17.8,7.4C22.1,61.3,10.8,50,10.8,36S22.1,10.8,36,10.8
        c6.7,0,13.1,2.7,17.8,7.4C53.9,18.2,61.5,10.6,61.5,10.6z"/>
    <path style="fill-rule:evenodd;clip-rule:evenodd;fill:#FFC400;" d="M10.6,61.5c6.8,6.8,15.9,10.6,25.5,10.6s18.7-3.8,25.5-10.6
        l-7.6-7.6c-4.7,4.7-11.1,7.4-17.8,7.4s-13.1-2.7-17.8-7.4C18.2,53.9,10.6,61.5,10.6,61.5z"/>
    <circle style="fill-rule:evenodd;clip-rule:evenodd;fill:#FFAB00;" cx="25.2" cy="36" r="5.4"/>
    <circle style="fill-rule:evenodd;clip-rule:evenodd;fill:#FFAB00;" cx="46.9" cy="36" r="5.4"/>
</g>
</svg>
