<svg viewBox="0 0 27 28" id="Sprocket" xmlns="http://www.w3.org/2000/svg"><path d="M19.614 20.177c-2.091 0-3.787-1.678-3.787-3.747 0-2.07 1.696-3.747 3.787-3.747 2.092 0 3.787 1.677 3.787 3.747s-1.695 3.747-3.787 3.747m1.134-10.961V5.882c.88-.411 1.495-1.291 1.495-2.313v-.077c0-1.41-1.166-2.563-2.59-2.563h-.078c-1.424 0-2.59 1.153-2.59 2.563v.077c0 1.022.616 1.902 1.495 2.313v3.334c-1.309.2-2.505.734-3.492 1.52L5.74 3.617c.061-.231.104-.47.105-.721C5.845 1.298 4.539.002 2.925 0 1.312-.002.002 1.29 0 2.888-.002 4.485 1.304 5.78 2.918 5.783c.526 0 1.013-.147 1.44-.388l9.097 7.005a7.22 7.22 0 00-1.227 4.03c0 1.56.498 3.004 1.34 4.19L10.8 23.36a2.389 2.389 0 00-.686-.11c-1.326 0-2.4 1.063-2.4 2.375S8.788 28 10.114 28c1.326 0 2.401-1.064 2.401-2.376a2.32 2.32 0 00-.111-.679l2.736-2.708a7.397 7.397 0 004.473 1.502c4.08 0 7.386-3.272 7.386-7.309 0-3.654-2.713-6.673-6.252-7.214" fill="#FF7A59" fill-rule="evenodd"></path></svg>