<?xml version="1.0" encoding="utf-8"?>
<!-- Generator: Adobe Illustrator 24.2.1, SVG Export Plug-In . SVG Version: 6.00 Build 0)  -->
<svg version="1.1" id="Layer_1" xmlns="http://www.w3.org/2000/svg" xmlns:xlink="http://www.w3.org/1999/xlink" x="0px" y="0px"
	 viewBox="0 0 43.1 43.1" style="enable-background:new 0 0 43.1 43.1;" xml:space="preserve">
<rect style="fill:#36A635;" width="43.1" height="43.1"/>
<path style="fill:#FFFFFF;" d="M31.5,34l-2.8,2.9c-0.4,0.5-1,0.4-1.5,0l-9.9-10.1v9.4c0,0.6-0.4,1-1.1,1h-4c-0.6,0-1-0.4-1-1V6.9
	c0-0.6,0.4-1,1-1h4c0.7,0,1.1,0.4,1.1,1v9.6h13.5c0.6,0,1,0.4,1,1v4.1c0,0.6-0.4,1-1,1h-9.2l9.9,10C31.9,33,31.9,33.5,31.5,34z"/>
</svg>
