<?xml version="1.0" encoding="utf-8"?>
<!-- Generator: Adobe Illustrator 24.2.1, SVG Export Plug-In . SVG Version: 6.00 Build 0)  -->
<svg version="1.1" id="Layer_1" xmlns="http://www.w3.org/2000/svg" xmlns:xlink="http://www.w3.org/1999/xlink" x="0px" y="0px"
	 viewBox="0 0 41.6 41.6" style="enable-background:new 0 0 41.6 41.6;" xml:space="preserve">
<rect style="fill:#15304D;" width="41.6" height="41.6"/>
<path style="fill:#FFFFFF;" d="M7.1,16.7c0-0.5-0.3-0.8-0.8-0.8H4.9v-3.7H9c1.6,0,2.4,0.7,2.4,2v0.5c0,0.4,0,0.8,0,0.8h0.1
	c0.8-1.7,3-3.7,5.8-3.7c2.7,0,4.5,1.2,5.2,3.6h0.1c1-1.9,3.3-3.6,6.1-3.6c3.7,0,5.9,2.1,5.9,6.7v6.9c0,0.1,0,0.2,0,0.3
	c0,0.1,0.1,0.2,0.2,0.3c0.1,0.1,0.2,0.1,0.3,0.2c0.1,0,0.2,0,0.3,0h1.4v3.7h-4.2c-1.7,0-2.4-0.7-2.4-2.3v-8.1c0-2-0.4-3.5-2.5-3.5
	c-2.2,0-3.8,1.8-4.3,4c-0.2,0.7-0.3,1.5-0.3,2.2v7.7h-4.5V19.3c0-1.9-0.3-3.5-2.4-3.5c-2.2,0-3.8,1.8-4.3,4.1
	c-0.2,0.7-0.3,1.5-0.3,2.2v7.7H7.1V16.7z"/>
</svg>
