
<svg xmlns="http://www.w3.org/2000/svg" xmlns:xlink="http://www.w3.org/1999/xlink" id="Layer_1" x="0px" y="0px" viewBox="0 0 400 400" style="enable-background:new 0 0 400 400;" xml:space="preserve"> <style type="text/css"> .st0{fill:#202D53;} </style> <g id="sqEqs1.tif"> <g> <path class="st0" d="M26.1,10.6c6,3.1,12,6,17.9,9.2c70,38,140,76.1,210,114.1c0.7,0.4,1.4,0.9,2.6,1.6 c-7.9,5.7-15.6,11.2-23.3,16.7c-17.2,12.3-34.3,24.5-51.4,36.9c-2.1,1.5-3.7,1.6-5.9,0.5c-48.8-23.7-97.6-47.4-146.5-71.1 c-1.1-0.5-2.2-1.1-3.2-1.7C26.1,81.4,26.1,46,26.1,10.6z"></path> <path class="st0" d="M28.3,392c0-86,0-171.3,0-257.4c25.3,15.6,50.1,30.9,75.2,46.4C81.6,246,59.8,310.9,38,375.8 c0.2,0.2,0.4,0.3,0.6,0.5c75-77,149.9-154,224.9-230.9c0.3,0.1,0.6,0.2,0.9,0.3c0,1.3,0,2.6,0,3.8c0,36.9,0,73.7,0.1,110.6 c0,2.9-0.8,4.5-3.5,6c-76.1,41.2-152.2,82.5-228.3,123.7C31.3,390.5,30,391.1,28.3,392z"></path> </g> </g> </svg>