<!-- Generator: Adobe Illustrator 24.2.1, SVG Export Plug-In  -->
<svg version="1.1" xmlns="http://www.w3.org/2000/svg" xmlns:xlink="http://www.w3.org/1999/xlink" x="0px" y="0px" width="48px"
     height="48px" viewBox="0 0 48 48" style="overflow:visible;enable-background:new 0 0 48 48;" xml:space="preserve">
<defs>
</defs>
<g>
    <g>
        <path d="M47.9,24.5c0,7-0.1,13.9,0.1,20.9c0,2-0.2,2.6-2.5,2.6C31.3,47.9,17,47.9,2.8,48C1,48,0,48.1,0,45.6
            C0.2,31.2,0.1,16.8,0,2.4C0,0.6,0.2,0,2.3,0c14.4,0.1,28.8,0.1,43.3,0C47.8,0,48,0.6,48,2.6C47.9,9.9,47.9,17.2,47.9,24.5z
             M17.3,23c0.5-0.3,1.1-0.5,1.6-0.8c2.7,4.3,5.5,8.5,8.1,12.8c2.2,3.6,5.7,1.8,8.5,1.8c2.8-0.1,2-2.9,2-4.7c0.1-5.3,0-10.6,0-15.9
            c0-2.3,0.2-4.2-3.2-4.2c-3.4,0-3.2,2-3.1,4.2c0,3.9,0,7.9,0,11.8c-0.5,0-1,0-1.4,0c-2.9-4.7-6-9.2-8.7-14c-2.1-3.6-5.3-1.9-8-1.8
            c-2.5,0.1-2,2.6-2,4.3c0,5.8,0.1,11.6,0,17.4c0,2.5,0.5,2.6,3.1,2.2c3.2-0.5,3.1-2,3.1-4.3C17.1,29,17.2,26,17.3,23z"/>
        <path style="fill:#FCFCFC;" d="M17.3,23c0,3-0.2,6-0.1,9c0,2.3,0.1,3.8-3.1,4.3c-2.6,0.4-3.1,0.2-3.1-2.2c0.1-5.8,0-11.6,0-17.4
            c0-1.8-0.4-4.3,2-4.3c2.7-0.1,5.9-1.8,8,1.8c2.8,4.7,5.8,9.3,8.7,14c0.5,0,1,0,1.4,0c0-3.9,0-7.9,0-11.8c0-2.2-0.3-4.2,3.1-4.2
            c3.4,0,3.2,1.9,3.2,4.2c0,5.3,0.1,10.6,0,15.9c0,1.8,0.8,4.7-2,4.7c-2.8,0.1-6.3,1.9-8.5-1.8c-2.6-4.3-5.4-8.5-8.1-12.8
            c0.1-1-0.6-1.9-1.3-1.6C16.5,21,17.2,22.2,17.3,23z"/>
        <path style="fill:#242424;" d="M17.3,23c-0.1-0.9-0.7-2.1,0.4-2.4c0.6-0.2,1.4,0.7,1.3,1.6C18.4,22.5,17.8,22.8,17.3,23z"/>
    </g>
</g>
</svg>
