<!-- Generator: Adobe Illustrator 24.2.1, SVG Export Plug-In  -->
<svg version="1.1" xmlns="http://www.w3.org/2000/svg" xmlns:xlink="http://www.w3.org/1999/xlink" x="0px" y="0px" width="325.3px"
     height="259.9px" viewBox="0 0 325.3 259.9" style="overflow:visible;enable-background:new 0 0 325.3 259.9;"
     xml:space="preserve">
<defs>
</defs>
<g>
    <path style="fill:#025894;" d="M252.6,0.1C270-0.5,286.8,1.2,302,10.3c17.4,10.3,25.7,29.9,22.6,51.7
        c-3.8,26.9-16.6,49.6-32.8,70.6c-35.5,46-80.7,79.7-133,104.3c-2.5,1.2-4,1-5.9-1.2c-10.5-12.2-19.1-25.5-25.9-40.1
        c-1.8-3.9-1.6-5.2,2.8-6.6c51.7-16.3,94.6-45.8,128.5-88c12.1-15,21.5-31.6,25.3-50.9c4.5-23.1-5.2-39.9-27.3-47.5
        C255,2.2,253.1,2.5,252.6,0.1z"/>
    <path style="fill:#025894;" d="M59.6,259.9c-12.9-0.9-24.6-3.3-35.2-9.4C6.2,240.1-2.5,220.5,0.6,198c2.6-18.3,9.3-35.1,19.2-50.4
        C58.2,88.1,111.2,46.1,176.5,19.7c15.2-6.2,31.2-9.4,47.9-6.7c17.6,2.8,25.7,15.2,21.2,32.5c-2.8,10.7-8.2,20-15.1,28.4
        c-28.4,34.6-64.4,57.7-107.6,69.5c-3.4,0.9-3.5,0.8-6.5,0.2c18.5-9.7,35.7-21.1,49.1-37.5c6.6-8.1,11.8-16.9,14.1-27.2
        c3.7-16.4-4.5-27.4-21.3-27.8c-15.5-0.4-29.5,4.9-42.6,12.5c-36,21-58.1,52.6-68.5,92.5c-8.4,31.9-7.2,63.3,7,93.6
        C55.7,252.9,57.5,256,59.6,259.9z"/>
    <path style="fill:#F06748;" d="M109.4,81.4c-4.3,11.4-7.7,22-9.6,32.9c-8.2,47.3,2.2,90.1,31,128.4c2.8,3.8,2.3,4.8-1.9,6.1
        c-12.5,3.9-25.2,7.4-38.2,9.4c-2.9,0.5-4.5-0.2-6.3-2.4c-13-16-19.8-34.6-22.1-54.7c-3.6-31.6,2.9-61.2,19-88.6
        C88.1,101.1,100.7,87.1,109.4,81.4z"/>
</g>
</svg>
