<!-- Generator: Adobe Illustrator 24.2.1, SVG Export Plug-In  -->
<svg version="1.1" xmlns="http://www.w3.org/2000/svg" xmlns:xlink="http://www.w3.org/1999/xlink" x="0px" y="0px" width="446.9px"
     height="312.8px" viewBox="0 0 446.9 312.8" style="overflow:visible;enable-background:new 0 0 446.9 312.8;"
     xml:space="preserve">
<defs>
</defs>
<path style="fill:#06A1DF;" d="M446,125.8c-7.9-61.1-71.9-99.3-129.4-77.1c-3.8,1.5-5.5,1.1-7.8-2.5C282.1,4.5,225.5-2.7,189.3,31
    c-3.1,2.8-4.1,2-6.4-0.6c-13.1-15.4-29.7-24.9-49.4-29c-1.8-0.4-4,0.3-5.5-1.5c-7.7,0-15.3,0-23,0c-2.7,1.9-5.9,1.7-8.9,2.4
    c-50.6,12.7-78.6,66-60.4,114.9c0.7,1.9,2.1,3.4-0.8,5.3c-18.4,11.9-29.6,28.8-33.8,50.2c-0.2,0.8-0.1,1.7-1.1,2c0,7.7,0,15.3,0,23
    c1.8,1.2,1.3,3.3,1.7,4.9c8.9,38.7,44,63.3,83.2,58.2c2.5-0.3,4.8-1.2,6.4,2.5c11.7,26.4,31.8,42.4,60.1,48.1c0.9,0.2,2.1,0,2.6,1.1
    c7.3,0,14.7,0,22,0c0.4-0.3,0.7-0.8,1.1-0.8c27.9-4.7,48.2-19.8,60.9-45c1.4-2.7,2.5-2.5,4.9-1.5c33.3,13.1,67.3,2.3,87-27.6
    c1.6-2.4,3-2.8,5.6-2.3c10.6,1.8,21.2,1.8,31.8-0.2C419.3,225.4,452.9,178.7,446,125.8z"/>
</svg>
