<?xml version="1.0" encoding="utf-8"?>
<!-- Generator: Adobe Illustrator 24.2.1, SVG Export Plug-In . SVG Version: 6.00 Build 0)  -->
<svg version="1.1" id="Layer_1" xmlns="http://www.w3.org/2000/svg" xmlns:xlink="http://www.w3.org/1999/xlink" x="0px" y="0px"
	 viewBox="0 0 51.4 24.8" style="enable-background:new 0 0 51.4 24.8;" xml:space="preserve">
<g id="Page-1">
	<g id="Home" transform="translate(-100.000000, -58.000000)">
		<g id="header" transform="translate(100.000000, 57.000000)">
			<g id="wizehive-logo-rectangle">
				<polygon id="Path" style="fill:#4E4A4B;" points="20.1,25.8 15.4,12.6 10.8,25.8 6.7,25.8 0,8 4.1,8 8.8,22 13.4,8 17.5,8 
					22.1,22 26.8,8 30.8,8 24.1,25.8 				"/>
				<path id="Path_2_" style="fill:#316CB2;" d="M51.4,14.4v11.4h-6v-9.8c0.1-0.9-0.2-1.8-0.8-2.4s-1.5-1-2.5-1
					c-1.1,0-2.2,0.5-2.9,1.3c-0.7,0.8-1.1,1.9-0.9,3v8.9h-5.8V1h5.8v9.8c1.3-2.1,3.7-3.4,6.2-3.2c1.9-0.1,3.7,0.6,5,2
					C50.9,10.8,51.6,12.6,51.4,14.4"/>
			</g>
		</g>
	</g>
</g>
</svg>
