<svg data-name="Layer 1" xmlns="http://www.w3.org/2000/svg" viewBox="0 0 470.49 470.5"><defs><clipPath id="a"><path style="fill:none" d="M.01 0H470.5v470.49H.01z"/></clipPath></defs><g style="clip-path:url(#a)"><path d="M235.25 470.49c129.92 0 235.24-105.33 235.24-235.24S365.17 0 235.25 0 0 105.33 0 235.25s105.33 235.24 235.25 235.24" style="fill:#037cbf"/><path d="M253.32.76c5.53 117 99.39 210.9 216.41 216.41C461 101.68 368.82 9.56 253.32.76m-107.71 17C60.16 53 0 137.07 0 235.24 0 365.17 105.33 470.5 235.25 470.5c98.17 0 182.27-60.16 217.51-145.61C289.3 311.47 159 181.2 145.61 17.73" style="fill:#0c2074"/></g></svg>