<svg xmlns="http://www.w3.org/2000/svg" viewBox="0 0 310.9 365" style="enable-background:new 0 0 310.9 365" xml:space="preserve"><path style="fill:#002c8a" d="M276.5 111.8 80.2 326h-72c-5 0-9-5-8-10l48-304c1-7 7-12 14-12h122c84 3 107 46 92 112l.3-.2z"/><path style="fill:#009be1" d="M279.7 92c30 16 37 46 27 86-13 59-52 84-109 85l-16 1c-6 0-10 4-11 10l-13 79c-1 7-7 12-14 12h-60c-5 0-9-5-8-10l22-143c1-5 182-120 182-120z"/><path style="fill:#001f6b" d="m96.5 219 20-127c1.3-6.2 6.7-10.7 13-11h96c23 0 40 4 54 11-5 44-26 115-128 117h-44c-5 0-10 4-11 10z"/></svg>