<svg id="Layer_1" data-name="Layer 1" xmlns="http://www.w3.org/2000/svg" xmlns:xlink="http://www.w3.org/1999/xlink" viewBox="0 0 470.49 470.5"><defs><style>.cls-1{fill:none;}.cls-2{clip-path:url(#clip-path);}.cls-3{fill:#037cbf;}.cls-4{fill:#0c2074;}</style><clipPath id="clip-path"><rect class="cls-1" x="0.01" width="470.49" height="470.49"/></clipPath></defs><g class="cls-2"><path class="cls-3" d="M235.25,470.49c129.92,0,235.24-105.33,235.24-235.24S365.17,0,235.25,0,0,105.33,0,235.25,105.33,470.49,235.25,470.49"/><path class="cls-4" d="M253.32.76c5.53,117,99.39,210.9,216.41,216.41C461,101.68,368.82,9.56,253.32.76m-107.71,17C60.16,53,0,137.07,0,235.24,0,365.17,105.33,470.5,235.25,470.5c98.17,0,182.27-60.16,217.51-145.61C289.3,311.47,159,181.2,145.61,17.73"/></g></svg>