<?xml version="1.0" encoding="utf-8"?>
<!-- Generator: Adobe Illustrator 24.2.1, SVG Export Plug-In . SVG Version: 6.00 Build 0)  -->
<svg version="1.1" id="Layer_1" xmlns="http://www.w3.org/2000/svg" xmlns:xlink="http://www.w3.org/1999/xlink" x="0px" y="0px"
     viewBox="0 0 310.9 365" style="enable-background:new 0 0 310.9 365;" xml:space="preserve">
<g>
    <path style="fill:#002C8A;" d="M276.5,111.8L80.2,326h-72c-5,0-9-5-8-10l48-304c1-7,7-12,14-12h122c84,3,107,46,92,112L276.5,111.8
        z"/>
    <path style="fill:#009BE1;" d="M279.7,92c30,16,37,46,27,86c-13,59-52,84-109,85l-16,1c-6,0-10,4-11,10l-13,79c-1,7-7,12-14,12h-60
        c-5,0-9-5-8-10l22-143C98.7,207,279.7,92,279.7,92z"/>
    <path style="fill:#001F6B;" d="M96.5,219l20-127c1.3-6.2,6.7-10.7,13-11h96c23,0,40,4,54,11c-5,44-26,115-128,117h-44
        C102.5,209,97.5,213,96.5,219z"/>
</g>
</svg>
