<?xml version="1.0" encoding="utf-8"?>
<!-- Generator: Adobe Illustrator 24.2.1, SVG Export Plug-In . SVG Version: 6.00 Build 0)  -->
<svg version="1.1" id="Layer_1" xmlns="http://www.w3.org/2000/svg" xmlns:xlink="http://www.w3.org/1999/xlink" x="0px" y="0px"
	 viewBox="0 0 69 28" style="enable-background:new 0 0 69 28;" xml:space="preserve">
<g>
	<path style="fill:#D5002B;" d="M24.4,25L17.6,4.1C16.7,0.9,15,0,12.6,0H0c1,0.4,1.6,2.9,1.6,2.9l6.1,21c0.7,2.6,2.9,4,5.4,4h13.3
		C25.4,27.8,24.4,25,24.4,25"/>
	<path style="fill:#D5002B;" d="M44.6,25l6.8-20.9C52.3,0.9,54,0,56.4,0H69c-1,0.4-1.6,2.9-1.6,2.9l-6.1,21c-0.7,2.6-2.9,4-5.4,4H42.6
		C43.6,27.8,44.6,25,44.6,25"/>
	<rect x="27" style="fill:#D5002B;" width="15" height="28"/>
</g>
</svg>
