<?xml version="1.0" encoding="utf-8"?>
<!-- Generator: Adobe Illustrator 24.2.1, SVG Export Plug-In . SVG Version: 6.00 Build 0)  -->
<svg version="1.1" id="Layer_1" xmlns="http://www.w3.org/2000/svg" xmlns:xlink="http://www.w3.org/1999/xlink" x="0px" y="0px"
     viewBox="0 0 60.2 60.2" style="enable-background:new 0 0 60.2 60.2;" xml:space="preserve">
<g>
    <rect style="fill:#635BFF;" width="60.2" height="60.2"/>
    <path style="fill-rule:evenodd;clip-rule:evenodd;fill:#FFFFFF;" d="M27.4,22.3c0-1.7,1.4-2.3,3.6-2.3c3.2,0,7.3,1,10.5,2.7v-10
        c-3.5-1.4-7-2-10.5-2c-8.6,0-14.4,4.5-14.4,12c0,11.7,16.2,9.9,16.2,14.9c0,2-1.7,2.6-4.1,2.6c-3.5,0-8-1.4-11.6-3.4V47
        c4,1.7,8,2.4,11.6,2.4c8.8,0,14.9-4.4,14.9-12C43.6,24.8,27.4,27,27.4,22.3L27.4,22.3z"/>
</g>
</svg>
