<svg width="30" height="47" xmlns="http://www.w3.org/2000/svg" xmlns:xlink="http://www.w3.org/1999/xlink"><defs><path d="M11.825 24.818c.743 0 1.49-.295 2.267-.885.871-.63 1.655-1.17 1.657-1.172l.536-.369-.529-.38c-.48-.344-11.76-8.439-12.958-9.235-.624-.468-1.345-.564-1.93-.256-.552.29-.868.88-.868 1.62v2.954l.188.135c.081.058 8.081 5.814 9.643 6.89.676.466 1.334.698 1.994.698Zm16.598-4.655C27.724 19.621 2.755 1.623 1.693.857l-.69-.496v4.855c0 1.521.79 2.112 1.703 2.795l.141.107c1.201.91 17.881 12.885 21.129 15.216-3.207 2.3-20.184 14.472-21.288 15.205-1.445.996-1.596 1.681-1.596 3.004l-.04 5.096 27.363-20.127.008-.007C29.727 25.492 30 24.27 30 23.425v-.453c0-1.09-.549-2.065-1.577-2.809Z" id="a"/></defs><g fill="none" fill-rule="evenodd"><mask id="b" fill="#fff"><use xlink:href="#a"/></mask><use fill="#FFF" xlink:href="#a"/><g mask="url(#b)" fill="#356AE6"><path d="M0-1h30v49H0z"/></g></g></svg>