<svg xmlns="http://www.w3.org/2000/svg" viewBox="0 0 49 33.7" style="enable-background:new 0 0 49 33.7" xml:space="preserve"><path style="fill:#409ce3" d="M21.3.4c2.3-.5 4.1-.5 6.2 0 5.3 1.1 9.6 5.4 11 10.6.5 1.8.5 3.6.4 5.4 2.2-.3 4.4.2 6.2 1.4 2.5 1.6 4.1 4.7 3.9 7.7-.1 4.4-4.4 8.3-8.8 8.2H13c-1.8 0-3.3.1-5-.5-3.3-1.1-6.1-3.7-7.3-7-.9-2.1-.7-4.4-.5-6.5.8-5.1 5.3-9.1 10.3-9.6 1.6-4.8 5.8-8.7 10.8-9.7zm-6.5 10.5c2.9.5 5.4 2.3 8.2 3.5-.5.8-1.2 3-1.6 3.8-1.5-.8-3.1-1.5-4.6-2.4-1.8-.9-3.9-1.6-5.8-1.1-3.6.8-6.7 3.8-6.3 7.5.2 4 4.5 6.8 8.5 6.8h25.5c2.1.1 4.8 0 5.9-1.9.8-1.9 1-4.2-1-6-1.5-1.4-3.7-1.4-5.5-.5-.5 1.4-1.3 2.3-2.3 3.4-.7-.6-2.7-1.9-3.4-2.4 1.3-1.5 2.2-3.4 2.4-5.4.7-4.6-2.3-9.4-6.6-11-5.1-2-11.6.7-13.4 5.7z"/></svg>