<svg fill="none" height="48" width="49" xmlns="http://www.w3.org/2000/svg"><path d="M.156 38.462h5.981v-3.736h7.631v3.736h5.981V9.732H.156zM30.214 1.725c-.904 0-1.64.732-1.64 1.632 0 .9.736 1.633 1.64 1.633.904 0 1.64-.732 1.64-1.633 0-.9-.736-1.632-1.64-1.632zm0 7.525c-.904 0-1.64.733-1.64 1.633s.736 1.633 1.64 1.633c.904 0 1.64-.733 1.64-1.633s-.736-1.633-1.64-1.633zm0 7.525c-.904 0-1.64.733-1.64 1.633s.736 1.633 1.64 1.633c.904 0 1.64-.733 1.64-1.633s-.736-1.633-1.64-1.633zm7.706-15.05c-.904 0-1.64.732-1.64 1.632 0 .9.736 1.633 1.64 1.633.904 0 1.64-.732 1.64-1.633 0-.9-.736-1.632-1.64-1.632zm.001 7.525c-.904 0-1.64.733-1.64 1.633s.736 1.633 1.64 1.633 1.64-.733 1.64-1.633-.736-1.633-1.64-1.633zm0 7.525c-.904 0-1.64.733-1.64 1.633s.736 1.633 1.64 1.633 1.64-.733 1.64-1.633-.736-1.633-1.64-1.633zm7.569-15.05c-.904 0-1.64.732-1.64 1.632 0 .9.736 1.633 1.64 1.633.904 0 1.64-.732 1.64-1.633.01-.9-.725-1.632-1.64-1.632zm.001 7.525c-.904 0-1.64.733-1.64 1.633s.736 1.633 1.64 1.633 1.64-.733 1.64-1.633c.01-.9-.725-1.633-1.64-1.633zm0 7.525c-.904 0-1.64.733-1.64 1.633s.736 1.633 1.64 1.633 1.64-.733 1.64-1.633-.725-1.633-1.64-1.633z" fill="#1f2e5c"/><path clip-rule="evenodd" d="M.136 38.002c.126-5.39 4.624-9.661 10.038-9.535 5.424.125 9.712 4.605 9.575 9.995-.126 5.39-4.624 9.661-10.038 9.535C4.298 47.872.01 43.392.136 38.002zm6.532 3.726h6.559v-6.531H6.668z" fill="#e02179" fill-rule="evenodd"/><path d="M19.652 10.312C19.78 4.87 15.534.354 10.17.228 4.807.102.356 4.412.23 9.855c-.128 5.443 4.117 9.958 9.48 10.085 5.364.126 9.815-4.184 9.941-9.627z" fill="#42bb9c"/><path clip-rule="evenodd" d="M27.79 26.614v20.128h20.212V26.614zm16.106 14.6H31.902v-2.49h11.994zm-11.994-6.593h11.994v-2.49H31.902z" fill="#42bb9c" fill-rule="evenodd"/></svg>