<svg width="128" height="128" xmlns="http://www.w3.org/2000/svg"><g fill="none" fill-rule="evenodd"><circle fill="#FF3465" cx="64" cy="64" r="64"/><path d="M49.808 98.366c-4.423-1.782-8.258-4.27-11.5-7.46-3.248-3.19-5.775-6.97-7.587-11.333C28.907 75.209 28 70.402 28 65.145c0-5.348 1.014-10.345 3.043-14.99 2.027-4.645 4.834-8.68 8.42-12.106 3.584-3.424 7.784-6.122 12.594-8.093 4.812-1.97 10-2.956 15.568-2.956 4.149 0 8.041.586 11.675 1.76 3.63 1.174 6.791 2.793 9.48 4.855 2.69 2.066 4.812 4.529 6.368 7.39 1.557 2.864 2.335 5.89 2.335 9.079 0 3.567-1.132 6.545-3.395 8.938-2.265 2.394-5.049 3.59-8.35 3.59-3.397 0-6.227-1.173-8.49-3.518-2.265-2.346-3.397-5.301-3.397-8.868 0-1.032.117-2.019.354-2.957.235-.937.588-2.298 1.06-4.082.472-1.595.78-2.79.922-3.589.14-.796.211-1.665.211-2.604 0-2.439-.798-4.434-2.39-5.982-1.593-1.549-3.602-2.323-6.02-2.323-2.145 0-4.123.685-5.935 2.048-1.816 1.364-3.4 3.223-4.748 5.573-1.352 2.354-2.422 5.15-3.213 8.397-.79 3.247-1.186 6.704-1.186 10.372 0 8.563 2.17 15.36 6.511 20.393 4.337 5.035 10.19 7.55 17.548 7.55 4.151 0 7.924-.774 11.32-2.322 3.396-1.549 6.697-3.963 9.907-7.249l1.697.844c-8.02 17.832-19.86 26.744-35.52 26.744-5.284 0-10.137-.892-14.56-2.673Z" fill="#FFF"/></g></svg>