<svg xmlns="http://www.w3.org/2000/svg" viewBox="0 0 34.1 34.1" style="enable-background:new 0 0 34.1 34.1" xml:space="preserve"><path style="fill:#25c16f" d="M17 0h12.8c2.4 0 4.3 1.9 4.3 4.3v12.8c0 9.4-7.6 17-17 17H17c-9.4 0-17-7.6-17-17S7.6.1 17 0z"/><path style="fill:#fff" d="M17 7.6c-4.3 0-7.8 3.5-7.8 7.8v5.3c0 1.4 1.2 2.6 2.6 2.6H14v-6.1h-3v-1.7c.1-3.4 3-6 6.3-5.8 3.2.1 5.7 2.7 5.8 5.8v1.7h-3v6.1h2v.1c0 1.3-1.1 2.4-2.4 2.4h-2.4c-.2 0-.4.1-.4.3s.2.4.4.4h2.4c1.7 0 3.1-1.4 3.1-3.1v-.2c1.2-.3 2-1.3 2-2.5v-5.2c.1-4.4-3.4-7.9-7.8-7.9z"/></svg>