<svg xmlns="http://www.w3.org/2000/svg" viewBox="0 0 51.5 51.5" style="enable-background:new 0 0 51.5 51.5" xml:space="preserve"><path style="fill:#ff5621" d="M0 0h51.5v51.5H0z"/><path style="fill:#fff" d="M13.2 14.4c0-2.8 2.8-4.1 4.5-4.1 1.5 0 2.9.7 2.9 2.4.2 2.7-1.8 5.1-4.6 5.3-1.5.1-2.8-.5-2.8-3.6zm2.7 3.7zm24.7 21.6c-1.1 1-2.5 1.5-3.9 1.5-3.8 0-5.9-2.5-5.9-6.5 0-2.3.7-5.4.7-7.4 0-1.2-.3-2-1.1-2-1.9 0-3.6 5.6-3.6 12.8 0 1.2-.9 3.1-5.3 3.1-.6 0-.9-.4-1-1.2-1 .8-2.3 1.2-3.5 1.2-4.5 0-6-3.3-6-7.5 0-3.6.5-9.8 1.2-11.3 1-1.7 2.6-2.8 4.5-3.1.9 0 1.7.7 1.7 1.7v.1c0 1.5-1.1 4.9-1.1 9.5s.5 6.1 1.6 6.1c.9.1 1.6-.5 1.8-1.3.1-1.2.2-2.4.3-3.7 0-7.4.2-8.2.5-9.2.4-2.1 3.9-3.6 5.4-3.6.8-.1 1.5.4 1.6 1.2v.4c0 .9-.7 2.2-1 4.1 1.1-2.3 4-5.3 6.6-5.3 3 0 3.7 2.1 3.7 4.8 0 2.8-.8 5.7-.8 8.8 0 2.7.5 3.7 1.5 3.8l2.1 3z"/></svg>