<svg xmlns="http://www.w3.org/2000/svg" viewBox="0 0 505.3 307.8" style="enable-background:new 0 0 505.3 307.8" xml:space="preserve"><path style="fill:#b7d433" d="M.5 307.8c-.2-.9-.3-1.8-.5-2.8.4-.3.8-.7 1.2-1 6.2-3.8 10.9-9 15.1-14.8 1.7-.3 2.7-1.3 3-3 .8-1 1.6-1.9 2.4-2.9 1.3-.3 2.1-1 2.5-2.3 3.4-2.3 6.5-5 8.6-8.6 2.1-.8 3.5-2.4 4.6-4.2l.9-.9c.6-.4 1.2-.9 1.9-1.3 8.6-6 15.7-13.5 22.2-21.7 1.2-.1 1.9-.8 2-2 1-.6 1.9-1.3 2.2-2.6.5-.3 1.1-.5 1.6-.8 1.3.1 2.7.2 4 .2 30.5-.5 60.3-5.4 89.7-13.3 28.2-7.6 54.9-18.8 80.4-32.8 4.5-2.5 9.9-4 13.1-8.6.3-.1.5-.2.8-.3 4.1-1.2 7.9-2.8 10.3-6.6.3-.1.5-.2.7-.4 5.8-1.4 9.8-5.8 14.4-9 3.9-2.7 8.6-4.8 11-9.5.3-.1.5-.2.7-.3 1.9.1 2.8-1 3.3-2.7.3-.3.6-.6 1-.9 1.4-.1 2.7-.5 2.9-2.1.4-.5.7-1.1 1.1-1.6 1.6-.3 2.5-1.7 3.7-2.6 1.8 0 2.8-1 3.2-2.7.3-.4.6-.8.8-1.2 1-.7 1.9-1.4 2.9-2.1 4.7-1.9 7.7-5.5 10.2-9.7 2.6-2.7 5.3-5.4 7.9-8 3.9-2.1 7.2-4.8 8.7-9.2.8-.9 1.6-1.8 2.3-2.8 2.6-.6 3.8-2.3 4.2-4.8 1.3-1.2 2.4-2.4 2.9-4.1.7-.6 1.4-1.2 2-1.9 2-.8 3.5-2 3.6-4.3.4-.6.9-1.2 1.3-1.8 2.2-.5 2.9-2 3-4 1.3-.2 1.9-.9 1.7-2.2.7-.5 1.1-1.1 1-2l.3.2c2.9-1.1 4.1-3.4 4.7-6.2.1-.2.3-.5.3-.7 1.2-.3 1.9-.9 1.7-2.2.1-.2.2-.5.3-.7 3.9-2.9 6.3-6.7 7.5-11.3.2-.2.3-.5.4-.7 2.7-1.7 4.2-4.2 4.7-7.3.2-.2.3-.5.4-.7 4.7-5.4 8.4-11.4 10.6-18.3.1-.2.2-.5.3-.8 3.7-2.4 4.5-6.7 6.4-10.3 4.8-9.1 10.3-18 13.3-28l.1-.1c29.4 0 58.8 0 88.1.1 2 0 4.5-.9 5.2 2.3-.1.2-.3.5-.3.8-1.8.3-2.1 2-2.7 3.3-12.1 27-24.1 53.9-36.2 80.9l-36 79.8c-11.5 25.4-23 50.8-34.5 76.3-7.7 16.9-15.4 33.8-22.8 50.9-1.7 3.9-4.7 7.4-4.5 12-1.8 1.7-4.1 1.1-6.2 1.1-30.7.1-61.4.1-92.1.2.2-4.9 3.1-8.7 5-12.8l52.5-116.7c3.5-7.9 7.2-15.7 10.8-23.6.5-1.2 1.5-2.7 0-3.5-1.2-.7-2.2.8-2.6 1.7-1.7 3.6-5.1 6.2-5.7 10.4-2.5.8-3.4 2.8-3.6 5.3-.2.2-.3.5-.4.7-4.4 3.9-7.9 8.5-9.6 14.3-.2.2-.3.5-.4.7-1.3.2-1.9.9-1.6 2.3-.2.2-.3.5-.4.8-1.3.2-1.9.9-1.7 2.2-.2.2-.3.5-.4.7-2 .7-2.6 2.3-2.8 4.2-.4.6-.8 1.2-1.1 1.9-2.5.8-3.5 2.7-3.7 5.2-.2.2-.3.5-.4.7-1.3.2-1.8 1-1.7 2.3-.2.2-.3.4-.4.7-1.6.4-1.9 1.6-2 3-1.2.3-1.8 1-1.5 2.3-.2.2-.3.4-.4.7-1.7.2-1.8 1.6-2.1 2.9-4 4.2-7.3 8.9-9.5 14.3-.2.2-.3.5-.3.7-1.6.4-2 1.6-2 3-1.3.3-1.8 1-1.6 2.3-.2.2-.3.4-.4.7-1.2.3-1.8 1-1.6 2.3-.2.2-.3.4-.4.7-1.3.3-1.8 1-1.6 2.3-.2.2-.3.4-.4.7-2.9 2.1-4.8 4.8-5.6 8.3-.2.2-.3.5-.4.7-2.6.8-3.5 2.8-3.6 5.3-.2.2-.3.5-.3.8-1.3.2-1.9.8-1.7 2.2-.2.2-.3.5-.3.7-3.2 1.9-4.9 4.7-5.5 8.3-.2.2-.3.5-.4.7-1.3.2-1.9 1-1.6 2.3-.2.2-.3.4-.4.7-1.3.2-1.9.9-1.6 2.3-.2.2-.3.5-.4.7-2.8 2.1-5.1 4.6-5.7 8.2-.1.2-.2.5-.3.8-3.3 1.8-4.9 4.7-5.6 8.3-1.1.5-1.3 1.6-1.6 2.6-1.6.6-2.7 1.5-2.5 3.4-.2.2-.3.5-.4.7-1.7.3-2 1.6-2 3-2.5 1.2-3.5 3.4-4.1 5.9l.2.2-20.9.3c-25.6.2-51.1-.5-76.7.4-.2-1.3-.3-2.5-.5-3.8.2-.2.3-.4.4-.7 1.2-.3 1.9-1 1.6-2.3.2-.2.3-.5.3-.7 3.7-2.4 5.2-6.3 6.7-10.2.1-.2.2-.5.3-.7 1.2-.3 1.9-.9 1.6-2.3 1.6-3 4.3-5.4 5.1-8.9.9-.3 1.2-1 1.3-1.9 1.2-.6 1.6-1.7 2.1-2.8 1.5-.6 2.6-1.6 2.5-3.4.2-.2.3-.5.3-.8 4.3-4.4 7.8-9.3 9.7-15.2.2-.2.3-.4.4-.7 1.2-.3 1.8-1 1.7-2.3.2-.2.3-.4.3-.7 1.2-.3 1.8-1 1.6-2.3.2-.2.3-.5.4-.7 2.2-1.1 3.4-2.9 3.6-5.3.2-.2.3-.5.4-.8 1.6-.3 2.1-1.5 2-2.9v-.1c3-1.2 3.6-3.8 4.7-7.5-4.2 1.8-6.3 4.1-7.9 7.1-.9.9-1.9 1.7-2.8 2.6-3.2.7-4.9 2.9-6.2 5.7-1.2 1.1-2.5 2.2-3.7 3.3-3.2.7-4.9 2.9-6.3 5.7-1.3 1.1-2.5 2.2-3.8 3.3-2.7.5-4.3 2.2-5.2 4.7-1.6 1.4-3.2 2.9-4.8 4.3-2.8.3-4.3 2.2-5.2 4.7l-2.7 2.4c-3.7.8-5.6 3.5-7.3 6.6-.9.8-1.8 1.6-2.8 2.3-2.8.3-4.3 2.2-5.2 4.7l.2.2c-2.2.6-3 3.1-5 4.1-3.5 1-5.6 3.5-7.1 6.6-1 .8-1.9 1.6-2.9 2.5-3.5.7-5.2 3.4-7.1 6.1H6c-1.9-.9-3.7-.6-5.5-.5z"/><path style="fill:#b7d436" d="M188 171.8c-5.3.8-10.6 1.7-15.8 2.5-1.1-.3-2.2-.3-3.1.6-1.3.1-2.6.3-3.9.4-1.1-.4-2.2-.3-3.1.5-3-.1-5.9-.2-8.9.5-2.4-.4-4.8-.7-7.1.5-3.6-.2-7.3-.3-10.9.4-1-.2-1.9-.4-2.9-.5 0-.5.1-1 .1-1.4l3-3c7.8-7.5 15.6-14.9 23.3-22.4 11.7-11.4 23.3-22.8 34.9-34.2 2-1.9 4.3-2.2 6.9-2.2 17.3.1 34.6-.1 51.9.1 3.9 0 6.4-1 8.5-4.5 10.2-16.2 20.6-32.1 30.9-48.3.9-1.4 1.9-2.6 3.2-3.7 1.3 0 2.7-.1 4-.1 15 .7 30 .6 45 0 3.7.6 7.3.6 11 0 2 .5 4 .6 6 0 1.6.5 2.1 1.7 1.8 3.2-7.3 8.2-13.9 16.9-21.3 25-16 17.5-34.2 32.3-53.9 45.5-17.5 11.6-36.2 20.8-55.6 28.5-.9-.1-1.6.1-2.1.9-4 1.3-7.9 2.7-11.9 4-1.2-.1-2.3 0-3.1.9-1.5-.2-2.7.6-3.9 1.2-.8-.2-1.6 0-2.2.7-1.9.5-3.9.9-5.8 1.4-.8-.2-1.6-.1-2.1.6-2 .4-3.9.8-5.9 1.2-.9-.2-1.6 0-2.2.7-.9.2-1.9.3-2.8.5-.7-.3-1.4-.1-2 .5z"/></svg>