<svg data-name="Layer 1" xmlns="http://www.w3.org/2000/svg" viewBox="0 0 40 40"><path d="M20 17.13A2.86 2.86 0 1 1 17.16 20 2.87 2.87 0 0 1 20 17.13z" fill="#1e4164"/><path d="M12.86 7.14a5.72 5.72 0 0 1-5.72 5.72 7.14 7.14 0 0 0 0 14.28 5.72 5.72 0 0 1 5.72 5.72 7.15 7.15 0 0 0 14.29 0 5.71 5.71 0 0 1 5.71-5.71A7.14 7.14 0 1 0 25.72 20 5.72 5.72 0 0 1 20 25.71 5.71 5.71 0 0 1 14.29 20 5.71 5.71 0 0 1 20 14.28a7.14 7.14 0 1 0-7.14-7.14zM30 20a2.86 2.86 0 1 1 2.86 2.86A2.86 2.86 0 0 1 30 20z" fill="#e71e1d"/></svg>