<svg xmlns="http://www.w3.org/2000/svg" viewBox="0 0 41.6 41.6" style="enable-background:new 0 0 41.6 41.6" xml:space="preserve"><path style="fill:#15304d" d="M0 0h41.6v41.6H0z"/><path style="fill:#fff" d="M7.1 16.7c0-.5-.3-.8-.8-.8H4.9v-3.7H9c1.6 0 2.4.7 2.4 2v1.3h.1c.8-1.7 3-3.7 5.8-3.7 2.7 0 4.5 1.2 5.2 3.6h.1c1-1.9 3.3-3.6 6.1-3.6 3.7 0 5.9 2.1 5.9 6.7v7.2c0 .1.1.2.2.3.1.1.2.1.3.2h1.7v3.7h-4.2c-1.7 0-2.4-.7-2.4-2.3v-8.1c0-2-.4-3.5-2.5-3.5-2.2 0-3.8 1.8-4.3 4-.2.7-.3 1.5-.3 2.2v7.7h-4.5V19.3c0-1.9-.3-3.5-2.4-3.5-2.2 0-3.8 1.8-4.3 4.1-.2.7-.3 1.5-.3 2.2v7.7H7.1V16.7z"/></svg>