<svg xmlns="http://www.w3.org/2000/svg" id="Layer_1" x="0" y="0" viewBox="0 0 400 400" style="enable-background:new 0 0 400 400" xml:space="preserve"><style>.st0{fill:#202d53}</style><g id="sqEqs1.tif"><path class="st0" d="M26.1 10.6c6 3.1 12 6 17.9 9.2 70 38 140 76.1 210 114.1.7.4 1.4.9 2.6 1.6-7.9 5.7-15.6 11.2-23.3 16.7-17.2 12.3-34.3 24.5-51.4 36.9-2.1 1.5-3.7 1.6-5.9.5-48.8-23.7-97.6-47.4-146.5-71.1-1.1-.5-2.2-1.1-3.2-1.7-.2-35.4-.2-70.8-.2-106.2z"/><path class="st0" d="M28.3 392V134.6c25.3 15.6 50.1 30.9 75.2 46.4C81.6 246 59.8 310.9 38 375.8c.2.2.4.3.6.5 75-77 149.9-154 224.9-230.9l.9.3v3.8c0 36.9 0 73.7.1 110.6 0 2.9-.8 4.5-3.5 6-76.1 41.2-152.2 82.5-228.3 123.7-1.4.7-2.7 1.3-4.4 2.2z"/></g></svg>