<svg xmlns="http://www.w3.org/2000/svg" width="48" height="48" style="overflow:visible;enable-background:new 0 0 48 48" xml:space="preserve"><path d="M47.9 24.5c0 7-.1 13.9.1 20.9 0 2-.2 2.6-2.5 2.6-14.2-.1-28.5-.1-42.7 0C1 48 0 48.1 0 45.6.2 31.2.1 16.8 0 2.4 0 .6.2 0 2.3 0c14.4.1 28.8.1 43.3 0 2.2 0 2.4.6 2.4 2.6-.1 7.3-.1 14.6-.1 21.9zM17.3 23c.5-.3 1.1-.5 1.6-.8 2.7 4.3 5.5 8.5 8.1 12.8 2.2 3.6 5.7 1.8 8.5 1.8 2.8-.1 2-2.9 2-4.7.1-5.3 0-10.6 0-15.9 0-2.3.2-4.2-3.2-4.2-3.4 0-3.2 2-3.1 4.2V28h-1.4c-2.9-4.7-6-9.2-8.7-14-2.1-3.6-5.3-1.9-8-1.8-2.5.1-2 2.6-2 4.3 0 5.8.1 11.6 0 17.4 0 2.5.5 2.6 3.1 2.2 3.2-.5 3.1-2 3.1-4.3-.2-2.8-.1-5.8 0-8.8z"/><path style="fill:#fcfcfc" d="M17.3 23c0 3-.2 6-.1 9 0 2.3.1 3.8-3.1 4.3-2.6.4-3.1.2-3.1-2.2.1-5.8 0-11.6 0-17.4 0-1.8-.4-4.3 2-4.3 2.7-.1 5.9-1.8 8 1.8 2.8 4.7 5.8 9.3 8.7 14h1.4V16.4c0-2.2-.3-4.2 3.1-4.2s3.2 1.9 3.2 4.2c0 5.3.1 10.6 0 15.9 0 1.8.8 4.7-2 4.7-2.8.1-6.3 1.9-8.5-1.8-2.6-4.3-5.4-8.5-8.1-12.8.1-1-.6-1.9-1.3-1.6-1 .2-.3 1.4-.2 2.2z"/><path style="fill:#242424" d="M17.3 23c-.1-.9-.7-2.1.4-2.4.6-.2 1.4.7 1.3 1.6-.6.3-1.2.6-1.7.8z"/></svg>