<svg xmlns="http://www.w3.org/2000/svg" width="325.3" height="259.9" style="overflow:visible;enable-background:new 0 0 325.3 259.9" xml:space="preserve"><path style="fill:#025894" d="M252.6.1C270-.5 286.8 1.2 302 10.3c17.4 10.3 25.7 29.9 22.6 51.7-3.8 26.9-16.6 49.6-32.8 70.6-35.5 46-80.7 79.7-133 104.3-2.5 1.2-4 1-5.9-1.2-10.5-12.2-19.1-25.5-25.9-40.1-1.8-3.9-1.6-5.2 2.8-6.6 51.7-16.3 94.6-45.8 128.5-88 12.1-15 21.5-31.6 25.3-50.9 4.5-23.1-5.2-39.9-27.3-47.5-1.3-.4-3.2-.1-3.7-2.5z"/><path style="fill:#025894" d="M59.6 259.9c-12.9-.9-24.6-3.3-35.2-9.4C6.2 240.1-2.5 220.5.6 198c2.6-18.3 9.3-35.1 19.2-50.4C58.2 88.1 111.2 46.1 176.5 19.7c15.2-6.2 31.2-9.4 47.9-6.7 17.6 2.8 25.7 15.2 21.2 32.5-2.8 10.7-8.2 20-15.1 28.4-28.4 34.6-64.4 57.7-107.6 69.5-3.4.9-3.5.8-6.5.2 18.5-9.7 35.7-21.1 49.1-37.5 6.6-8.1 11.8-16.9 14.1-27.2 3.7-16.4-4.5-27.4-21.3-27.8-15.5-.4-29.5 4.9-42.6 12.5-36 21-58.1 52.6-68.5 92.5-8.4 31.9-7.2 63.3 7 93.6 1.5 3.2 3.3 6.3 5.4 10.2z"/><path style="fill:#f06748" d="M109.4 81.4c-4.3 11.4-7.7 22-9.6 32.9-8.2 47.3 2.2 90.1 31 128.4 2.8 3.8 2.3 4.8-1.9 6.1-12.5 3.9-25.2 7.4-38.2 9.4-2.9.5-4.5-.2-6.3-2.4-13-16-19.8-34.6-22.1-54.7-3.6-31.6 2.9-61.2 19-88.6 6.8-11.4 19.4-25.4 28.1-31.1z"/></svg>