<svg xmlns="http://www.w3.org/2000/svg" width="402.6" height="402.6" style="overflow:visible;enable-background:new 0 0 402.6 402.6" xml:space="preserve"><path style="fill:#26292c" d="M0 0h402.6v402.6H0z"/><path style="fill:#fff" d="M219.7 80.2c45.9 0 76.8 36.4 76.8 90.5 0 53.3-32.5 90.4-79 90.4-22.2 0-36.4-9.5-43.8-16.4.1 1.6.1 3.5.1 5.4v72.2h-47.5V129.9c0-2.8-.9-3.7-3.7-3.7h-16.4V84.1h39.9c18.4 0 23.1 9.3 24 16.5 7.4-8.3 22.9-20.4 49.6-20.4zm-46.9 91.4c0 22.9 11.6 47.7 37.2 47.7 19 0 38.2-14.8 38.2-48 0-29.1-15.1-48.6-37.5-48.6-18.4 0-37.9 12.8-37.9 48.9z"/></svg>