<svg xmlns="http://www.w3.org/2000/svg" width="446.9" height="312.8" style="overflow:visible;enable-background:new 0 0 446.9 312.8" xml:space="preserve"><path style="fill:#06a1df" d="M446 125.8c-7.9-61.1-71.9-99.3-129.4-77.1-3.8 1.5-5.5 1.1-7.8-2.5C282.1 4.5 225.5-2.7 189.3 31c-3.1 2.8-4.1 2-6.4-.6-13.1-15.4-29.7-24.9-49.4-29-1.8-.4-4 .3-5.5-1.5h-23c-2.7 1.9-5.9 1.7-8.9 2.4-50.6 12.7-78.6 66-60.4 114.9.7 1.9 2.1 3.4-.8 5.3-18.4 11.9-29.6 28.8-33.8 50.2-.2.8-.1 1.7-1.1 2v23c1.8 1.2 1.3 3.3 1.7 4.9 8.9 38.7 44 63.3 83.2 58.2 2.5-.3 4.8-1.2 6.4 2.5 11.7 26.4 31.8 42.4 60.1 48.1.9.2 2.1 0 2.6 1.1h22c.4-.3.7-.8 1.1-.8 27.9-4.7 48.2-19.8 60.9-45 1.4-2.7 2.5-2.5 4.9-1.5 33.3 13.1 67.3 2.3 87-27.6 1.6-2.4 3-2.8 5.6-2.3 10.6 1.8 21.2 1.8 31.8-.2 52-9.7 85.6-56.4 78.7-109.3z"/></svg>