<svg xmlns="http://www.w3.org/2000/svg" width="192" height="192" style="overflow:visible;enable-background:new 0 0 192 192" xml:space="preserve"><path style="fill:#34b5e4" d="M191.9 96c0 30.8 0 61.6.1 92.3 0 2.8-.3 3.7-3.5 3.7-61.7-.1-123.5-.1-185.2 0-2.9 0-3.3-.7-3.3-3.4C.1 126.9.1 65.1 0 3.4 0 .8.3 0 3.2 0 65.2.1 127.1.1 189 0c2.6 0 3 .7 3 3.1-.1 31-.1 61.9-.1 92.9zm-61.4 26.6c.1 7.7-3 15.9-9.6 22.7-3.3 3.4-6.1 7-8.6 11-1.5 2.5-1.9 5 0 7.4 1.5 1.8 3.4 2.7 5.8 2.1 2.9-.8 4.5-2.9 4.6-5.8.3-5.3 3.1-8 8.3-8.9 5.1-.8 7.3-4.1 6-8.9-2.2-7.7-.1-13.6 6-18.6 5.3-4.3 4.6-10.2-1.2-14-7.6-4.9-9.7-10.3-7.5-19.1 2.1-8.3-2.8-13.8-11.3-12.7-7.8 1-13.5-1.7-17.5-8.6-5-8.8-15.3-8.8-20.3 0-3.8 6.7-9.3 9.6-17 8.7C59 76.8 54.4 82 56.6 91c2 8.1-.3 14-7.2 18.4-6.4 4.1-7 9.7-1.2 14.5 5.8 4.8 7.7 10.5 5.7 17.8-1.4 5.3.6 8.5 5.8 9.4 5.2.9 8 3.6 8.3 8.9.2 3 1.7 5 4.6 5.8 2.3.6 4.3-.3 5.8-2.1 2-2.4 1.6-4.9 0-7.4-2.6-4.3-5.8-8.1-9.2-11.8-10.5-11.5-12-29.3-3.7-42.6A35.1 35.1 0 0 1 105 86.6c15.3 4.4 25.6 18.2 25.5 36zM95.6 36.9c-5.3-.1-9.5 3.9-9.7 9.2-.2 5.5 4 9.9 9.4 10 5.2.1 9.6-4 9.8-9.2.1-5.4-4.1-9.9-9.5-10zm31.8 24.4c0-4.7-3.7-8.6-8.4-8.7-4.9-.1-9 3.8-9 8.6 0 4.6 3.8 8.6 8.4 8.7 4.9.2 9-3.7 9-8.6zm-46.6.1c.1-4.6-3.7-8.6-8.4-8.8-4.8-.2-9 3.8-9.1 8.6-.1 4.6 3.8 8.6 8.4 8.8 4.8.2 9-3.8 9.1-8.6zm76.5 34.3c-.1-4.5-3.8-8.3-8.2-8.3-4.7-.1-8.6 3.8-8.6 8.5s4 8.4 8.8 8.3c4.5-.3 8-4 8-8.5zM42.1 87.3c-4.6-.1-8.6 3.9-8.5 8.5.1 4.5 3.7 8.2 8.3 8.2 4.6.1 8.3-3.4 8.5-8 .1-4.6-3.7-8.6-8.3-8.7zm106.7 40.8c-4 0-7.3 3.2-7.3 7.2s3.3 7.3 7.2 7.3c4 0 7.3-3.3 7.3-7.2.1-4-3.2-7.3-7.2-7.3zM142.2 65c-3.8-.1-7 3-7.2 6.8-.2 4.1 3 7.4 7 7.4 3.9 0 7-2.9 7.2-6.7.2-4-3-7.4-7-7.5zm-93 70.4c0-4-3.2-7.3-7.2-7.3s-7.2 3.2-7.3 7.2c0 4 3.2 7.3 7.2 7.3 4 .1 7.3-3.2 7.3-7.2zm6.7-63.2c0-3.8-3.1-7-6.9-7.1-4-.1-7.4 3.1-7.4 7.1 0 4.1 3.3 7.2 7.4 7.1 3.8-.2 6.9-3.3 6.9-7.1zm-16.4 44.2c.1-3.7-2.5-6.4-5.8-6.5-3.5-.2-6.6 2.7-6.3 6.1.3 3.6 2.3 5.9 6 5.9 3.8 0 5.6-2.3 6.1-5.5zm117.9-6.6c-3.7.3-6 2.3-6.1 5.9-.1 3.6 2.1 5.9 5.8 6.1 3.5.3 6.5-2.7 6.3-6.1-.3-3.6-2.4-5.5-6-5.9zm-56-84.6c-.4-3.6-2.4-5.9-6.1-5.8-3.4.1-5.6 2.2-5.7 5.7-.1 3.7 2 6 5.8 6.1 3.6-.1 5.6-2.4 6-6zm59 35.8c-.1-3.2-1.8-5.4-5.1-5.5-3-.1-5.1 1.5-5.4 4.7-.3 3.3 1.4 5.5 4.7 5.8 3.3.3 5.2-1.7 5.8-5zM36.1 66.1c2.8-.5 5-2 4.9-5.4 0-3.3-2.1-5.3-5.3-5.3-3.2 0-5.3 2.1-5.3 5.3.1 3.3 2.1 5.1 5.7 5.4zm107.8 82.3c-3 .3-5.1 1.7-5.2 4.9-.1 3.4 1.8 5.4 5.2 5.4 3.1 0 5-1.9 5-5 0-3.2-2-4.9-5-5.3zM52.2 153c-.5-2.7-2.1-4.7-5.2-4.6-3.3.1-5.2 2.2-4.9 5.6.3 3.1 2.3 4.8 5.4 4.6 2.9-.2 4.5-2.2 4.7-5.6zm12.5 7.7c-.4-2.8-1.8-4.7-4.8-4.7-2.7 0-4.4 1.6-4.6 4.3-.2 2.9 1.5 4.8 4.4 4.9 3 .2 4.5-1.7 5-4.5zm66.4 4.6c2.6-.4 4.5-1.9 4.4-4.8-.1-2.6-1.7-4.4-4.4-4.5-2.9-.1-4.8 1.6-4.9 4.5 0 2.9 1.8 4.5 4.9 4.8zM17.5 119.5c2.6-.3 4.4-1.7 4.5-4.4.1-2.7-1.6-4.5-4.3-4.6-2.9-.1-4.8 1.6-4.7 4.6 0 2.7 1.9 4 4.5 4.4zm160.5-4.6c-.4-2.7-2-4.4-4.6-4.4-2.9 0-4.7 1.8-4.5 4.8.2 2.7 2 4.3 4.7 4.1 2.7-.1 4.1-1.9 4.4-4.5zm-22.9 42.6c-2.2.1-3.8 1.2-4 3.5-.2 2.5 1.3 4.1 3.8 4.1 2.3 0 3.7-1.4 3.8-3.7.2-2.2-1.3-3.5-3.6-3.9zm-115.3 3.8c-.4-2.2-1.5-3.7-3.9-3.7-2.3 0-3.8 1.3-3.8 3.6-.1 2.5 1.4 4 4 3.9 2.3 0 3.4-1.7 3.7-3.8z"/><path style="fill:#f8fcfd" d="M130.5 122.6c.1-17.8-10.2-31.6-25.5-36a35.1 35.1 0 0 0-39.5 15.3c-8.3 13.4-6.8 31.1 3.7 42.6 3.4 3.7 6.6 7.5 9.2 11.8 1.5 2.5 1.9 5 0 7.4-1.5 1.8-3.4 2.7-5.8 2.1-2.9-.8-4.4-2.8-4.6-5.8-.3-5.3-3.1-8-8.3-8.9-5.3-.9-7.3-4.1-5.8-9.4 1.9-7.2 0-13-5.7-17.8-5.8-4.8-5.2-10.4 1.2-14.5 6.9-4.4 9.3-10.3 7.2-18.4-2.3-9 2.3-14.2 11.6-13.1 7.7.9 13.1-1.9 17-8.7 5-8.8 15.3-8.9 20.3 0 4 6.9 9.6 9.7 17.5 8.6 8.5-1.1 13.4 4.4 11.3 12.7-2.2 8.9-.1 14.3 7.5 19.1 5.8 3.7 6.5 9.7 1.2 14-6.1 5-8.2 10.9-6 18.6 1.4 4.8-.9 8.1-6 8.9-5.2.9-8 3.6-8.3 8.9-.2 3-1.7 5-4.6 5.8-2.3.6-4.3-.3-5.8-2.1-2-2.4-1.6-4.9 0-7.4 2.4-4 5.3-7.7 8.6-11 6.6-6.8 9.7-15 9.6-22.7zM95.6 36.9c5.5.1 9.7 4.5 9.5 10-.2 5.2-4.5 9.3-9.8 9.2-5.4-.1-9.6-4.5-9.4-10 .1-5.3 4.3-9.3 9.7-9.2z"/><path style="fill:#f6fbfd" d="M127.4 61.3c0 4.9-4.1 8.8-9 8.6-4.6-.2-8.4-4.1-8.4-8.7 0-4.9 4.1-8.8 9-8.6 4.7.1 8.4 4 8.4 8.7z"/><path style="fill:#f5fbfd" d="M80.8 61.4c-.1 4.8-4.3 8.8-9.1 8.6-4.6-.2-8.4-4.2-8.4-8.8.1-4.8 4.3-8.8 9.1-8.6 4.7.2 8.5 4.2 8.4 8.8z"/><path style="fill:#f7fbfd" d="M157.3 95.7c.1 4.6-3.5 8.3-8 8.5-4.8.2-8.7-3.5-8.8-8.3 0-4.7 3.9-8.6 8.6-8.5 4.4 0 8.1 3.7 8.2 8.3zM42.1 87.3c4.7.1 8.4 4.1 8.2 8.8-.2 4.6-3.9 8-8.5 8-4.5-.1-8.2-3.8-8.3-8.2 0-4.7 3.9-8.7 8.6-8.6z"/><path style="fill:#f5fbfd" d="M148.8 128.1c4 0 7.2 3.3 7.2 7.3s-3.3 7.3-7.3 7.2c-3.9 0-7.2-3.4-7.2-7.3.1-4 3.4-7.2 7.3-7.2z"/><path style="fill:#f4fafd" d="M142.2 65c4 .1 7.2 3.5 7 7.5-.2 3.9-3.3 6.8-7.2 6.7-4.1 0-7.2-3.4-7-7.4.1-3.8 3.4-6.8 7.2-6.8z"/><path style="fill:#f5fbfd" d="M49.2 135.4c0 4-3.3 7.3-7.3 7.2-3.9 0-7.2-3.3-7.2-7.3s3.3-7.2 7.3-7.2 7.3 3.3 7.2 7.3z"/><path style="fill:#f6fbfd" d="M55.9 72.2c0 3.8-3 6.9-6.9 7.1-4.1.1-7.4-3-7.4-7.1 0-4 3.4-7.3 7.4-7.1 3.8.1 6.9 3.3 6.9 7.1z"/><path style="fill:#f2fafc" d="M39.5 116.4c-.5 3.2-2.4 5.5-6.1 5.5-3.7 0-5.8-2.3-6-5.9-.3-3.4 2.8-6.3 6.3-6.1 3.4.1 5.9 2.9 5.8 6.5zm117.9-6.6c3.6.3 5.8 2.3 6 6 .2 3.5-2.8 6.4-6.3 6.1-3.7-.3-5.8-2.6-5.8-6.1.1-3.6 2.4-5.7 6.1-6z"/><path style="fill:#f3fafd" d="M101.4 25.2c-.4 3.7-2.3 5.9-6.1 5.9-3.7-.1-5.8-2.4-5.8-6.1.1-3.4 2.3-5.6 5.7-5.7 3.8 0 5.7 2.2 6.2 5.9zm59 35.8c-.6 3.4-2.4 5.3-5.8 5-3.3-.3-5-2.5-4.7-5.8.3-3.1 2.4-4.8 5.4-4.7 3.2.1 4.9 2.3 5.1 5.5z"/><path style="fill:#eef8fc" d="M36.1 66.1c-3.6-.3-5.6-2.1-5.6-5.4 0-3.3 2.1-5.3 5.3-5.3 3.2 0 5.2 2 5.3 5.3 0 3.4-2.1 4.9-5 5.4z"/><path style="fill:#eff9fc" d="M143.9 148.4c3 .5 5 2.1 4.9 5.2 0 3.1-1.9 5-5 5-3.3 0-5.3-2-5.2-5.4.2-3.1 2.3-4.5 5.3-4.8z"/><path style="fill:#f1f9fc" d="M52.2 153c-.1 3.4-1.7 5.4-4.8 5.6-3 .2-5.1-1.5-5.4-4.6-.3-3.4 1.6-5.4 4.9-5.6 3.1 0 4.8 1.9 5.3 4.6z"/><path style="fill:#edf8fc" d="M64.7 160.7c-.5 2.9-2 4.7-5 4.5-2.9-.2-4.6-2-4.4-4.9.2-2.6 1.9-4.3 4.6-4.3 3 0 4.4 1.8 4.8 4.7z"/><path style="fill:#eef8fc" d="M131.1 165.3c-3.2-.3-5-1.9-4.9-4.8.1-2.9 1.9-4.6 4.9-4.5 2.7.1 4.4 1.9 4.4 4.5.1 2.8-1.7 4.4-4.4 4.8z"/><path style="fill:#f1f9fc" d="M17.5 119.5c-2.6-.4-4.5-1.7-4.5-4.4 0-3 1.8-4.7 4.7-4.6 2.7.1 4.3 1.8 4.3 4.6-.1 2.7-1.9 4.1-4.5 4.4zm160.5-4.6c-.3 2.7-1.7 4.4-4.4 4.5-2.7.1-4.5-1.4-4.7-4.1-.2-3 1.6-4.8 4.5-4.8 2.7 0 4.2 1.7 4.6 4.4z"/><path style="fill:#eef8fc" d="M155.1 157.5c2.3.4 3.7 1.6 3.6 3.9-.1 2.2-1.5 3.7-3.8 3.7-2.5 0-4-1.6-3.8-4.1.2-2.3 1.8-3.4 4-3.5z"/><path style="fill:#edf8fc" d="M39.8 161.3c-.3 2.2-1.3 3.8-3.7 3.8-2.5.1-4-1.4-4-3.9.1-2.3 1.5-3.6 3.8-3.6s3.5 1.5 3.9 3.7z"/></svg>