<svg xmlns="http://www.w3.org/2000/svg" viewBox="0 0 60.7 60.6" style="enable-background:new 0 0 60.7 60.6" xml:space="preserve"><path style="fill:#0ddaf5" d="M46.8 0H13.9C6.2 0 0 6.2 0 13.8v32.9c0 7.7 6.2 13.9 13.9 13.9h32.9c7.7 0 13.9-6.2 13.9-13.9V13.8C60.7 6.2 54.5 0 46.8 0z"/><path style="fill:#fff" d="m48.1 23.6-.5-.4c-2.1-1.5-5.1-1.1-6.6 1L26.2 43.7c-1.5 2.1-1.1 5.1 1 6.6l.5.4c2.1 1.5 5.1 1.1 6.6-1l14.8-19.5c1.6-2.2 1.1-5.1-1-6.6zm-22 8.8-6.4-8.2c-1.5-2.1-4.5-2.6-6.6-1l-.5.4c-2.1 1.5-2.6 4.5-1 6.6l6.8 8.6 3.7 4.5 3.2-4.2c1.7-2.2 2.4-4.6.8-6.7zm4.2-10.6c3.5 0 6.4-2.9 6.4-6.4S33.8 9 30.3 9s-6.4 2.9-6.4 6.4 2.9 6.4 6.4 6.4z"/></svg>