<svg xmlns="http://www.w3.org/2000/svg" viewBox="0 0 51.4 24.8" style="enable-background:new 0 0 51.4 24.8" xml:space="preserve"><path style="fill:#4e4a4b" d="m20.1 25.8-4.7-13.2-4.6 13.2H6.7L0 8h4.1l4.7 14 4.6-14h4.1l4.6 14 4.7-14h4l-6.7 17.8z" transform="translate(0 -1)"/><path style="fill:#316cb2" d="M51.4 14.4v11.4h-6V16c.1-.9-.2-1.8-.8-2.4s-1.5-1-2.5-1c-1.1 0-2.2.5-2.9 1.3-.7.8-1.1 1.9-.9 3v8.9h-5.8V1h5.8v9.8c1.3-2.1 3.7-3.4 6.2-3.2 1.9-.1 3.7.6 5 2 1.4 1.2 2.1 3 1.9 4.8" transform="translate(0 -1)"/></svg>