<svg xmlns="http://www.w3.org/2000/svg" width="56.7" height="56.7" style="overflow:visible;enable-background:new 0 0 56.7 56.7" xml:space="preserve"><path style="fill:#eb413e" d="M0 0h56.7v56.7H0z"/><path style="fill:#fef4f2" d="M24.9 39c4.3 0 7.7-.1 11.1 0 1.9 0 3.7.6 3.6 3-.1 2.1-1.8 2.8-3.4 2.8-5.2.2-10.5.2-15.7 0-2.3-.1-3.3-1.5-3.4-3.9-.2-5.8 3.2-9.8 6.7-13.7 2.1-2.3 4.4-4.4 6.5-6.7 1.3-1.5 1-2.7-1.3-2.7-2.6 0-5.3 0-7.9-.1-1.6-.1-2.9-.7-3-2.6-.1-2 1.1-3.2 2.9-3.2 4.9-.1 9.8-.1 14.8-.1 2.2 0 3.1 1.4 3.2 3.5.2 4.7-1.4 8.6-4.4 12.1-3 3.6-7 6.4-9.7 11.6z"/></svg>