<svg aria-hidden="true" focusable="false" data-prefix="far" role="img" xmlns="http://www.w3.org/2000/svg" viewBox="0 0 448 512">
<path fill="currentColor" d="M400,32H48C21.5,32,0,53.5,0,80v352c0,26.5,21.5,48,48,48h352c26.5,0,48-21.5,48-48V80C448,53.5,426.5,32,400,32z M394,432
    H54c-3.3,0-6-2.7-6-6V86c0-3.3,2.7-6,6-6h340c3.3,0,6,2.7,6,6v340C400,429.3,397.3,432,394,432z"/>
<path fill="currentColor" d="M143.8,332.3l9.2-15c6.5-10.6,15-11.3,25.6-4.8c9.2,5.1,21.2,10.2,34.8,10.2c22.2,0,34.8-10.9,34.8-24.2
    c0-19.1-19.1-26.9-45.4-26.9h-1.4c-10.9,0-16.4-3.4-21.1-13l-1.7-3.4c-4.1-7.8-2.4-16.4,4.4-24.2l22.2-27
    c11.6-14,21.2-22.9,21.2-22.9v-0.7c0,0-7.8,1.7-23.2,1.7h-39.6c-12.3,0-18.8-6.5-18.8-18.8v-13.6c0-12.3,6.5-18.8,18.8-18.8h116.3
    c12.3,0,18.8,6.5,18.8,18.4v5.5c0,9.6-2.4,16-8.5,23.2l-40.9,47.1c36.2,7.8,59,36.5,59,70.6c0,41.6-29.3,83.2-90.4,83.2
    c-33.1,0-56.3-11.6-69.9-20.8C138.3,351.4,137.6,342.2,143.8,332.3z"/>
</svg>
