<svg height="40px" viewBox="0 0 40 40" width="40px" xml:space="preserve" xmlns="http://www.w3.org/2000/svg"><path fill="#efa517" d="M26.075,20.483l-3.046,5.522h-6.091l-3.045-5.522l3.045-5.491  h6.091L26.075,20.483L26.075,20.483z M15.993,14.48l-3.045-5.491H6.857L3.812,14.48l3.046,5.522h6.091L15.993,14.48L15.993,14.48z   M15.993,26.514l-3.045-5.523H6.857l-3.046,5.523l3.046,5.46h6.091l3.045-5.429V26.514z M36.16,14.512l-3.046-5.522h-6.09  l-3.046,5.522l3.046,5.46h6.09L36.16,14.512L36.16,14.512z M36.16,26.514l-3.046-5.523h-6.09l-3.046,5.523l3.046,5.46h6.09  L36.16,26.514L36.16,26.514z M26.075,32.578l-3.046,5.43h-6.091l-3.045-5.43l3.045-5.585h6.091L26.075,32.578L26.075,32.578z   M26.075,8.45l-3.046,5.554h-6.091L13.894,8.45l3.045-5.46h6.091L26.075,8.45z"/></svg>