<svg xmlns="http://www.w3.org/2000/svg" viewBox="0 0 544.2 544.2"><path d="M272.1 0C2.1 0 0 121.8 0 272.1s2.1 272.1 272.1 272.1 272.1-121.8 272.1-272.1S542.1 0 272.1 0z" fill="#ea3b3b"/><path d="M382.2 122.6H162.1c-13.8 0-25 11.2-25 25v249c0 13.8 11.2 25 25 25h220.1c13.8 0 25-11.2 25-25v-249c0-13.7-11.3-25-25-25zM272.1 363.3h-73.4c-10.1 0-18.3-8.2-18.3-18.3 0-10.1 8.2-18.3 18.3-18.3h73.4c10.1 0 18.3 8.2 18.3 18.3.1 10.1-8.2 18.3-18.3 18.3zm73.4-73.4H198.7c-10.1 0-18.3-8.2-18.3-18.3 0-10.1 8.2-18.3 18.3-18.3h146.8c10.1 0 18.3 8.2 18.3 18.3 0 10.1-8.2 18.3-18.3 18.3zm0-73.4H198.7c-10.1 0-18.3-8.2-18.3-18.3 0-10.1 8.2-18.3 18.3-18.3h146.8c10.1 0 18.3 8.2 18.3 18.3 0 10.1-8.2 18.3-18.3 18.3z" fill="#fff"/></svg>