<svg xmlns="http://www.w3.org/2000/svg" viewBox="0 0 270.1 299"><path d="M245.1 0H25C11.2 0 0 11.2 0 25v249c0 13.8 11.2 25 25 25h220.1c13.8 0 25-11.2 25-25V25c0-13.8-11.2-25-25-25zm-110 240.6H61.7c-10.1 0-18.3-8.2-18.3-18.3 0-10.1 8.2-18.3 18.3-18.3h73.4c10.1 0 18.3 8.2 18.3 18.3 0 10.1-8.2 18.3-18.3 18.3zm73.3-73.3H61.7c-10.1 0-18.3-8.2-18.3-18.3 0-10.1 8.2-18.3 18.3-18.3h146.8c10.1 0 18.3 8.2 18.3 18.3 0 10-8.2 18.3-18.4 18.3zm0-73.4H61.7c-10.1 0-18.3-8.2-18.3-18.3 0-10.1 8.2-18.3 18.3-18.3h146.8c10.1 0 18.3 8.2 18.3 18.3 0 10.1-8.2 18.3-18.4 18.3z" fill="#fff"/></svg>