<svg xmlns="http://www.w3.org/2000/svg" viewBox="0 0 358 358" fill-rule="evenodd" clip-rule="evenodd" stroke-linejoin="round" stroke-miterlimit="2"><path d="M168.584 13.379C139.327 26.603 92.679 37.563 52.282 40.733l-8.333.634v80.162c0 50.814.362 82.878.996 87.588 2.536 18.478 9.964 37.68 21.105 54.437 12.318 18.569 30.615 36.775 52.535 52.535 16.123 11.504 40.94 25.453 55.524 31.16l5.072 1.992 8.696-3.442c23.369-9.33 52.716-27.173 70.56-42.753 31.702-27.807 49.274-57.517 54.165-91.302 1.178-7.7 1.45-24.728 1.45-90.125V41.005h-3.533c-1.993 0-10.87-.815-19.746-1.902-38.224-4.529-74.455-13.768-101.719-25.815-5.797-2.536-10.507-4.529-10.507-4.529 0 .09-4.529 2.174-9.963 4.62z" fill="#ffe9ae" fill-rule="nonzero"/><path d="M168.028 4.83c-30.762 13.905-79.81 25.43-122.286 28.762l-8.762.667v84.285c0 53.429.381 87.143 1.048 92.095 2.666 19.429 10.476 39.62 22.19 57.238 12.953 19.524 32.19 38.667 55.238 55.239 16.953 12.095 43.048 26.761 58.381 32.761l5.333 2.096 9.143-3.62c24.572-9.809 55.429-28.57 74.19-44.952 33.334-29.238 51.81-60.476 56.953-96 1.238-8.095 1.524-26 1.524-94.761V33.878h-3.714c-2.096 0-11.429-.857-20.762-2-40.19-4.762-78.286-14.476-106.953-27.143-6.095-2.667-11.047-4.762-11.047-4.762 0 .095-4.762 2.286-10.476 4.857zm23.81 30.596c26.38 10.572 56.683 18.53 93.73 23.768l10.162 1.744-.38 70.463c-.286 79.048-2.213 81.317-4.403 89.697-8.714 33.336-34.275 67.236-75.3 91.524-11.905 7.047-33.715 17.619-36.286 17.523-5.048 0-39.238-11.41-55.048-23.03-39.428-29.047-61.619-60.38-67.809-95.618-1.238-7.429-1.524-20.762-1.524-84.477V51.306l16.286-2.285c37.428-5.334 70.608-7.405 96.799-18.167 6.286-2.572 10.82-.475 11.391-.285.572.19 6.095 2.381 12.381 4.857z" fill="#333f4c" fill-rule="nonzero"/><path d="M179.189 9.213c.914 0 .02 336.304-.208 336.53-.8.793-21.158-7.44-35.44-15.93-18.966-11.095-36.561-24.566-50.386-38.264-21.251-21.17-32.905-40.188-40.56-66-2.514-8.716-2.628-10.64-2.97-96.45l-.343-87.509 6.855-.792c32.22-3.623 91.06-18.453 115.968-29.094 3.199-1.359 6.398-2.49 7.084-2.49z" fill="#333f4c" fill-rule="nonzero"/></svg>