<!-- Generator: Adobe Illustrator 24.2.1, SVG Export Plug-In  -->
<svg version="1.1" xmlns="http://www.w3.org/2000/svg" xmlns:xlink="http://www.w3.org/1999/xlink" x="0px" y="0px" width="180px"
     height="180px" viewBox="0 0 180 180" style="overflow:visible;enable-background:new 0 0 180 180;" xml:space="preserve">
<defs>
</defs>
<g>
    <g>
        <path style="fill:#FEFDFD;" d="M89.7,179.9c-28.6,0-57.3,0-85.9,0c-2.5,0-3.8,0.1-3.8-3.4C0.2,118.8,0.1,61,0,3.3
            C0,0.3,0.8,0,3.4,0C61.2,0.1,119,0.1,176.7,0c2.9,0,3.2,0.8,3.2,3.4c-0.1,57.8-0.1,115.6,0,173.4c0,2.9-0.8,3.3-3.4,3.2
            C147.6,179.9,118.7,179.9,89.7,179.9z M68.1,50.7c-5.3,0.1-10.1,2.9-13.4,8.2c-5.1,8.2-10.2,16.3-15.3,24.5
            c-4.7,7.5-9.5,14.8-13.9,22.4c-4.5,7.8-1.9,17.3,5.4,21.9c7.2,4.6,17.2,3.2,21.8-3.9c10.6-16.3,21.1-32.7,30.9-49.4
            C89.7,63.7,81.4,50.7,68.1,50.7z M90.3,130.2c5.6,0.2,10.3-2,13.2-6.6c10.3-16.1,20.5-32.2,30.4-48.6c4.6-7.6,2-16.8-5.1-21.5
            c-7.2-4.8-17.3-3.5-22.2,3.9c-10.7,16.2-21.1,32.6-30.9,49.4C69.5,117.4,77.9,130.2,90.3,130.2z M140.9,130.3
            c9.1,0,16.3-7,16.4-15.9c0.1-8.7-7.3-16-16.3-16.1c-9.3-0.1-16.7,7.1-16.6,16.2C124.5,123.4,131.7,130.3,140.9,130.3z"/>
        <path style="fill:#F82054;" d="M68.1,50.7c13.3,0.1,21.6,13.1,15.4,23.7c-9.8,16.8-20.3,33.2-30.9,49.4
            c-4.6,7.1-14.6,8.5-21.8,3.9c-7.3-4.6-9.9-14.1-5.4-21.9c4.4-7.6,9.3-15,13.9-22.4c5.1-8.2,10.2-16.3,15.3-24.5
            C58,53.5,62.8,50.8,68.1,50.7z"/>
        <path style="fill:#FECC04;" d="M90.3,130.2c-12.4,0-20.8-12.8-14.6-23.5c9.7-16.8,20.2-33.2,30.9-49.4c4.9-7.4,14.9-8.7,22.2-3.9
            c7.1,4.7,9.7,14,5.1,21.5c-9.9,16.4-20.1,32.5-30.4,48.6C100.6,128.1,95.9,130.3,90.3,130.2z"/>
        <path style="fill:#06CC72;" d="M140.9,130.3c-9.2,0-16.4-6.9-16.5-15.8c-0.1-9.1,7.3-16.3,16.6-16.2c9,0.1,16.4,7.4,16.3,16.1
            C157.2,123.3,150,130.3,140.9,130.3z"/>
    </g>
</g>
</svg>
